<?xml version="1.0" encoding="UTF-8"?>
<svg version="1.1" xmlns="http://www.w3.org/2000/svg" width="515" height="498">
<path d="M0 0 C169.95 0 339.9 0 515 0 C515 164.34 515 328.68 515 498 C345.05 498 175.1 498 0 498 C0 333.66 0 169.32 0 0 Z " fill="#FEFEFE" transform="translate(0,0)"/>
<path d="M0 0 C1.15097168 0.00008057 2.30194336 0.00016113 3.48779297 0.00024414 C12.83841889 0.06045218 22.09867246 0.62978816 31.41430664 1.40332031 C40.27663013 2.1358614 49.12629394 2.56969675 58.01416016 2.84545898 C59.41480713 2.89295288 59.41480713 2.89295288 60.84375 2.94140625 C62.07061523 2.97729858 62.07061523 2.97729858 63.32226562 3.01391602 C65.4375 3.1875 65.4375 3.1875 68.4375 4.1875 C67.57788104 18.60760809 63.11222676 31.61078035 58.4375 45.1875 C58.14762207 46.04182617 57.85774414 46.89615234 57.55908203 47.77636719 C54.91190201 55.57503339 52.09318414 63.26824561 48.84375 70.83984375 C47.72272618 73.50850322 46.64657054 76.18319349 45.59375 78.87890625 C42.20666013 87.53976536 38.69428014 95.96944115 34.41796875 104.23828125 C30.71367155 111.49746189 27.45738933 118.98278979 24.08203125 126.3984375 C22.24631704 130.43034769 20.38113913 134.44577144 18.48022461 138.44726562 C14.78632818 146.23365764 11.53129836 154.15017198 8.4375 162.1875 C8.18613281 162.83332031 7.93476563 163.47914063 7.67578125 164.14453125 C4.66251782 171.89947824 1.91174633 179.67839177 -0.53637695 187.63354492 C-5.88804133 205.01240368 -11.69567244 221.77765451 -19.5625 238.1875 C-20.07006836 239.25468262 -20.57763672 240.32186523 -21.10058594 241.42138672 C-26.21346782 252.16573845 -31.36875319 262.88717974 -36.75 273.5 C-43.58285531 287.0154783 -49.76650234 300.85127834 -55.2734375 314.95703125 C-56.7932974 318.76589227 -58.49232827 322.46905319 -60.21875 326.1875 C-61.90150071 329.9443388 -63.45002477 333.7493759 -65 337.5625 C-67.09268853 342.70660201 -69.26007831 347.78549369 -71.625 352.8125 C-75.92282923 361.97967831 -79.51107712 371.42233296 -83.125 380.875 C-86.38446791 389.38698627 -89.94455511 397.7602374 -93.5625 406.125 C-95.52139323 410.67404105 -97.37394385 415.24211163 -99.125 419.875 C-101.01989377 424.87946303 -103.12206659 429.73293234 -105.390625 434.578125 C-106.50704755 437.06402588 -107.44544255 439.56464 -108.375 442.125 C-111.10425617 449.09355161 -115.25865632 456.98493755 -121.5625 461.1875 C-123.43890381 461.4659729 -123.43890381 461.4659729 -125.57714844 461.50634766 C-126.3843634 461.52620224 -127.19157837 461.54605682 -128.02325439 461.56651306 C-128.89729919 461.57807938 -129.77134399 461.58964569 -130.671875 461.6015625 C-132.03829132 461.63081566 -132.03829132 461.63081566 -133.43231201 461.66065979 C-136.39228011 461.72123502 -139.35225711 461.7675096 -142.3125 461.8125 C-144.33529488 461.84890038 -146.35808144 461.88576569 -148.38085938 461.9230957 C-153.25955681 462.00990869 -158.13833627 462.08344793 -163.01733398 462.15106201 C-165.24406855 462.18294116 -167.47065 462.21912137 -169.69726562 462.25830078 C-175.29813133 462.35196338 -180.88544605 462.39539566 -186.48535156 462.23681641 C-188.41417114 462.19102168 -190.34420368 462.20813025 -192.2734375 462.23046875 C-195.61295547 462.0531857 -197.62821907 461.79269675 -200.5625 460.1875 C-205.87286859 454.20835935 -209.5749455 447.40706755 -211.71484375 439.68359375 C-212.88092271 436.24984048 -214.53516158 433.09318541 -216.1875 429.875 C-227.67580975 407.29188812 -236.79122494 383.67514658 -245.6484375 359.9609375 C-256.32642767 331.3791298 -268.49054488 303.40680483 -280.49267578 275.36376953 C-285.44544521 263.78965059 -290.37891439 252.20730583 -295.3125 240.625 C-296.03223495 238.93588501 -296.03223495 238.93588501 -296.76651001 237.21264648 C-303.22712593 222.04960173 -309.65976664 206.87507063 -316.0625 191.6875 C-330.06783439 158.46873089 -344.13991372 125.2769336 -358.51171875 92.21484375 C-376.59127108 50.60965674 -376.59127108 50.60965674 -384.5625 30.1875 C-384.93761719 29.31867187 -385.31273437 28.44984375 -385.69921875 27.5546875 C-388.50575735 19.85893007 -387.5625 12.44667066 -387.5625 4.1875 C-357.2025 4.1875 -326.8425 4.1875 -295.5625 4.1875 C-286.36356127 22.58537745 -286.36356127 22.58537745 -282.71484375 31.203125 C-282.30128632 32.16893494 -281.88772888 33.13474487 -281.4616394 34.12982178 C-280.13587675 37.23018608 -278.8175055 40.3336188 -277.5 43.4375 C-276.56031554 45.64330397 -275.62045292 47.84903205 -274.68041992 50.0546875 C-272.37406628 55.47159221 -270.07520542 60.89163507 -267.77990723 66.31323242 C-266.70507023 68.8508953 -265.62803528 71.38760588 -264.54980469 73.92382812 C-253.41760225 100.13221436 -242.94200019 126.60968948 -232.39910316 153.05886459 C-227.34437753 165.73871975 -222.2680154 178.409816 -217.18432808 191.07808495 C-214.65104848 197.39194385 -212.11982473 203.70662732 -209.58850384 210.02127171 C-207.51906294 215.18322572 -205.44845423 220.34470428 -203.37496948 225.5050354 C-195.32363121 245.5453178 -187.31980182 265.59852071 -179.671875 285.796875 C-179.38465828 286.55398018 -179.09744156 287.31108536 -178.8015213 288.09113312 C-169.5625 312.48716635 -169.5625 312.48716635 -169.5625 316.1875 C-168.5725 316.5175 -167.5825 316.8475 -166.5625 317.1875 C-166.05771515 319.60325607 -165.55852358 322.01994361 -165.0625 324.4375 C-164.91941406 325.11941406 -164.77632812 325.80132812 -164.62890625 326.50390625 C-163.94998951 329.83383121 -163.5625 332.77082551 -163.5625 336.1875 C-160.9225 336.1875 -158.2825 336.1875 -155.5625 336.1875 C-155.29155518 335.05231934 -155.02061035 333.91713867 -154.74145508 332.74755859 C-153.59514992 328.16949803 -152.18187133 323.70529625 -150.69921875 319.2265625 C-150.42535843 318.39595306 -150.15149811 317.56534363 -149.86933899 316.70956421 C-149.29187226 314.96274095 -148.71276088 313.21646059 -148.13208008 311.47070312 C-147.25556422 308.82926812 -146.39033315 306.18430611 -145.52539062 303.5390625 C-142.98526373 295.84658799 -140.47286524 288.39006097 -136.6237793 281.23339844 C-134.92028433 277.94945829 -133.78016414 274.50662585 -132.625 271 C-130.43020332 264.41560997 -127.91358315 257.98374088 -125.31762695 251.5480957 C-123.35823854 246.6902891 -121.43018105 241.82023329 -119.50390625 236.94921875 C-118.97039299 235.60045403 -118.97039299 235.60045403 -118.42610168 234.22444153 C-117.69432295 232.37405035 -116.9626909 230.52360115 -116.23120117 228.6730957 C-115.13063453 225.88925234 -114.0292084 223.10575007 -112.92773438 220.32226562 C-112.20303383 218.48961938 -111.47842383 216.65693733 -110.75390625 214.82421875 C-110.39898102 213.92694061 -110.04405579 213.02966248 -109.67837524 212.10519409 C-107.98324969 207.8130252 -106.2995222 203.51710265 -104.64404297 199.20947266 C-101.86950782 191.99247076 -99.04574951 184.86361453 -95.77392578 177.85351562 C-93.32414201 172.46221398 -91.18533524 166.93994639 -89 161.4375 C-88.47669902 160.12522215 -87.9533416 158.81296681 -87.42993164 157.50073242 C-83.46749452 147.54764752 -79.59900802 137.55917055 -75.75408936 127.56021118 C-71.71400222 117.0590636 -67.50977544 106.63505976 -63.2277832 96.22973633 C-60.4868197 89.54267396 -57.94811435 82.83924405 -55.58984375 76.0078125 C-54.26577826 72.3729255 -52.64916445 68.91623342 -51.01171875 65.4140625 C-46.46805041 55.29797072 -42.35829349 44.96385003 -39.0625 34.375 C-35.34528233 22.897934 -29.65084837 9.29509933 -18.9375 2.8125 C-12.61388812 -0.23220202 -6.92769984 -0.00455836 0 0 Z " fill="#020202" transform="translate(408.5625,17.8125)"/>
<path d="M0 0 C1.15097168 0.00008057 2.30194336 0.00016113 3.48779297 0.00024414 C12.83841889 0.06045218 22.09867246 0.62978816 31.41430664 1.40332031 C40.27663013 2.1358614 49.12629394 2.56969675 58.01416016 2.84545898 C59.41480713 2.89295288 59.41480713 2.89295288 60.84375 2.94140625 C62.07061523 2.97729858 62.07061523 2.97729858 63.32226562 3.01391602 C65.4375 3.1875 65.4375 3.1875 68.4375 4.1875 C67.57788104 18.60760809 63.11222676 31.61078035 58.4375 45.1875 C58.14762207 46.04182617 57.85774414 46.89615234 57.55908203 47.77636719 C54.91190201 55.57503339 52.09318414 63.26824561 48.84375 70.83984375 C47.72272618 73.50850322 46.64657054 76.18319349 45.59375 78.87890625 C42.20666013 87.53976536 38.69428014 95.96944115 34.41796875 104.23828125 C30.71367155 111.49746189 27.45738933 118.98278979 24.08203125 126.3984375 C22.24631704 130.43034769 20.38113913 134.44577144 18.48022461 138.44726562 C14.78632818 146.23365764 11.53129836 154.15017198 8.4375 162.1875 C8.18613281 162.83332031 7.93476563 163.47914063 7.67578125 164.14453125 C4.66251782 171.89947824 1.91174633 179.67839177 -0.53637695 187.63354492 C-5.88804133 205.01240368 -11.69567244 221.77765451 -19.5625 238.1875 C-20.07006836 239.25468262 -20.57763672 240.32186523 -21.10058594 241.42138672 C-26.21346782 252.16573845 -31.36875319 262.88717974 -36.75 273.5 C-43.58285531 287.0154783 -49.76650234 300.85127834 -55.2734375 314.95703125 C-56.7932974 318.76589227 -58.49232827 322.46905319 -60.21875 326.1875 C-61.90150071 329.9443388 -63.45002477 333.7493759 -65 337.5625 C-67.09268853 342.70660201 -69.26007831 347.78549369 -71.625 352.8125 C-75.92282923 361.97967831 -79.51107712 371.42233296 -83.125 380.875 C-86.38446791 389.38698627 -89.94455511 397.7602374 -93.5625 406.125 C-95.52139323 410.67404105 -97.37394385 415.24211163 -99.125 419.875 C-101.01989377 424.87946303 -103.12206659 429.73293234 -105.390625 434.578125 C-106.50704755 437.06402588 -107.44544255 439.56464 -108.375 442.125 C-111.10425617 449.09355161 -115.25865632 456.98493755 -121.5625 461.1875 C-123.43890381 461.4659729 -123.43890381 461.4659729 -125.57714844 461.50634766 C-126.3843634 461.52620224 -127.19157837 461.54605682 -128.02325439 461.56651306 C-128.89729919 461.57807938 -129.77134399 461.58964569 -130.671875 461.6015625 C-132.03829132 461.63081566 -132.03829132 461.63081566 -133.43231201 461.66065979 C-136.39228011 461.72123502 -139.35225711 461.7675096 -142.3125 461.8125 C-144.33529488 461.84890038 -146.35808144 461.88576569 -148.38085938 461.9230957 C-153.25955681 462.00990869 -158.13833627 462.08344793 -163.01733398 462.15106201 C-165.24406855 462.18294116 -167.47065 462.21912137 -169.69726562 462.25830078 C-175.29813133 462.35196338 -180.88544605 462.39539566 -186.48535156 462.23681641 C-188.41417114 462.19102168 -190.34420368 462.20813025 -192.2734375 462.23046875 C-195.61295547 462.0531857 -197.62821907 461.79269675 -200.5625 460.1875 C-205.87286859 454.20835935 -209.5749455 447.40706755 -211.71484375 439.68359375 C-212.88092271 436.24984048 -214.53516158 433.09318541 -216.1875 429.875 C-228.00390316 406.64693944 -237.30885533 382.32389669 -246.39898682 357.92701721 C-247.93120145 353.82907537 -249.51606056 349.75709956 -251.15234375 345.69921875 C-251.73918945 344.24032227 -251.73918945 344.24032227 -252.33789062 342.75195312 C-253.13410447 340.78082204 -253.93650271 338.812181 -254.74414062 336.84570312 C-255.12634766 335.88986328 -255.50855469 334.93402344 -255.90234375 333.94921875 C-256.24644287 333.10319092 -256.59054199 332.25716309 -256.94506836 331.38549805 C-257.5625 329.1875 -257.5625 329.1875 -256.5625 326.1875 C-256.83821139 324.17874558 -257.16485737 322.17571313 -257.5625 320.1875 C-243.98380096 326.22247735 -237.79905328 343.58050496 -232.60598755 356.58230591 C-230.71973604 361.52916333 -228.94236967 366.5144633 -227.17788696 371.50582886 C-219.51574669 393.13395544 -210.88017254 414.11828371 -201.23046875 434.94140625 C-200.68209351 436.12706177 -200.13371826 437.31271729 -199.56872559 438.53430176 C-198.23429074 441.41915354 -196.89886879 444.30354372 -195.5625 447.1875 C-194.80796539 447.23539169 -194.05343079 447.28328339 -193.27603149 447.33262634 C-186.12698272 447.78671289 -178.97804851 448.24254797 -171.82923317 448.70029354 C-168.15493248 448.9355021 -164.4805928 449.17006037 -160.80615234 449.40307617 C-157.25285156 449.62843483 -153.69966857 449.85557521 -150.14655685 450.08389473 C-148.1472303 450.21191946 -146.14778917 450.33815081 -144.14834595 450.46434021 C-137.26961171 450.9079809 -130.41454963 451.43313962 -123.5625 452.1875 C-123.46819702 451.50530396 -123.37389404 450.82310791 -123.2767334 450.12023926 C-122.89599802 447.37137692 -122.51043032 444.62320784 -122.125 441.875 C-121.99029297 440.89853516 -121.85558594 439.92207031 -121.71679688 438.91601562 C-121.58466797 437.97822266 -121.45253906 437.04042969 -121.31640625 436.07421875 C-121.19595947 435.21014404 -121.0755127 434.34606934 -120.95141602 433.45581055 C-120.5625 431.1875 -120.5625 431.1875 -119.5625 428.1875 C-116.9225 428.1875 -114.2825 428.1875 -111.5625 428.1875 C-111.47613281 427.18074219 -111.38976562 426.17398437 -111.30078125 425.13671875 C-108.24041511 393.0396296 -93.56857882 364.17670215 -77.1875 336.8125 C-68.44678952 321.56581739 -60.5625 297.96168807 -60.5625 280.1875 C-62.5425 279.1975 -64.5225 278.2075 -66.5625 277.1875 C-66.2325 276.5275 -65.9025 275.8675 -65.5625 275.1875 C-63.19921875 274.5546875 -63.19921875 274.5546875 -60.25 274.0625 C-59.28449219 273.89492188 -58.31898438 273.72734375 -57.32421875 273.5546875 C-54.5625 273.1875 -54.5625 273.1875 -50.5625 273.1875 C-50.42714844 272.63707031 -50.29179687 272.08664062 -50.15234375 271.51953125 C-48.36191035 264.60438428 -46.18760536 257.84030527 -43.9375 251.0625 C-43.62417725 250.1135083 -43.31085449 249.1645166 -42.98803711 248.18676758 C-42.69034424 247.29755615 -42.39265137 246.40834473 -42.0859375 245.4921875 C-41.6825415 244.2853833 -41.6825415 244.2853833 -41.27099609 243.05419922 C-40.5625 241.1875 -40.5625 241.1875 -39.5625 240.1875 C-36.89191149 240.04634839 -34.23817762 240.14502893 -31.5625 240.1875 C-31.61792969 239.28 -31.67335938 238.3725 -31.73046875 237.4375 C-31.7234719 231.86240667 -30.21037584 226.56731828 -28.875 221.1875 C-28.60244385 220.07479736 -28.3298877 218.96209473 -28.04907227 217.81567383 C-25.16015516 206.23896757 -21.52509346 195.1863504 -16.8125 184.21484375 C-15.44666582 180.90696409 -14.2461785 177.56468273 -13.0625 174.1875 C-5.98689372 154.22102354 -5.98689372 154.22102354 -0.5625 150.1875 C1.75 149.375 1.75 149.375 3.4375 149.1875 C3.52 148.383125 3.6025 147.57875 3.6875 146.75 C4.47212209 143.02304509 5.75159268 140.03711094 7.40234375 136.62890625 C8.70964016 133.54565999 9.5391226 130.41439234 10.4375 127.1875 C13.66231222 116.61760946 17.25047176 106.2493666 21.6875 96.125 C30.73223746 75.46356183 38.5154547 54.56765307 45.24609375 33.05859375 C47.13701802 27.03363106 49.21335304 21.09702883 51.4375 15.1875 C50.59799805 15.19837646 49.75849609 15.20925293 48.89355469 15.22045898 C40.11018008 15.28416818 31.44907927 14.88620611 22.6875 14.25 C8.61294749 13.27026671 -5.46035689 12.63449487 -19.5625 12.1875 C-19.665625 13.425 -19.76875 14.6625 -19.875 15.9375 C-21.21224457 27.40198024 -25.13178032 37.44264615 -29.68527222 47.93444824 C-37.35097545 65.64532484 -43.75718366 83.53586791 -49.3203125 102.0234375 C-54.26336362 118.07277964 -61.41001837 132.68442813 -68.85743713 147.67739868 C-75.20911004 160.50819678 -79.90016494 173.79229639 -84.54296875 187.31640625 C-93.717322 214.03215801 -104.43828733 239.98981191 -116.31079102 265.60864258 C-121.32922428 276.46450035 -126.099913 287.40186333 -129.75244141 298.80371094 C-131.47401622 303.86985212 -133.50470971 308.82636966 -135.46176147 313.80535889 C-139.9709435 325.28737143 -144.29543154 336.80309067 -148.23901367 348.49462891 C-148.68337769 349.80826416 -148.68337769 349.80826416 -149.13671875 351.1484375 C-149.39026123 351.90946777 -149.64380371 352.67049805 -149.9050293 353.45458984 C-150.5625 355.1875 -150.5625 355.1875 -151.5625 356.1875 C-157.99151044 356.76151879 -163.14460905 355.86673241 -168.5625 352.1875 C-170.57484697 349.42690467 -171.58501787 346.51201275 -172.65234375 343.28515625 C-172.97412094 342.40239517 -173.29589813 341.51963409 -173.62742615 340.61012268 C-174.63831658 337.81294212 -175.60190995 335.00229906 -176.5625 332.1875 C-177.187685 330.42339926 -177.81540978 328.66019633 -178.44580078 326.89794922 C-179.71200454 323.33829731 -180.96041983 319.77311945 -182.19433594 316.20214844 C-190.02316047 293.55315371 -198.67159693 271.37698669 -208.74829102 249.62817383 C-211.33499079 244.01015628 -213.20596593 238.28935286 -215 232.375 C-217.98437281 222.83381232 -221.19704087 213.74719079 -225.7890625 204.84375 C-239.39525241 178.42257856 -249.86343237 150.54776576 -260.84082031 122.96264648 C-266.32447965 109.19700207 -271.951862 95.4969079 -277.70507812 81.84179688 C-282.7707936 69.80811281 -287.57942657 58.03580372 -290.5703125 45.3046875 C-291.55554281 42.20935763 -292.017098 41.07602406 -294.5625 39.1875 C-295.41239502 38.78088135 -296.26229004 38.3742627 -297.13793945 37.95532227 C-299.5625 36.1875 -299.5625 36.1875 -300.13012695 33.64379883 C-300.09085083 32.15916138 -300.09085083 32.15916138 -300.05078125 30.64453125 C-300.03466797 29.57138672 -300.01855469 28.49824219 -300.00195312 27.39257812 C-299.96005859 26.27302734 -299.91816406 25.15347656 -299.875 24 C-299.85244141 22.86884766 -299.82988281 21.73769531 -299.80664062 20.57226562 C-299.74764811 17.77602024 -299.6653824 14.98241903 -299.5625 12.1875 C-300.59544189 12.31302246 -301.62838379 12.43854492 -302.69262695 12.56787109 C-317.67524364 14.30581916 -332.69133741 15.05577364 -347.75 15.8125 C-350.36135201 15.94745527 -352.97268038 16.08286877 -355.58398438 16.21875 C-361.90989392 16.54694066 -368.23606994 16.86950931 -374.5625 17.1875 C-372.5955514 21.83860434 -370.61589076 26.48410426 -368.625 31.125 C-368.32805237 31.81720642 -368.03110474 32.50941284 -367.72515869 33.22259521 C-364.41420684 40.91507801 -361.06363081 48.5140463 -356.9375 55.8125 C-349.37604402 69.30608989 -344.4611111 84.30366317 -339.11938477 98.77807617 C-336.55136691 105.73369917 -333.80429921 112.59963145 -330.9375 119.4375 C-330.5647998 120.3442749 -330.19209961 121.2510498 -329.80810547 122.18530273 C-329.44604004 123.03680908 -329.08397461 123.88831543 -328.7109375 124.765625 C-328.23406494 125.90112793 -328.23406494 125.90112793 -327.74755859 127.05957031 C-326.63138465 129.31245738 -326.63138465 129.31245738 -324.54833984 131.10205078 C-322.13245933 133.63911144 -321.545396 135.60856584 -320.640625 138.9765625 C-320.18623047 140.63558594 -320.18623047 140.63558594 -319.72265625 142.328125 C-319.27212891 144.05289063 -319.27212891 144.05289063 -318.8125 145.8125 C-318.49667969 146.97007812 -318.18085938 148.12765625 -317.85546875 149.3203125 C-315.5625 157.81720103 -315.5625 157.81720103 -315.5625 160.1875 C-312.9225 160.1875 -310.2825 160.1875 -307.5625 160.1875 C-307.53671875 161.25226563 -307.5109375 162.31703125 -307.484375 163.4140625 C-307.42798343 164.88024323 -307.37063894 166.34638752 -307.3125 167.8125 C-307.29832031 168.50601563 -307.28414063 169.19953125 -307.26953125 169.9140625 C-306.72518456 182.10742825 -301.98083585 193.12500067 -296.6875 203.9375 C-295.51032891 206.40394968 -294.34697082 208.87674852 -293.1875 211.3515625 C-292.888367 211.98983978 -292.58923401 212.62811707 -292.28103638 213.28573608 C-283.20812231 232.76403532 -275.49906776 252.87056772 -268.15350342 273.0524292 C-267.47254434 274.92121756 -266.78693651 276.7883191 -266.09649658 278.65362549 C-265.13246942 281.26736318 -264.19015041 283.88792063 -263.25390625 286.51171875 C-262.96511093 287.2863295 -262.67631561 288.06094025 -262.37876892 288.85902405 C-260.68285335 293.71230561 -260.43385653 297.04651137 -261.5625 302.1875 C-261.8409375 304.1365625 -261.8409375 304.1365625 -262.125 306.125 C-262.269375 307.135625 -262.41375 308.14625 -262.5625 309.1875 C-263.5525 309.5175 -264.5425 309.8475 -265.5625 310.1875 C-281.96988087 271.94980273 -298.33729008 233.6964257 -314.5083313 195.35803223 C-329.03556451 160.91737199 -343.61021269 126.49550168 -358.51171875 92.21484375 C-376.59127108 50.60965674 -376.59127108 50.60965674 -384.5625 30.1875 C-384.93761719 29.31867187 -385.31273437 28.44984375 -385.69921875 27.5546875 C-388.50575735 19.85893007 -387.5625 12.44667066 -387.5625 4.1875 C-357.2025 4.1875 -326.8425 4.1875 -295.5625 4.1875 C-286.36356127 22.58537745 -286.36356127 22.58537745 -282.71484375 31.203125 C-282.30128632 32.16893494 -281.88772888 33.13474487 -281.4616394 34.12982178 C-280.13587675 37.23018608 -278.8175055 40.3336188 -277.5 43.4375 C-276.56031554 45.64330397 -275.62045292 47.84903205 -274.68041992 50.0546875 C-272.37406628 55.47159221 -270.07520542 60.89163507 -267.77990723 66.31323242 C-266.70507023 68.8508953 -265.62803528 71.38760588 -264.54980469 73.92382812 C-253.41760225 100.13221436 -242.94200019 126.60968948 -232.39910316 153.05886459 C-227.34437753 165.73871975 -222.2680154 178.409816 -217.18432808 191.07808495 C-214.65104848 197.39194385 -212.11982473 203.70662732 -209.58850384 210.02127171 C-207.51906294 215.18322572 -205.44845423 220.34470428 -203.37496948 225.5050354 C-195.32363121 245.5453178 -187.31980182 265.59852071 -179.671875 285.796875 C-179.38465828 286.55398018 -179.09744156 287.31108536 -178.8015213 288.09113312 C-169.5625 312.48716635 -169.5625 312.48716635 -169.5625 316.1875 C-168.5725 316.5175 -167.5825 316.8475 -166.5625 317.1875 C-166.05771515 319.60325607 -165.55852358 322.01994361 -165.0625 324.4375 C-164.91941406 325.11941406 -164.77632812 325.80132812 -164.62890625 326.50390625 C-163.94998951 329.83383121 -163.5625 332.77082551 -163.5625 336.1875 C-160.9225 336.1875 -158.2825 336.1875 -155.5625 336.1875 C-155.29155518 335.05231934 -155.02061035 333.91713867 -154.74145508 332.74755859 C-153.59514992 328.16949803 -152.18187133 323.70529625 -150.69921875 319.2265625 C-150.42535843 318.39595306 -150.15149811 317.56534363 -149.86933899 316.70956421 C-149.29187226 314.96274095 -148.71276088 313.21646059 -148.13208008 311.47070312 C-147.25556422 308.82926812 -146.39033315 306.18430611 -145.52539062 303.5390625 C-142.98526373 295.84658799 -140.47286524 288.39006097 -136.6237793 281.23339844 C-134.92028433 277.94945829 -133.78016414 274.50662585 -132.625 271 C-130.43020332 264.41560997 -127.91358315 257.98374088 -125.31762695 251.5480957 C-123.35823854 246.6902891 -121.43018105 241.82023329 -119.50390625 236.94921875 C-118.97039299 235.60045403 -118.97039299 235.60045403 -118.42610168 234.22444153 C-117.69432295 232.37405035 -116.9626909 230.52360115 -116.23120117 228.6730957 C-115.13063453 225.88925234 -114.0292084 223.10575007 -112.92773438 220.32226562 C-112.20303383 218.48961938 -111.47842383 216.65693733 -110.75390625 214.82421875 C-110.39898102 213.92694061 -110.04405579 213.02966248 -109.67837524 212.10519409 C-107.98324969 207.8130252 -106.2995222 203.51710265 -104.64404297 199.20947266 C-101.86950782 191.99247076 -99.04574951 184.86361453 -95.77392578 177.85351562 C-93.32414201 172.46221398 -91.18533524 166.93994639 -89 161.4375 C-88.47669902 160.12522215 -87.9533416 158.81296681 -87.42993164 157.50073242 C-83.46749452 147.54764752 -79.59900802 137.55917055 -75.75408936 127.56021118 C-71.71400222 117.0590636 -67.50977544 106.63505976 -63.2277832 96.22973633 C-60.4868197 89.54267396 -57.94811435 82.83924405 -55.58984375 76.0078125 C-54.26577826 72.3729255 -52.64916445 68.91623342 -51.01171875 65.4140625 C-46.46805041 55.29797072 -42.35829349 44.96385003 -39.0625 34.375 C-35.34528233 22.897934 -29.65084837 9.29509933 -18.9375 2.8125 C-12.61388812 -0.23220202 -6.92769984 -0.00455836 0 0 Z " fill="#1F1E1F" transform="translate(408.5625,17.8125)"/>
<path d="M0 0 C24.09 0 48.18 0 73 0 C73 80.52 73 161.04 73 244 C61.49790276 249.11204322 61.49790276 249.11204322 53.83007812 249.14526367 C52.82553589 249.15164352 51.82099365 249.15802338 50.78601074 249.16459656 C49.7119397 249.16570938 48.63786865 249.1668222 47.53125 249.16796875 C46.41818481 249.17129715 45.30511963 249.17462555 44.1583252 249.17805481 C41.80819105 249.1831107 39.45804974 249.18546355 37.10791016 249.18530273 C33.51322643 249.18749194 29.91884832 249.20566956 26.32421875 249.22460938 C24.03906355 249.22754301 21.75390689 249.22952801 19.46875 249.23046875 C17.85764343 249.24124702 17.85764343 249.24124702 16.21398926 249.25224304 C15.20944702 249.24916641 14.20490479 249.24608978 13.16992188 249.24291992 C12.29009644 249.24434494 11.410271 249.24576996 10.50378418 249.24723816 C6.72822984 248.87441804 3.90304534 247.92302422 1.234375 245.1953125 C0.49960937 244.17050781 0.49960937 244.17050781 -0.25 243.125 C-1.00023437 242.10792969 -1.00023437 242.10792969 -1.765625 241.0703125 C-3.71786582 237.79598454 -4.1247565 234.74934194 -4.12863445 230.97942543 C-4.1318589 230.18443063 -4.13508335 229.38943584 -4.1384055 228.57035029 C-4.1368569 227.70284911 -4.1353083 226.83534793 -4.13371277 225.94155884 C-4.13597833 225.01540815 -4.13824388 224.08925746 -4.14057809 223.13504159 C-4.14692001 220.02442269 -4.1460886 216.91384732 -4.14526367 213.80322266 C-4.14825503 211.57594242 -4.15165751 209.3486627 -4.15544128 207.12138367 C-4.16428763 201.06562291 -4.16661966 195.00987627 -4.16725707 188.95410967 C-4.16820577 183.90180066 -4.17188361 178.84949495 -4.17542917 173.79718721 C-4.18311055 162.56013302 -4.18609757 151.32308551 -4.18542381 140.08602948 C-4.18538386 139.41181944 -4.1853439 138.7376094 -4.18530273 138.04296875 C-4.18526185 137.36793507 -4.18522097 136.69290138 -4.18517885 135.99741213 C-4.18477239 125.057109 -4.19434221 114.1168403 -4.2084411 103.17654712 C-4.22280516 91.9418065 -4.22952813 80.70708215 -4.22884732 69.47233045 C-4.22859211 63.16540256 -4.23145626 56.85851362 -4.24202538 50.55159378 C-4.25169295 44.62057139 -4.25179472 38.68962529 -4.24450874 32.75860023 C-4.24346125 30.58093848 -4.24583553 28.40327201 -4.2518692 26.22561836 C-4.25956869 23.25445818 -4.25495776 20.28356279 -4.24723816 17.31240845 C-4.25238172 16.44936871 -4.25752529 15.58632898 -4.26282471 14.69713652 C-4.23118342 9.1914154 -4.10314948 4.10314948 0 0 Z " fill="#030205" transform="translate(428,230)"/>
<path d="M0 0 C1.4530957 -0.04350586 1.4530957 -0.04350586 2.93554688 -0.08789062 C3.88880859 -0.09626953 4.84207031 -0.10464844 5.82421875 -0.11328125 C6.68490967 -0.12786377 7.54560059 -0.14244629 8.43237305 -0.1574707 C11.25276559 0.30275271 12.97983856 1.04565747 15.49250793 2.34187317 C16.56727497 2.89238704 16.56727497 2.89238704 17.66375446 3.45402241 C18.4798835 3.87896882 18.4798835 3.87896882 19.3125 4.3125 C19.42926621 21.45401907 19.51745503 38.59541415 19.57156086 55.73723984 C19.59735016 63.69638101 19.63251417 71.65527518 19.68969727 79.61425781 C19.73951048 86.55077218 19.77178575 93.48710768 19.78294247 100.42379594 C19.78946492 104.09732849 19.80480841 107.77034932 19.84115028 111.44371796 C19.88137857 115.54311386 19.8824508 119.64161837 19.88012695 123.74121094 C19.89810333 124.96112732 19.91607971 126.1810437 19.93460083 127.43792725 C19.88403342 135.64963013 19.88403342 135.64963013 16.96452332 139.03570557 C13.23262478 140.83239689 10.43782499 141.44220352 6.34130859 141.47363281 C5.32950531 141.48324036 4.31770203 141.4928479 3.27523804 141.50274658 C2.18151886 141.50699646 1.08779968 141.51124634 -0.0390625 141.515625 C-1.16766693 141.52132507 -2.29627136 141.52702515 -3.45907593 141.53289795 C-5.85145123 141.54235178 -8.24383958 141.54888344 -10.63623047 141.55273438 C-14.27725352 141.56240637 -17.91770402 141.59341305 -21.55859375 141.625 C-23.88541332 141.63153359 -26.21223693 141.63678266 -28.5390625 141.640625 C-30.16142319 141.6591452 -30.16142319 141.6591452 -31.81655884 141.67803955 C-39.37538608 141.65603079 -45.86417257 140.91976668 -52.21899414 136.58618164 C-54.25990399 133.42624924 -54.24252821 130.57579721 -54.18359375 126.93359375 C-54.18645386 126.21384369 -54.18931396 125.49409363 -54.19226074 124.75253296 C-54.19313936 122.41757709 -54.1617039 120.08464829 -54.125 117.75 C-54.1175174 116.95395355 -54.11003479 116.1579071 -54.10232544 115.33773804 C-53.98466747 103.45698061 -53.59231276 91.88613826 -50.6875 80.3125 C-50.45643555 79.39001465 -50.22537109 78.4675293 -49.98730469 77.51708984 C-46.38910876 63.58822446 -41.70375405 50.3670161 -35.6875 37.3125 C-35.24825195 36.34795898 -34.80900391 35.38341797 -34.35644531 34.38964844 C-32.94045239 31.29406252 -31.50574702 28.20796597 -30.0625 25.125 C-29.61938477 24.16843506 -29.17626953 23.21187012 -28.71972656 22.22631836 C-24.91004893 14.24162262 -20.33558082 7.24186938 -13.6875 1.3125 C-9.17666419 -0.19111194 -4.72603195 0.04624297 0 0 Z " fill="#040405" transform="translate(385.6875,337.6875)"/>
<path d="M0 0 C1.01125762 3.17849747 0.94832941 5.37744775 0.29296875 8.6328125 C0.11830078 9.52226562 -0.05636719 10.41171875 -0.23632812 11.328125 C-0.42646484 12.25109375 -0.61660156 13.1740625 -0.8125 14.125 C-1.08030273 15.47464844 -1.08030273 15.47464844 -1.35351562 16.8515625 C-1.89434667 19.56938494 -2.44673623 22.2846844 -3 25 C-3.37969455 26.89307123 -3.75864047 28.78629281 -4.13671875 30.6796875 C-4.30260498 31.50968262 -4.46849121 32.33967773 -4.6394043 33.19482422 C-4.75840088 33.79053223 -4.87739746 34.38624023 -5 35 C-2.36 35 0.28 35 3 35 C2.47811383 41.54314791 1.26631995 47.16326605 -1 53.3125 C-1.49983398 54.67979248 -1.49983398 54.67979248 -2.00976562 56.07470703 C-9.62083353 76.09103765 -19.61018679 95.30588565 -29.20947266 114.42724609 C-36.07336531 128.1232108 -42.33370108 141.95948747 -48.04296875 156.17578125 C-49.82150426 160.59637473 -51.74526368 164.92907826 -53.76171875 169.24609375 C-55.41309967 172.91872324 -56.92079755 176.64512926 -58.4375 180.375 C-60.5302629 185.51907334 -62.69757606 190.5979889 -65.0625 195.625 C-69.36032923 204.79217831 -72.94857712 214.23483296 -76.5625 223.6875 C-79.82196791 232.19948627 -83.38205511 240.5727374 -87 248.9375 C-88.95889323 253.48654105 -90.81144385 258.05461163 -92.5625 262.6875 C-94.45739377 267.69196303 -96.55956659 272.54543234 -98.828125 277.390625 C-99.94454755 279.87652588 -100.88294255 282.37714 -101.8125 284.9375 C-104.54175617 291.90605161 -108.69615632 299.79743755 -115 304 C-116.87640381 304.2784729 -116.87640381 304.2784729 -119.01464844 304.31884766 C-119.8218634 304.33870224 -120.62907837 304.35855682 -121.46075439 304.37901306 C-122.33479919 304.39057938 -123.20884399 304.40214569 -124.109375 304.4140625 C-125.47579132 304.44331566 -125.47579132 304.44331566 -126.86981201 304.47315979 C-129.82978011 304.53373502 -132.78975711 304.5800096 -135.75 304.625 C-137.77279488 304.66140038 -139.79558144 304.69826569 -141.81835938 304.7355957 C-146.69705681 304.82240869 -151.57583627 304.89594793 -156.45483398 304.96356201 C-158.68156855 304.99544116 -160.90815 305.03162137 -163.13476562 305.07080078 C-168.73563133 305.16446338 -174.32294605 305.20789566 -179.92285156 305.04931641 C-181.85167114 305.00352168 -183.78170368 305.02063025 -185.7109375 305.04296875 C-189.05045547 304.8656857 -191.06571907 304.60519675 -194 303 C-199.31036859 297.02085935 -203.0124455 290.21956755 -205.15234375 282.49609375 C-206.31842271 279.06234048 -207.97266158 275.90568541 -209.625 272.6875 C-221.44140316 249.45943944 -230.74635533 225.13639669 -239.83648682 200.73951721 C-241.36870145 196.64157537 -242.95356056 192.56959956 -244.58984375 188.51171875 C-245.17668945 187.05282227 -245.17668945 187.05282227 -245.77539062 185.56445312 C-246.57160447 183.59332204 -247.37400271 181.624681 -248.18164062 179.65820312 C-248.56384766 178.70236328 -248.94605469 177.74652344 -249.33984375 176.76171875 C-249.68394287 175.91569092 -250.02804199 175.06966309 -250.38256836 174.19799805 C-251 172 -251 172 -250 169 C-250.27571139 166.99124558 -250.60235737 164.98821313 -251 163 C-237.42130096 169.03497735 -231.23655328 186.39300496 -226.04348755 199.39480591 C-224.15723604 204.34166333 -222.37986967 209.3269633 -220.61538696 214.31832886 C-212.95324669 235.94645544 -204.31767254 256.93078371 -194.66796875 277.75390625 C-194.11959351 278.93956177 -193.57121826 280.12521729 -193.00622559 281.34680176 C-191.67179074 284.23165354 -190.33636879 287.11604372 -189 290 C-188.24546539 290.04789169 -187.49093079 290.09578339 -186.71353149 290.14512634 C-179.56448272 290.59921289 -172.41554851 291.05504797 -165.26673317 291.51279354 C-161.59243248 291.7480021 -157.9180928 291.98256037 -154.24365234 292.21557617 C-150.69035156 292.44093483 -147.13716857 292.66807521 -143.58405685 292.89639473 C-141.5847303 293.02441946 -139.58528917 293.15065081 -137.58584595 293.27684021 C-130.70711171 293.7204809 -123.85204963 294.24563962 -117 295 C-116.90569702 294.31780396 -116.81139404 293.63560791 -116.7142334 292.93273926 C-116.33349802 290.18387692 -115.94793032 287.43570784 -115.5625 284.6875 C-115.42779297 283.71103516 -115.29308594 282.73457031 -115.15429688 281.72851562 C-115.02216797 280.79072266 -114.89003906 279.85292969 -114.75390625 278.88671875 C-114.63345947 278.02264404 -114.5130127 277.15856934 -114.38891602 276.26831055 C-114 274 -114 274 -113 271 C-110.36 271 -107.72 271 -105 271 C-104.91363281 269.99324219 -104.82726562 268.98648437 -104.73828125 267.94921875 C-101.67791511 235.8521296 -87.00607882 206.98920215 -70.625 179.625 C-61.88428952 164.37831739 -54 140.77418807 -54 123 C-55.98 122.01 -57.96 121.02 -60 120 C-59.67 119.34 -59.34 118.68 -59 118 C-56.63671875 117.3671875 -56.63671875 117.3671875 -53.6875 116.875 C-52.72199219 116.70742188 -51.75648438 116.53984375 -50.76171875 116.3671875 C-48 116 -48 116 -44 116 C-43.79697266 115.17435547 -43.79697266 115.17435547 -43.58984375 114.33203125 C-41.79941035 107.41688428 -39.62510536 100.65280527 -37.375 93.875 C-37.06167725 92.9260083 -36.74835449 91.9770166 -36.42553711 90.99926758 C-36.12784424 90.11005615 -35.83015137 89.22084473 -35.5234375 88.3046875 C-35.25450684 87.50015137 -34.98557617 86.69561523 -34.70849609 85.86669922 C-34 84 -34 84 -33 83 C-30.32941149 82.85884839 -27.67567762 82.95752893 -25 83 C-25.05542969 82.0925 -25.11085938 81.185 -25.16796875 80.25 C-25.1609719 74.67490667 -23.64787584 69.37981828 -22.3125 64 C-21.90366577 62.33094604 -21.90366577 62.33094604 -21.48657227 60.62817383 C-18.59833766 49.05420254 -14.96359828 38.00475243 -10.25390625 27.03515625 C-8.3958524 22.53762403 -6.81485386 17.949742 -5.203125 13.359375 C-3.59016605 8.85565846 -1.8237778 4.42189701 0 0 Z " fill="#161617" transform="translate(402,175)"/>
<path d="M0 0 C24.09 0 48.18 0 73 0 C73 80.52 73 161.04 73 244 C61.49790276 249.11204322 61.49790276 249.11204322 53.83007812 249.14526367 C52.82553589 249.15164352 51.82099365 249.15802338 50.78601074 249.16459656 C49.7119397 249.16570938 48.63786865 249.1668222 47.53125 249.16796875 C46.41818481 249.17129715 45.30511963 249.17462555 44.1583252 249.17805481 C41.80819105 249.1831107 39.45804974 249.18546355 37.10791016 249.18530273 C33.51322643 249.18749194 29.91884832 249.20566956 26.32421875 249.22460938 C24.03906355 249.22754301 21.75390689 249.22952801 19.46875 249.23046875 C17.85764343 249.24124702 17.85764343 249.24124702 16.21398926 249.25224304 C15.20944702 249.24916641 14.20490479 249.24608978 13.16992188 249.24291992 C12.29009644 249.24434494 11.410271 249.24576996 10.50378418 249.24723816 C6.72822984 248.87441804 3.90304534 247.92302422 1.234375 245.1953125 C0.49960937 244.17050781 0.49960937 244.17050781 -0.25 243.125 C-1.00023437 242.10792969 -1.00023437 242.10792969 -1.765625 241.0703125 C-3.71786582 237.79598454 -4.1247565 234.74934194 -4.12863445 230.97942543 C-4.1318589 230.18443063 -4.13508335 229.38943584 -4.1384055 228.57035029 C-4.1368569 227.70284911 -4.1353083 226.83534793 -4.13371277 225.94155884 C-4.13597833 225.01540815 -4.13824388 224.08925746 -4.14057809 223.13504159 C-4.14692001 220.02442269 -4.1460886 216.91384732 -4.14526367 213.80322266 C-4.14825503 211.57594242 -4.15165751 209.3486627 -4.15544128 207.12138367 C-4.16428763 201.06562291 -4.16661966 195.00987627 -4.16725707 188.95410967 C-4.16820577 183.90180066 -4.17188361 178.84949495 -4.17542917 173.79718721 C-4.18311055 162.56013302 -4.18609757 151.32308551 -4.18542381 140.08602948 C-4.18538386 139.41181944 -4.1853439 138.7376094 -4.18530273 138.04296875 C-4.18526185 137.36793507 -4.18522097 136.69290138 -4.18517885 135.99741213 C-4.18477239 125.057109 -4.19434221 114.1168403 -4.2084411 103.17654712 C-4.22280516 91.9418065 -4.22952813 80.70708215 -4.22884732 69.47233045 C-4.22859211 63.16540256 -4.23145626 56.85851362 -4.24202538 50.55159378 C-4.25169295 44.62057139 -4.25179472 38.68962529 -4.24450874 32.75860023 C-4.24346125 30.58093848 -4.24583553 28.40327201 -4.2518692 26.22561836 C-4.25956869 23.25445818 -4.25495776 20.28356279 -4.24723816 17.31240845 C-4.25238172 16.44936871 -4.25752529 15.58632898 -4.26282471 14.69713652 C-4.23118342 9.1914154 -4.10314948 4.10314948 0 0 Z M5 8 C5 83.24 5 158.48 5 236 C24.8 236 44.6 236 65 236 C65 160.76 65 85.52 65 8 C45.2 8 25.4 8 5 8 Z " fill="#1D1C20" transform="translate(428,230)"/>
<path d="M0 0 C2.4145463 2.4145463 3.20065454 4.56361659 4.50390625 7.72265625 C4.9925415 8.89183594 5.48117676 10.06101562 5.98461914 11.265625 C6.24179718 11.88501953 6.49897522 12.50441406 6.76394653 13.14257812 C10.35710647 21.78143156 13.94840822 30.34525572 18.5625 38.5 C26.14961595 52.05462767 31.07832314 67.05366217 36.44311523 81.59057617 C39.01113309 88.54619917 41.75820079 95.41213145 44.625 102.25 C44.9977002 103.1567749 45.37040039 104.0635498 45.75439453 104.99780273 C46.11645996 105.84930908 46.47852539 106.70081543 46.8515625 107.578125 C47.32843506 108.71362793 47.32843506 108.71362793 47.81494141 109.87207031 C48.93111535 112.12495738 48.93111535 112.12495738 51.01416016 113.91455078 C53.43004067 116.45161144 54.017104 118.42106584 54.921875 121.7890625 C55.22480469 122.89507812 55.52773437 124.00109375 55.83984375 125.140625 C56.29037109 126.86539063 56.29037109 126.86539063 56.75 128.625 C57.06582031 129.78257812 57.38164063 130.94015625 57.70703125 132.1328125 C60 140.62970103 60 140.62970103 60 143 C62.64 143 65.28 143 68 143 C68.02578125 144.06476563 68.0515625 145.12953125 68.078125 146.2265625 C68.13451657 147.69274323 68.19186106 149.15888752 68.25 150.625 C68.26417969 151.31851563 68.27835937 152.01203125 68.29296875 152.7265625 C68.83731544 164.91992825 73.58166415 175.93750067 78.875 186.75 C80.05217109 189.21644968 81.21552918 191.68924852 82.375 194.1640625 C82.674133 194.80233978 82.97326599 195.44061707 83.28146362 196.09823608 C92.35437769 215.57653532 100.06343224 235.68306772 107.40899658 255.8649292 C108.08995566 257.73371756 108.77556349 259.6008191 109.46600342 261.46612549 C110.43003058 264.07986318 111.37234959 266.70042063 112.30859375 269.32421875 C112.59738907 270.0988295 112.88618439 270.87344025 113.18373108 271.67152405 C114.87964665 276.52480561 115.12864347 279.85901137 114 285 C113.7215625 286.9490625 113.7215625 286.9490625 113.4375 288.9375 C113.293125 289.948125 113.14875 290.95875 113 292 C112.01 292.33 111.02 292.66 110 293 C93.59261913 254.76230273 77.22520992 216.5089257 61.0541687 178.17053223 C46.52805676 143.73253025 31.95313098 109.31399163 17.0546875 75.03515625 C-0.34733815 34.98737164 -0.34733815 34.98737164 -5.4375 21.9375 C-5.71384277 21.23012695 -5.99018555 20.52275391 -6.27490234 19.79394531 C-8 15.26921388 -8 15.26921388 -8 13 C-6.68 13 -5.36 13 -4 13 C-3.79503906 12.14535156 -3.59007812 11.29070313 -3.37890625 10.41015625 C-3.10949219 9.30542969 -2.84007812 8.20070313 -2.5625 7.0625 C-2.29566406 5.96035156 -2.02882813 4.85820313 -1.75390625 3.72265625 C-1 1 -1 1 0 0 Z " fill="#181719" transform="translate(33,35)"/>
<path d="M0 0 C0.11676621 17.14151907 0.20495503 34.28291415 0.25906086 51.42473984 C0.28485016 59.38388101 0.32001417 67.34277518 0.37719727 75.30175781 C0.42701048 82.23827218 0.45928575 89.17460768 0.47044247 96.11129594 C0.47696492 99.78482849 0.49230841 103.45784932 0.52865028 107.13121796 C0.56887857 111.23061386 0.5699508 115.32911837 0.56762695 119.42871094 C0.58560333 120.64862732 0.60357971 121.8685437 0.62210083 123.12542725 C0.57153342 131.33713013 0.57153342 131.33713013 -2.34797668 134.72320557 C-6.07987522 136.51989689 -8.87467501 137.12970352 -12.97119141 137.16113281 C-13.98299469 137.17074036 -14.99479797 137.1803479 -16.03726196 137.19024658 C-17.13098114 137.19449646 -18.22470032 137.19874634 -19.3515625 137.203125 C-20.48016693 137.20882507 -21.60877136 137.21452515 -22.77157593 137.22039795 C-25.16395123 137.22985178 -27.55633958 137.23638344 -29.94873047 137.24023438 C-33.58975352 137.24990637 -37.23020402 137.28091305 -40.87109375 137.3125 C-43.19791332 137.31903359 -45.52473693 137.32428266 -47.8515625 137.328125 C-49.47392319 137.3466452 -49.47392319 137.3466452 -51.12905884 137.36553955 C-58.68788608 137.34353079 -65.17667257 136.60726668 -71.53149414 132.27368164 C-73.57240399 129.11374924 -73.55502821 126.26329721 -73.49609375 122.62109375 C-73.49895386 121.90134369 -73.50181396 121.18159363 -73.50476074 120.44003296 C-73.50563936 118.10507709 -73.4742039 115.77214829 -73.4375 113.4375 C-73.4300174 112.64145355 -73.42253479 111.8454071 -73.41482544 111.02523804 C-73.29716747 99.14448061 -72.90481276 87.57363826 -70 76 C-69.76893555 75.07751465 -69.53787109 74.1550293 -69.29980469 73.20458984 C-65.70304952 59.28130177 -61.03484785 46.04208812 -55 33 C-54.55011719 32.02482422 -54.10023438 31.04964844 -53.63671875 30.04492188 C-52.18659315 26.91992075 -50.72262075 23.80196027 -49.25 20.6875 C-48.79012695 19.71417725 -48.33025391 18.74085449 -47.85644531 17.73803711 C-43.00380223 7.64485758 -43.00380223 7.64485758 -40 4 C-38.68 4 -37.36 4 -36 4 C-36.76317435 23.46094598 -43.10800653 40.47395388 -50.625 58.1875 C-59.6023186 79.62675428 -61.92815174 101.11640263 -64 124 C-63.44989258 124.01981934 -62.89978516 124.03963867 -62.33300781 124.06005859 C-50.16601173 124.51189 -38.02065232 125.14469472 -25.875 126 C-24.67262695 126.0829834 -23.47025391 126.1659668 -22.23144531 126.25146484 C-20.5352002 126.37448975 -20.5352002 126.37448975 -18.8046875 126.5 C-17.30397705 126.60828125 -17.30397705 126.60828125 -15.77294922 126.71875 C-13 127 -13 127 -8 128 C-8 87.08 -8 46.16 -8 4 C-12.62 3.01 -17.24 2.02 -22 1 C-22 0.67 -22 0.34 -22 0 C-18.70880065 -0.1964031 -15.41703066 -0.38060745 -12.125 -0.5625 C-11.18785156 -0.61857422 -10.25070312 -0.67464844 -9.28515625 -0.73242188 C-8.38925781 -0.78076172 -7.49335938 -0.82910156 -6.5703125 -0.87890625 C-5.74289551 -0.9260376 -4.91547852 -0.97316895 -4.06298828 -1.02172852 C-2 -1 -2 -1 0 0 Z " fill="#1C1B1E" transform="translate(405,342)"/>
<path d="M0 0 C1 2 1 2 0.44140625 4.1640625 C0.15136719 4.97617187 -0.13867188 5.78828125 -0.4375 6.625 C-0.86869141 7.85089844 -0.86869141 7.85089844 -1.30859375 9.1015625 C-1.53675781 9.72804688 -1.76492188 10.35453125 -2 11 C0.64 11.33 3.28 11.66 6 12 C4.72563847 17.49458518 3.12455761 22.61915938 1.0234375 27.84765625 C0.43251699 29.3452888 -0.15838396 30.84292907 -0.74926758 32.34057617 C-1.05603424 33.11259369 -1.3628009 33.88461121 -1.67886353 34.68002319 C-6.6576888 47.21725864 -11.48080526 59.77077886 -15.77783203 72.56079102 C-16.06384277 73.41084717 -16.34985352 74.26090332 -16.64453125 75.13671875 C-16.88534424 75.86592529 -17.12615723 76.59513184 -17.37426758 77.34643555 C-18 79 -18 79 -19 80 C-25.40633996 80.57199464 -30.63197096 79.73608385 -36 76 C-38.07691262 73.01619044 -39.17598022 69.87358549 -40.3125 66.4375 C-40.79867798 65.0925647 -40.79867798 65.0925647 -41.29467773 63.72045898 C-41.93174801 61.95085492 -42.55599705 60.17657151 -43.16601562 58.39746094 C-44.20394134 55.41372835 -45.38940677 52.49523306 -46.5625 49.5625 C-48.18756396 45.46949658 -47.95485593 44.77427963 -47 40 C-43.04 40 -39.08 40 -35 40 C-32.61886111 46.46309126 -31 53.10266291 -31 60 C-28.36 60 -25.72 60 -23 60 C-22.72833008 58.86336914 -22.45666016 57.72673828 -22.17675781 56.55566406 C-21.03720802 52.00470726 -19.64028217 47.56350093 -18.171875 43.109375 C-17.76464203 41.87057587 -17.76464203 41.87057587 -17.34918213 40.60675049 C-16.77596125 38.8683045 -16.20104462 37.13041682 -15.62451172 35.39306641 C-14.75791556 32.77392346 -13.90425035 30.15078858 -13.05078125 27.52734375 C-6.889855 8.80647873 -6.889855 8.80647873 -2 1 C-1.34 0.67 -0.68 0.34 0 0 Z " fill="#1C1A1B" transform="translate(276,294)"/>
<path d="M0 0 C28.71 0 57.42 0 87 0 C82.48274086 5.64657393 82.48274086 5.64657393 78.5625 7.25 C77.82128906 7.56453125 77.08007812 7.8790625 76.31640625 8.203125 C70.98861872 10.03595579 65.68492424 10.27287108 60.10546875 10.53515625 C58.80794426 10.59962196 58.80794426 10.59962196 57.48420715 10.66539001 C55.65110155 10.75543033 53.81790158 10.84356681 51.98461914 10.92993164 C49.23487791 11.06025454 46.48562822 11.19860727 43.73632812 11.33789062 C33.14662943 11.85788362 22.60290681 12.12684027 12 12 C11.78907715 13.06420166 11.5781543 14.12840332 11.36083984 15.22485352 C9.8515625 22.83984375 9.8515625 22.83984375 9 26 C7 27 7 27 5 26.875 C3 26 3 26 1.8125 23.8125 C-0.57030011 15.56434578 0 8.99975643 0 0 Z " fill="#2A282B" transform="translate(21,22)"/>
<path d="M0 0 C2.97 0 5.94 0 9 0 C11.31 4.95 13.62 9.9 16 15 C17.86769043 15.11069824 19.73538086 15.22139648 21.65966797 15.33544922 C27.82285114 15.70293307 33.98546278 16.07900687 40.14776421 16.46098137 C43.88485324 16.69231021 47.6220875 16.92015962 51.35986328 17.14013672 C54.96542879 17.35246013 58.57033501 17.57381923 62.17496109 17.80151749 C63.55190478 17.88688931 64.92905618 17.96897511 66.30639267 18.0477562 C68.23195886 18.15845219 70.15678506 18.28180294 72.08154297 18.40576172 C73.72701614 18.50568924 73.72701614 18.50568924 75.4057312 18.6076355 C78 19 78 19 80 21 C78.93005086 24.20984742 78.40198805 25.72574152 76 28 C71.44951526 29.25605242 66.88836727 29.30651788 62.1875 29.4375 C60.8333956 29.49677043 59.47938891 29.55831445 58.12548828 29.62207031 C54.0842443 29.79908676 50.04400656 29.90471048 46 30 C44.8557959 30.03174316 43.7115918 30.06348633 42.53271484 30.09619141 C36.78102168 30.23886771 31.05335535 30.25444855 25.30273438 30.06542969 C23.28074488 30.00797706 21.25707173 30.01808017 19.234375 30.0390625 C15.91990196 29.86417824 13.91413602 29.59417648 11 28 C5.05511995 21.3064394 1.3011689 13.62938337 -1 5 C-1.33 4.34 -1.66 3.68 -2 3 C-1.34 3 -0.68 3 0 3 C0 2.01 0 1.02 0 0 Z " fill="#1E1C20" transform="translate(197,450)"/>
<path d="M0 0 C1.69876785 0.03330917 1.69876785 0.03330917 3.43185425 0.06729126 C4.71303131 0.08746307 5.99420837 0.10763489 7.31420898 0.12841797 C8.71784963 0.16072354 10.1214852 0.19325035 11.52511597 0.22598267 C12.95713743 0.25214582 14.38917553 0.27741315 15.82122803 0.30181885 C19.5927329 0.36850908 23.36388874 0.44739288 27.13510132 0.52877808 C30.9824177 0.60966019 34.82993901 0.67906386 38.67745972 0.74942017 C46.22848927 0.88919854 53.77918696 1.04185317 61.32980347 1.20254517 C59.45480347 7.07754517 59.45480347 7.07754517 58.32980347 8.20254517 C56.58051627 8.29619523 54.82744093 8.31998955 53.07565308 8.31607056 C51.9545665 8.31599503 50.83347992 8.31591949 49.67842102 8.31584167 C47.84876549 8.30809975 47.84876549 8.30809975 45.98214722 8.30020142 C44.74058365 8.29878647 43.49902008 8.29737152 42.21983337 8.2959137 C38.91374856 8.29125107 35.607732 8.28226013 32.30166626 8.27120972 C28.93019208 8.26099343 25.55871065 8.25636091 22.18722534 8.25137329 C15.56804608 8.24116796 8.94898693 8.22159622 2.32980347 8.20254517 C2.32980347 21.40254517 2.32980347 34.60254517 2.32980347 48.20254517 C-1.13519653 46.71754517 -1.13519653 46.71754517 -4.67019653 45.20254517 C-5.00019653 73.91254517 -5.33019653 102.62254517 -5.67019653 132.20254517 C-6.00019653 132.20254517 -6.33019653 132.20254517 -6.67019653 132.20254517 C-6.71694285 116.13858698 -6.75219827 100.07465089 -6.77382088 84.0106411 C-6.78412803 76.55163675 -6.79817763 69.09267471 -6.82107544 61.63369751 C-6.8410265 55.13151891 -6.85391705 48.62937094 -6.85837352 42.12716258 C-6.860978 38.68514311 -6.86708794 35.24321128 -6.88165665 31.80121994 C-6.8977984 27.95630007 -6.89817511 24.1114655 -6.89724731 20.26651001 C-6.90443787 19.12859009 -6.91162842 17.99067017 -6.91903687 16.81826782 C-6.8764306 0.52160497 -6.8764306 0.52160497 0 0 Z " fill="#343335" transform="translate(430.6701965332031,229.79745483398438)"/>
<path d="M0 0 C0.8055835 0.0407666 1.61116699 0.0815332 2.44116211 0.12353516 C3.80966309 0.18831055 3.80966309 0.18831055 5.20581055 0.25439453 C6.2 0.30660156 7.19418945 0.35880859 8.21850586 0.41259766 C10.3083248 0.51466937 12.39816953 0.61621412 14.48803711 0.71728516 C15.57810059 0.77110352 16.66816406 0.82492188 17.79125977 0.88037109 C21.166264 1.03807699 24.54133406 1.17113785 27.91772461 1.29541016 C29.0036792 1.33617676 30.08963379 1.37694336 31.20849609 1.41894531 C33.31337053 1.49705243 35.41835245 1.57232299 37.5234375 1.64453125 C38.95804321 1.69988037 38.95804321 1.69988037 40.42163086 1.75634766 C41.265 1.78664063 42.10836914 1.81693359 42.97729492 1.84814453 C45.15600586 2.03759766 45.15600586 2.03759766 48.15600586 3.03759766 C47.87416001 5.64317256 47.58097875 8.24660164 47.28100586 10.85009766 C47.20237305 11.58808594 47.12374023 12.32607422 47.04272461 13.08642578 C46.611403 16.75265946 46.23632756 18.9171151 44.15600586 22.03759766 C43.68163086 21.23322266 43.20725586 20.42884766 42.71850586 19.60009766 C41.38700432 17.19006278 41.38700432 17.19006278 40.15600586 16.03759766 C37.216224 15.68495207 34.29346222 15.40477567 31.34350586 15.16259766 C29.89995728 15.04005615 29.89995728 15.04005615 28.42724609 14.91503906 C10.02106557 13.40310772 -8.41680873 12.25962776 -26.84399414 11.03759766 C-25.94573236 9.89016505 -25.03261746 8.75435149 -24.11352539 7.62353516 C-23.3532605 6.67293213 -23.3532605 6.67293213 -22.57763672 5.703125 C-19.52220178 2.76773884 -15.9250173 2.48510756 -11.84399414 2.03759766 C-11.00481445 1.94091797 -10.16563477 1.84423828 -9.30102539 1.74462891 C-7.73391086 1.57271968 -6.16483582 1.41732204 -4.59399414 1.28369141 C-2.41780229 0.97766443 -2.23412488 0.04555213 0 0 Z " fill="#302F32" transform="translate(428.843994140625,18.96240234375)"/>
<path d="M0 0 C4.875 4.75 4.875 4.75 6 7 C6.99 7 7.98 7 9 7 C10.5947759 10.80453321 12.17940059 14.6131154 13.75463867 18.42578125 C14.29221009 19.72284085 14.83256677 21.01874967 15.37573242 22.31347656 C16.15490104 24.17209613 16.92332064 26.03521048 17.69140625 27.8984375 C18.15748291 29.01911621 18.62355957 30.13979492 19.10375977 31.29443359 C20 34 20 34 19 36 C19 38.79784711 19.37195775 40.9790678 20 43.6875 C20.185625 44.49574219 20.37125 45.30398438 20.5625 46.13671875 C20.706875 46.75160156 20.85125 47.36648438 21 48 C19.22483971 47.60217121 17.45490837 47.18096339 15.6875 46.75 C14.70136719 46.51796875 13.71523437 46.2859375 12.69921875 46.046875 C9.49996751 44.80606555 8.64808477 43.98153518 7 41 C6.14006147 38.64302564 5.38269763 36.34142956 4.6875 33.9375 C4.26575147 32.51259723 3.84250594 31.08813691 3.41796875 29.6640625 C3.19415527 28.91157227 2.9703418 28.15908203 2.73974609 27.38378906 C1.95903317 24.86798676 1.10748746 22.3849797 0.23828125 19.8984375 C-0.1952063 18.62818726 -0.1952063 18.62818726 -0.63745117 17.33227539 C-1.20388489 15.67754503 -1.78565002 14.02796826 -2.3840332 12.38452148 C-4.294742 6.6874318 -4.294742 6.6874318 -2.71875 3.01171875 C-1.84023362 1.98345526 -0.95632547 0.95632547 0 0 Z " fill="#242323" transform="translate(192,226)"/>
<path d="M0 0 C3.96 0 7.92 0 12 0 C14.38113889 6.46309126 16 13.10266291 16 20 C18.64 20 21.28 20 24 20 C24 22.64 24 25.28 24 28 C22.7625 28.020625 21.525 28.04125 20.25 28.0625 C17.5415484 28.36984203 16.39586737 28.54758015 14.578125 30.625 C13.34385415 32.77001463 13.34385415 32.77001463 12 36 C7.1084391 28.66265865 4.17407412 19.67708733 1.0625 11.4375 C0.64097656 10.32246094 0.21945313 9.20742188 -0.21484375 8.05859375 C-1 5 -1 5 0 0 Z " fill="#141414" transform="translate(229,334)"/>
<path d="M0 0 C4.18358477 0.55848826 7.02629569 3.04446302 10.25 5.5625 C10.80429688 5.98724609 11.35859375 6.41199219 11.9296875 6.84960938 C13.29089411 7.89398341 14.64605833 8.94622464 16 10 C15.46105575 14.59808129 14.23428472 17.86784369 11.9375 21.875 C11.38964844 22.84179688 10.84179688 23.80859375 10.27734375 24.8046875 C9.85582031 25.52914063 9.43429688 26.25359375 9 27 C7.02 25.68 5.04 24.36 3 23 C3.66 25.31 4.32 27.62 5 30 C4.01 30 3.02 30 2 30 C-2.56739307 20.90296092 -5.08521036 14.69990371 -1.96484375 4.51171875 C-1 2 -1 2 0 0 Z " fill="#09090B" transform="translate(148,315)"/>
<path d="M0 0 C5.61 0 11.22 0 17 0 C16.67 0.66 16.34 1.32 16 2 C13.05859375 2.4140625 13.05859375 2.4140625 9.4375 2.625 C8.23996094 2.69976563 7.04242188 2.77453125 5.80859375 2.8515625 C4.88175781 2.90054687 3.95492188 2.94953125 3 3 C3 2.34 3 1.68 3 1 C2.01 0.67 1.02 0.34 0 0 Z " fill="#171517" transform="translate(410,19)"/>
<path d="M0 0 C0.66 0 1.32 0 2 0 C2.69685498 1.6210103 3.38222861 3.24696066 4.0625 4.875 C4.63677734 6.23238281 4.63677734 6.23238281 5.22265625 7.6171875 C6 10 6 10 5 12 C4.34 11.67 3.68 11.34 3 11 C3 9.35 3 7.7 3 6 C2.34 6 1.68 6 1 6 C0.67 4.02 0.34 2.04 0 0 Z " fill="#2B2B2B" transform="translate(206,250)"/>
<path d="M0 0 C2.96052484 3.36423277 3.92289822 6.69159287 5 11 C1.87729874 8.48169253 1.05476902 7.2738451 0.25 3.25 C0.1675 2.1775 0.085 1.105 0 0 Z " fill="#121214" transform="translate(206,452)"/>
<path d="M0 0 C0.99 0 1.98 0 3 0 C2.25 5.75 2.25 5.75 0 8 C0 5.36 0 2.72 0 0 Z " fill="#141414" transform="translate(409,190)"/>
<path d="M0 0 C0.66 0.33 1.32 0.66 2 1 C1.67 1.99 1.34 2.98 1 4 C-1.64 4 -4.28 4 -7 4 C-4.66603411 2.44402274 -2.57343171 1.07918104 0 0 Z " fill="#141414" transform="translate(102,27)"/>
</svg>
