<?xml version="1.0" encoding="UTF-8"?>
<svg version="1.1" xmlns="http://www.w3.org/2000/svg" width="674" height="176">
<path d="M0 0 C1.14211441 0.00718552 2.28422882 0.01437103 3.46095276 0.02177429 C4.68805466 0.03626114 5.91515656 0.05074799 7.17944336 0.06567383 C8.45347519 0.07979813 9.72750702 0.09392242 11.04014587 0.10847473 C13.73763536 0.14157573 16.43493905 0.17757339 19.13232422 0.21728516 C22.5556486 0.26637739 25.9787415 0.2927631 29.40233707 0.31371593 C32.70330204 0.33924142 36.00374102 0.3919442 39.30444336 0.44067383 C40.51737564 0.44503952 41.73030792 0.44940521 42.97999573 0.4539032 C52.91922831 0.64980838 62.55434893 2.47817472 70.70678711 8.52270508 C71.48022461 9.07829102 72.25366211 9.63387695 73.05053711 10.20629883 C79.98522362 16.24902385 83.97387887 24.39622302 84.66381836 33.55395508 C84.97702122 41.73893305 84.76888023 49.02029698 80.20678711 56.08520508 C79.34053711 57.63208008 79.34053711 57.63208008 78.45678711 59.21020508 C73.69661568 65.29264635 68.49126068 69.50528735 61.20678711 72.08520508 C62.56236334 75.83103037 64.26265774 78.8572675 66.55053711 82.11254883 C67.21569336 83.06347412 67.88084961 84.01439941 68.56616211 84.99414062 C69.27256836 85.99356689 69.97897461 86.99299316 70.70678711 88.02270508 C71.42350586 89.04726807 72.14022461 90.07183105 72.87866211 91.12744141 C76.04092256 95.63871022 79.22273246 100.13222023 82.48803711 104.56958008 C82.95532227 105.20774658 83.42260742 105.84591309 83.90405273 106.50341797 C85.12081607 108.15594494 86.35081541 109.79870335 87.58178711 111.44067383 C89.20678711 114.08520508 89.20678711 114.08520508 89.20678711 118.08520508 C85.35365583 118.31902796 81.50235798 118.46010261 77.64428711 118.58520508 C76.55825195 118.65223633 75.4722168 118.71926758 74.35327148 118.78833008 C66.42065385 118.98122048 66.42065385 118.98122048 62.96630859 116.43139648 C61.16025654 114.40477058 59.6559436 112.37785967 58.20678711 110.08520508 C57.6640918 109.26793945 57.12139648 108.45067383 56.56225586 107.60864258 C56.17682617 106.8996582 55.79139648 106.19067383 55.39428711 105.46020508 C52.55497478 100.51995387 49.33718624 95.94524662 45.98486328 91.34643555 C45.58372314 90.79487793 45.18258301 90.24332031 44.76928711 89.67504883 C44.3479248 89.11406494 43.9265625 88.55308105 43.49243164 87.97509766 C42.20678711 86.08520508 42.20678711 86.08520508 41.01098633 83.68554688 C39.60926394 81.04929675 38.39780214 79.12371894 36.20678711 77.08520508 C31.90175058 75.84938969 27.7849734 75.91464243 23.33178711 76.02270508 C22.16647461 76.01561523 21.00116211 76.00852539 19.80053711 76.0012207 C16.93347039 75.98947043 14.07293076 76.01872072 11.20678711 76.08520508 C11.21464233 77.94036743 11.21464233 77.94036743 11.22265625 79.83300781 C11.24070272 84.40445233 11.25221782 88.97589367 11.26171875 93.54736328 C11.26675978 95.52913949 11.27359249 97.51091197 11.28222656 99.49267578 C11.29430226 102.33472616 11.30001756 105.17672755 11.30444336 108.01879883 C11.30960464 108.91046249 11.31476593 109.80212616 11.32008362 110.72080994 C11.32027887 112.84261109 11.26888741 114.96431288 11.20678711 117.08520508 C8.79485123 119.49714096 3.43958961 118.94349319 0.20678711 119.08520508 C-9.20582034 118.67259763 -9.20582034 118.67259763 -10.79321289 117.08520508 C-10.88896598 115.57969334 -10.91509476 114.06969478 -10.91346741 112.56114197 C-10.91484207 111.58372543 -10.91621674 110.6063089 -10.91763306 109.59927368 C-10.91403778 108.51818329 -10.9104425 107.4370929 -10.90673828 106.32324219 C-10.90688431 105.19168198 -10.90703033 104.06012177 -10.90718079 102.89427185 C-10.90648108 99.13367837 -10.898686 95.37313371 -10.89086914 91.61254883 C-10.88900517 89.01322965 -10.88758117 86.41391011 -10.88658142 83.81459045 C-10.8831463 77.65931931 -10.87525545 71.50406848 -10.86523193 65.34880501 C-10.85406983 58.34287162 -10.8485601 51.33693741 -10.8435365 44.33099735 C-10.83307281 29.91572375 -10.81547397 15.50046504 -10.79321289 1.08520508 C-7.10517044 0.30373664 -3.77584777 -0.02988246 0 0 Z M11.20678711 20.08520508 C11.20678711 32.29520508 11.20678711 44.50520508 11.20678711 57.08520508 C16.63116211 57.14708008 22.05553711 57.20895508 27.64428711 57.27270508 C29.33739014 57.30001709 31.03049316 57.3273291 32.77490234 57.35546875 C45.23596417 57.61374002 45.23596417 57.61374002 56.32788086 52.47192383 C60.47164283 47.12315096 62.48458594 42.99475422 62.08178711 36.08520508 C61.35771235 30.4862549 59.47520814 26.84953254 54.95678711 23.33520508 C48.82012865 20.54581487 42.88721184 19.78811547 36.20678711 19.88989258 C35.24579102 19.89291382 35.24579102 19.89291382 34.26538086 19.89599609 C31.91244158 19.9063209 29.55960579 19.93424136 27.20678711 19.96020508 C21.92678711 20.00145508 16.64678711 20.04270508 11.20678711 20.08520508 Z " fill="#FBFBFB" transform="translate(282.793212890625,35.914794921875)"/>
<path d="M0 0 C0.75668976 -0.00335861 1.51337952 -0.00671722 2.29299927 -0.01017761 C4.78372862 -0.01964471 7.27439052 -0.02162818 9.76513672 -0.02270508 C11.49958321 -0.02591917 13.23402942 -0.02928336 14.96847534 -0.03279114 C18.59813059 -0.03877074 22.22776205 -0.04063209 25.85742188 -0.04003906 C30.5125703 -0.03993718 35.16756711 -0.05362174 39.82267952 -0.07081127 C43.4016897 -0.08191423 46.98066292 -0.08395884 50.55968857 -0.08342934 C52.27652385 -0.08461078 53.99336004 -0.08904174 55.71017838 -0.0967617 C58.10637417 -0.10653294 60.50223661 -0.10369569 62.8984375 -0.09765625 C63.60915405 -0.10327576 64.31987061 -0.10889526 65.05212402 -0.11468506 C68.70704981 -0.09121523 70.1885647 0.05775733 73.31982422 2.14526367 C73.5959599 4.90068208 73.69240046 7.3961747 73.63232422 10.14526367 C73.63554687 10.88260742 73.63876953 11.61995117 73.64208984 12.37963867 C73.58690371 17.87818418 73.58690371 17.87818418 71.31982422 20.14526367 C68.72555542 20.38577271 68.72555542 20.38577271 65.40136719 20.37231445 C64.16023163 20.37216339 62.91909607 20.37201233 61.64035034 20.37185669 C60.28090252 20.36164267 58.92145632 20.35121067 57.56201172 20.34057617 C56.17481693 20.33684651 54.78761951 20.33399932 53.40042114 20.33200073 C49.74742371 20.32436051 46.09458505 20.30470883 42.44165039 20.28259277 C38.714866 20.26214264 34.98805521 20.25289131 31.26123047 20.24291992 C23.94728811 20.2225241 16.63378188 20.18337926 9.31982422 20.14526367 C9.31982422 29.71526367 9.31982422 39.28526367 9.31982422 49.14526367 C13.35072266 49.13366211 17.38162109 49.12206055 21.53466797 49.11010742 C24.74060281 49.1036804 27.94653584 49.0982562 31.15247345 49.09351349 C34.54119653 49.08822398 37.92989477 49.08115087 41.31860352 49.06982422 C45.20312199 49.056921 49.08763018 49.05203443 52.97216797 49.04760742 C54.19193832 49.04244614 55.41170868 49.03728485 56.66844177 49.03196716 C58.35007164 49.03185387 58.35007164 49.03185387 60.06567383 49.03173828 C61.55459389 49.02840736 61.55459389 49.02840736 63.07359314 49.02500916 C65.31982422 49.14526367 65.31982422 49.14526367 66.31982422 50.14526367 C66.41969397 52.98861415 66.45860303 55.8022353 66.44482422 58.64526367 C66.44869141 59.44319336 66.45255859 60.24112305 66.45654297 61.06323242 C66.44643189 67.018656 66.44643189 67.018656 65.31982422 68.14526367 C62.63597761 68.31864966 59.97576647 68.42969745 57.28857422 68.49682617 C56.46466187 68.51997894 55.64074951 68.54313171 54.79187012 68.56698608 C53.03318768 68.61477592 51.27443375 68.65999089 49.515625 68.70288086 C46.88622644 68.76860392 44.25742908 68.84695215 41.62841797 68.92651367 C30.7805895 69.2227973 20.14551727 68.93024358 9.31982422 68.14526367 C9.31982422 77.71526367 9.31982422 87.28526367 9.31982422 97.14526367 C13.92822266 97.20584961 18.53662109 97.26643555 23.28466797 97.32885742 C26.19678715 97.36933211 29.10889651 97.41009524 32.02099609 97.4519043 C36.64750923 97.51829951 41.27402034 97.58360156 45.90063477 97.64257812 C49.62892508 97.69017017 53.35712074 97.74251082 57.08529854 97.79820442 C58.51069355 97.81865145 59.93611454 97.83736058 61.3615551 97.85433769 C63.35152963 97.87832963 65.34142076 97.90896503 67.33129883 97.93994141 C68.46603134 97.95548569 69.60076385 97.97102997 70.7698822 97.98704529 C73.31982422 98.14526367 73.31982422 98.14526367 74.31982422 99.14526367 C74.41819632 100.47569992 74.45061014 101.81119712 74.45263672 103.14526367 C74.45392578 103.94963867 74.45521484 104.75401367 74.45654297 105.58276367 C74.45267578 106.42838867 74.44880859 107.27401367 74.44482422 108.14526367 C74.44869141 108.99088867 74.45255859 109.83651367 74.45654297 110.70776367 C74.45525391 111.51213867 74.45396484 112.31651367 74.45263672 113.14526367 C74.45150879 113.88776367 74.45038086 114.63026367 74.44921875 115.39526367 C74.31982422 117.14526367 74.31982422 117.14526367 73.31982422 118.14526367 C64.38559395 119.84876557 55.02252848 119.19719783 45.97216797 119.05932617 C44.30734202 119.03752005 42.64251134 119.01607218 40.97767639 118.9949646 C37.51069104 118.94974135 34.04379219 118.9005382 30.5769043 118.84838867 C26.12474321 118.78169845 21.67251906 118.72460667 17.220191 118.67035866 C13.79306212 118.62764937 10.36601182 118.5802021 6.93896675 118.53126144 C5.29586253 118.50832453 3.65273768 118.48681985 2.00959587 118.46675491 C-0.27389536 118.43811281 -2.55720242 118.40316863 -4.84057617 118.36645508 C-6.14056046 118.34789459 -7.44054474 118.32933411 -8.77992249 118.31021118 C-11.68017578 118.14526367 -11.68017578 118.14526367 -12.68017578 117.14526367 C-12.8393481 115.21966802 -12.92913144 113.2883117 -12.9921875 111.35717773 C-13.03352814 110.10894226 -13.07486877 108.86070679 -13.11746216 107.574646 C-13.15715443 106.18674275 -13.19627021 104.79882292 -13.23486328 103.41088867 C-13.26626719 102.35087521 -13.26626719 102.35087521 -13.29830551 101.26944733 C-13.77296024 85.05713948 -13.83426111 68.84682807 -13.81054688 52.62866211 C-13.80475137 48.6310033 -13.8082147 44.63341025 -13.81411934 40.63575363 C-13.81775138 37.48878491 -13.81657593 34.34183158 -13.81399155 31.19486237 C-13.81333467 29.7199223 -13.81410613 28.24498074 -13.8164711 26.77004242 C-13.82726903 18.18256199 -13.56437526 9.69332353 -12.68017578 1.14526367 C-8.44288777 0.11546908 -4.33534797 -0.00278026 0 0 Z " fill="#FBFBFB" transform="translate(182.68017578125,35.854736328125)"/>
<path d="M0 0 C7.26 0 14.52 0 22 0 C22.72316406 1.73765625 23.44632813 3.4753125 24.19140625 5.265625 C25.94149748 9.46682956 27.6986445 13.66491875 29.46484375 17.859375 C30.2890625 19.82291667 31.11328125 21.78645833 31.9375 23.75 C32.34162109 24.70648438 32.74574219 25.66296875 33.16210938 26.6484375 C35.5270023 32.29438659 37.76225934 37.97581887 39.890625 43.71484375 C43.02120166 52.15428759 46.39720631 60.48499666 49.8125 68.8125 C50.68998166 70.95635548 51.56679328 73.10048046 52.44255066 75.24504089 C52.98011044 76.56101446 53.51871852 77.87656047 54.05854797 79.19160461 C55.11638541 81.7778841 56.11596798 84.34790395 57 87 C61.34519848 77.00506484 65.47324972 66.93916905 69.5 56.8125 C70.10095887 55.30534147 70.70211869 53.79826304 71.3034668 52.29125977 C72.55779056 49.14730057 73.81125015 46.00299911 75.06396484 42.85839844 C77.99728467 35.49596857 80.93655365 28.13591742 83.87792969 20.77670288 C84.80093534 18.46644602 85.72278029 16.1557284 86.64453125 13.8449707 C87.2069825 12.43699224 87.76947997 11.02903225 88.33203125 9.62109375 C88.58866043 8.97693512 88.84528961 8.33277649 89.10969543 7.6690979 C90.01352583 5.40939632 90.91104591 3.17790819 92 1 C99.70309272 -0.2168347 107.31416229 -0.19262999 115 1 C114.39015377 5.82798818 112.9609135 10.05066137 111.11328125 14.51953125 C110.81998932 15.24224716 110.52669739 15.96496307 110.22451782 16.70957947 C109.26025659 19.07989348 108.28671346 21.44626083 107.3125 23.8125 C106.63133647 25.47873679 105.95043191 27.14507947 105.26977539 28.81152344 C99.5190998 42.85905641 93.61625331 56.84107983 87.64898682 70.79774475 C84.49729485 78.16990979 81.36942765 85.55214517 78.24099731 92.9342041 C76.78243434 96.37569363 75.32303197 99.81682663 73.86328125 103.2578125 C73.38157471 104.3936377 72.89986816 105.52946289 72.40356445 106.69970703 C71.94038818 107.78880371 71.47721191 108.87790039 71 110 C70.73287201 110.63999939 70.46574402 111.27999878 70.19052124 111.93939209 C68.10867508 116.89132492 68.10867508 116.89132492 67 118 C63.88272557 118.25017242 60.7511343 118.18522148 57.625 118.1875 C56.7484375 118.19974609 55.871875 118.21199219 54.96875 118.22460938 C54.12570313 118.22654297 53.28265625 118.22847656 52.4140625 118.23046875 C51.6401416 118.23457764 50.8662207 118.23868652 50.06884766 118.24291992 C48 118 48 118 45 116 C43.97949219 114.15698242 43.97949219 114.15698242 43.046875 111.85546875 C42.68239258 110.96899658 42.31791016 110.08252441 41.94238281 109.16918945 C41.54889648 108.18523193 41.15541016 107.20127441 40.75 106.1875 C40.3281543 105.15520264 39.90630859 104.12290527 39.47167969 103.05932617 C38.2505141 100.06418172 37.03846396 97.06553137 35.83105469 94.06481934 C33.63700662 88.61353803 31.43430895 83.16574107 29.23144531 77.71801758 C27.93392282 74.50898202 26.6421547 71.29772021 25.35449219 68.0847168 C22.22086974 60.29164315 18.94977881 52.61788279 15.37548828 45.01342773 C13.14683931 40.1308906 11.22749026 35.13707327 9.3125 30.125 C5.44013619 19.92683744 5.44013619 19.92683744 1.015625 9.9609375 C-1.00007544 5.78555801 -0.96682912 4.83414558 0 0 Z " fill="#FBFBFB" transform="translate(43,36)"/>
<path d="M0 0 C1.93741369 -0.02772134 3.87495233 -0.0467109 5.8125 -0.0625 C6.89144531 -0.07410156 7.97039063 -0.08570313 9.08203125 -0.09765625 C11.02142578 -0.04931641 11.02142578 -0.04931641 13 0 C14.31991943 -0.05401978 14.31991943 -0.05401978 15.66650391 -0.10913086 C22.81211905 -0.07071357 22.81211905 -0.07071357 25.95043945 2.75805664 C27.75990277 5.27586028 29.26473833 7.84079448 30.75 10.5625 C31.92513085 12.55897672 33.10093783 14.55505559 34.27734375 16.55078125 C34.87788574 17.59959473 35.47842773 18.6484082 36.09716797 19.72900391 C39.35427906 25.32802551 42.85026104 30.77642438 46.3125 36.25 C47.5817043 38.27461589 48.84881667 40.30054555 50.11328125 42.328125 C50.64735596 43.1830957 51.18143066 44.03806641 51.73168945 44.91894531 C53 47 53 47 54 49 C54.66 49 55.32 49 56 49 C57.22780805 47.40479243 57.22780805 47.40479243 58.3984375 45.29296875 C58.87200684 44.48770752 59.34557617 43.68244629 59.83349609 42.8527832 C60.34219238 41.97323975 60.85088867 41.09369629 61.375 40.1875 C62.45646511 38.35046139 63.53984974 36.51455167 64.625 34.6796875 C65.181875 33.73706055 65.73875 32.79443359 66.3125 31.82324219 C68.93097223 27.44245329 71.64341729 23.12340103 74.375 18.8125 C74.8498584 18.06057373 75.3247168 17.30864746 75.81396484 16.53393555 C77.19976179 14.34964637 78.59690041 12.17321103 80 10 C80.53270508 9.17032715 81.06541016 8.3406543 81.61425781 7.48583984 C82.41234863 6.2611499 82.41234863 6.2611499 83.2265625 5.01171875 C83.70947754 4.26752686 84.19239258 3.52333496 84.68994141 2.7565918 C86 1 86 1 88 0 C89.59447464 -0.08400529 91.19240545 -0.10727467 92.7890625 -0.09765625 C93.73007812 -0.09443359 94.67109375 -0.09121094 95.640625 -0.08789062 C96.62546875 -0.07951172 97.6103125 -0.07113281 98.625 -0.0625 C99.61757813 -0.05798828 100.61015625 -0.05347656 101.6328125 -0.04882812 C104.0886016 -0.03702145 106.54427104 -0.020554 109 0 C109.68188477 1.68212891 109.68188477 1.68212891 110 4 C108.86694336 6.39990234 108.86694336 6.39990234 107.08984375 9.0859375 C106.10999512 10.58906494 106.10999512 10.58906494 105.11035156 12.12255859 C104.39331055 13.19586426 103.67626953 14.26916992 102.9375 15.375 C102.20015046 16.49862899 101.46416324 17.62315305 100.72949219 18.74853516 C99.22364104 21.05317318 97.71226375 23.35403138 96.19677734 25.65234375 C92.99133852 30.52384195 89.87102742 35.44915836 86.75 40.375 C85.61598625 42.15891827 84.48187272 43.94277312 83.34765625 45.7265625 C79.95745664 51.06550643 76.56950522 56.40586095 73.1875 61.75 C72.67735352 62.5548584 72.16720703 63.3597168 71.64160156 64.18896484 C71.17592773 64.9258252 70.71025391 65.66268555 70.23046875 66.421875 C69.82207764 67.06737305 69.41368652 67.71287109 68.99291992 68.37792969 C67.2427267 71.23710937 66.86332152 73.00589022 66.81054688 76.34204102 C66.79382935 77.2395961 66.77711182 78.13715118 66.7598877 79.06190491 C66.74631226 80.03276535 66.73273682 81.00362579 66.71875 82.00390625 C66.70034058 82.9975267 66.68193115 83.99114716 66.66296387 85.01487732 C66.58408112 89.27925586 66.51639734 93.54379591 66.44775391 97.80834961 C66.39616492 100.91528477 66.33886762 104.02207802 66.28125 107.12890625 C66.26767456 108.10179092 66.25409912 109.0746756 66.2401123 110.07704163 C66.22339478 110.97144455 66.20667725 111.86584747 66.18945312 112.78735352 C66.17066101 113.97410423 66.17066101 113.97410423 66.15148926 115.18482971 C66 117 66 117 65 118 C63.5112814 118.08669432 62.018555 118.10703494 60.52734375 118.09765625 C59.62822266 118.09443359 58.72910156 118.09121094 57.80273438 118.08789062 C56.38444336 118.07532227 56.38444336 118.07532227 54.9375 118.0625 C53.98810547 118.05798828 53.03871094 118.05347656 52.06054688 118.04882812 C49.70696935 118.0370011 47.35351523 118.02052025 45 118 C43.19798103 112.63931292 42.78409041 108.1641137 42.98046875 102.5390625 C43.01063308 100.91668256 43.03990217 99.29428578 43.06835938 97.671875 C43.12399856 95.14825807 43.18748381 92.62551149 43.26733398 90.10253906 C43.79712151 76.72827713 43.79712151 76.72827713 38 65 C36.9821683 63.37864254 35.9748833 61.75063078 34.9765625 60.1171875 C33.8623897 58.36786789 32.74506267 56.62055428 31.625 54.875 C31.02357178 53.93358154 30.42214355 52.99216309 29.80249023 52.0222168 C24.66234947 43.99335804 19.46310774 36.00309297 14.23876953 28.02880859 C10.10668781 21.71930145 6.00551546 15.3908294 2 9 C1.431604 8.11675049 0.86320801 7.23350098 0.27758789 6.32348633 C-1 4 -1 4 -0.6875 1.6875 C-0.460625 1.130625 -0.23375 0.57375 0 0 Z " fill="#FBFBFB" transform="translate(522,36)"/>
<path d="M0 0 C-0.47566406 0.93030029 -0.47566406 0.93030029 -0.9609375 1.87939453 C-2.83154123 5.69707873 -3.10086666 8.9012088 -3 13.125 C-2.88951841 17.77903683 -2.88951841 17.77903683 -4 20 C-16.21 20 -28.42 20 -41 20 C-40.99476318 22.93318115 -40.98952637 25.8663623 -40.98413086 28.88842773 C-40.9675966 38.55557362 -40.95652944 48.22272011 -40.94818783 57.88987637 C-40.94295854 63.75382164 -40.93586006 69.61775249 -40.92456055 75.48168945 C-40.9137333 81.13561712 -40.90772351 86.78953087 -40.90512276 92.44346809 C-40.90326821 94.6057361 -40.89964705 96.76800331 -40.89426994 98.93026543 C-40.88706167 101.94758657 -40.88600897 104.96484943 -40.88647461 107.98217773 C-40.88287933 108.8856041 -40.87928406 109.78903046 -40.87557983 110.71983337 C-40.88594784 116.88594784 -40.88594784 116.88594784 -42 118 C-43.4887186 118.08669432 -44.981445 118.10703494 -46.47265625 118.09765625 C-47.37177734 118.09443359 -48.27089844 118.09121094 -49.19726562 118.08789062 C-50.61555664 118.07532227 -50.61555664 118.07532227 -52.0625 118.0625 C-53.01189453 118.05798828 -53.96128906 118.05347656 -54.93945312 118.04882812 C-57.29303065 118.0370011 -59.64648477 118.02052025 -62 118 C-63.7026057 114.59478859 -63.12864821 110.70607881 -63.11352539 106.96044922 C-63.11367142 106.02381439 -63.11381744 105.08717957 -63.1139679 104.12216187 C-63.11326944 101.01631378 -63.10548015 97.91052515 -63.09765625 94.8046875 C-63.09579183 92.65520256 -63.09436804 90.5057172 -63.09336853 88.35623169 C-63.08954522 82.69104851 -63.07971651 77.02589085 -63.06866455 71.36071777 C-63.05844644 65.58292994 -63.05387005 59.805138 -63.04882812 54.02734375 C-63.03809409 42.6848846 -63.02101989 31.34244442 -63 20 C-64.52381538 20.10597 -64.52381538 20.10597 -66.07841492 20.21408081 C-67.4320734 20.30668816 -68.78573679 20.39922383 -70.1394043 20.49169922 C-70.80649162 20.53828171 -71.47357895 20.5848642 -72.16088104 20.63285828 C-77.71819598 21.01019829 -83.24440088 21.15128528 -88.8125 21.125 C-89.68197266 21.12886719 -90.55144531 21.13273437 -91.44726562 21.13671875 C-92.27548828 21.13542969 -93.10371094 21.13414063 -93.95703125 21.1328125 C-94.68897705 21.13168457 -95.42092285 21.13055664 -96.17504883 21.12939453 C-98 21 -98 21 -100 20 C-100 13.73 -100 7.46 -100 1 C-88.43817103 0.86901935 -76.87633692 0.73851838 -65.31449318 0.60884857 C-59.94517304 0.54861101 -54.57585539 0.48816793 -49.20654297 0.42724609 C-44.01941844 0.36839913 -38.83228798 0.31010387 -33.64515305 0.25218201 C-31.67174435 0.23005084 -29.69833782 0.20772496 -27.72493362 0.18519592 C-24.94895224 0.15353852 -22.17296375 0.12259 -19.39697266 0.09179688 C-18.59135895 0.08244614 -17.78574524 0.0730954 -16.95571899 0.0634613 C-11.30364097 0.00178012 -5.65239024 -0.00982242 0 0 Z " fill="#FBFBFB" transform="translate(520,36)"/>
<path d="M0 0 C1.95532227 -0.35644531 1.95532227 -0.35644531 4.31640625 -0.328125 C5.16267578 -0.32296875 6.00894531 -0.3178125 6.88085938 -0.3125 C7.76580078 -0.291875 8.65074219 -0.27125 9.5625 -0.25 C10.89571289 -0.24226563 10.89571289 -0.24226563 12.25585938 -0.234375 C18.84605454 -0.15394546 18.84605454 -0.15394546 20 1 C20.09791695 2.50318704 20.12631799 4.01096133 20.12698364 5.51733398 C20.12980347 6.49330536 20.13262329 7.46927673 20.13552856 8.474823 C20.13350433 9.55434235 20.1314801 10.63386169 20.12939453 11.74609375 C20.13114685 12.87604767 20.13289917 14.00600159 20.13470459 15.17019653 C20.13912582 18.92597973 20.13618416 22.68171628 20.1328125 26.4375 C20.13348546 29.03442392 20.13445542 31.63134778 20.13571167 34.22827148 C20.13718901 39.67920589 20.13512751 45.13012258 20.13037109 50.58105469 C20.1249285 56.89139229 20.12669117 63.20169759 20.1321975 69.51203442 C20.13727431 75.571677 20.13674709 81.63130372 20.13381577 87.69094849 C20.13314623 90.27466842 20.13397585 92.85838917 20.13629532 95.44210815 C20.13882025 99.04606343 20.1349835 102.6499557 20.12939453 106.25390625 C20.13141876 107.3334256 20.13344299 108.41294495 20.13552856 109.525177 C20.13129883 110.98913406 20.13129883 110.98913406 20.12698364 112.48266602 C20.12660662 113.33586929 20.12622959 114.18907257 20.12584114 115.06813049 C20 117 20 117 19 118 C17.5112814 118.08669432 16.018555 118.10703494 14.52734375 118.09765625 C13.62822266 118.09443359 12.72910156 118.09121094 11.80273438 118.08789062 C10.38444336 118.07532227 10.38444336 118.07532227 8.9375 118.0625 C7.98810547 118.05798828 7.03871094 118.05347656 6.06054688 118.04882812 C3.70696935 118.0370011 1.35351523 118.02052025 -1 118 C-2.1928227 115.61435461 -2.12832024 114.15268557 -2.13371277 111.48976135 C-2.13797775 110.5405481 -2.14224274 109.59133484 -2.14663696 108.61335754 C-2.14618378 107.56862778 -2.14573059 106.52389801 -2.14526367 105.44750977 C-2.14862228 104.34988312 -2.1519809 103.25225647 -2.15544128 102.12136841 C-2.16497244 98.47803631 -2.16689544 94.83475005 -2.16796875 91.19140625 C-2.17117968 88.66796347 -2.17454363 86.14452087 -2.17805481 83.62107849 C-2.1840514 78.32574964 -2.18593686 73.030438 -2.18530273 67.73510742 C-2.18470181 61.61164724 -2.19525592 55.48827512 -2.2110464 49.36483723 C-2.22568763 43.47766278 -2.22929109 37.5905153 -2.22869301 31.70332146 C-2.22987625 29.19661029 -2.23431718 26.68989853 -2.24202538 24.18319893 C-2.25178188 20.68268574 -2.24896442 17.18240134 -2.24291992 13.68188477 C-2.24853943 12.63917923 -2.25415894 11.59647369 -2.25994873 10.52217102 C-2.25575424 9.57013794 -2.25155975 8.61810486 -2.24723816 7.63722229 C-2.24778293 6.80928445 -2.24832769 5.98134661 -2.24888897 5.12831974 C-2 3 -2 3 0 0 Z " fill="#FCFBFB" transform="translate(387,36)"/>
<path d="M0 0 C1.05445313 -0.00257812 2.10890625 -0.00515625 3.1953125 -0.0078125 C5.875 0.125 5.875 0.125 7.875 1.125 C8.94118435 4.32355306 8.96746267 6.50821162 8.91259766 9.86572266 C8.89572906 11.04349274 8.87886047 12.22126282 8.86148071 13.4347229 C8.8375827 14.70665497 8.81368469 15.97858704 8.7890625 17.2890625 C8.76782318 18.59201263 8.74658386 19.89496277 8.72470093 21.23739624 C8.67923897 23.9929707 8.6300153 26.74844556 8.578125 29.50390625 C8.5117681 33.04263486 8.45455057 36.58144146 8.40009499 40.12037086 C8.34706661 43.48918975 8.2865107 46.85785954 8.2265625 50.2265625 C8.20671295 51.50254303 8.1868634 52.77852356 8.16641235 54.09317017 C8.14323944 55.26463593 8.12006653 56.43610168 8.09619141 57.64306641 C8.07763092 58.67992584 8.05907043 59.71678528 8.03994751 60.7850647 C7.875 63.125 7.875 63.125 6.875 64.125 C4.01232433 64.19825168 1.174281 64.21738205 -1.6875 64.1875 C-2.49380859 64.18298828 -3.30011719 64.17847656 -4.13085938 64.17382812 C-6.12893756 64.16200518 -8.12697783 64.14406914 -10.125 64.125 C-11.4495002 61.47599961 -11.25212018 59.48000542 -11.25439453 56.51367188 C-11.25754669 55.33905396 -11.26069885 54.16443604 -11.26394653 52.95422363 C-11.2619223 51.68026733 -11.25989807 50.40631104 -11.2578125 49.09375 C-11.25876923 47.79175659 -11.25972595 46.48976318 -11.26071167 45.14831543 C-11.26218694 42.39101986 -11.26003958 39.63375666 -11.25537109 36.87646484 C-11.24967389 33.33880791 -11.25295381 29.80122684 -11.25894356 26.26357269 C-11.26342194 22.89445901 -11.26028818 19.52536584 -11.2578125 16.15625 C-11.25983673 14.8822937 -11.26186096 13.6083374 -11.26394653 12.29577637 C-11.26079437 11.12115845 -11.25764221 9.94654053 -11.25439453 8.73632812 C-11.25320114 7.17984558 -11.25320114 7.17984558 -11.25198364 5.59191895 C-11.125 3.125 -11.125 3.125 -10.125 1.125 C-6.80401093 -0.0952704 -3.50564325 -0.00861337 0 0 Z " fill="#FBFBFA" transform="translate(156.125,89.875)"/>
<path d="M0 0 C6.875 0.875 6.875 0.875 8 2 C8.10082764 4.43660446 8.13972603 6.84424701 8.1328125 9.28125 C8.13424759 10.37427429 8.13424759 10.37427429 8.13571167 11.48937988 C8.13639335 13.0327971 8.13453988 14.57621717 8.13037109 16.11962891 C8.12502262 18.489974 8.13031642 20.86012959 8.13671875 23.23046875 C8.13605797 24.72656292 8.1347768 26.22265697 8.1328125 27.71875 C8.13483673 28.43228638 8.13686096 29.14582275 8.13894653 29.88098145 C8.11495191 34.88504809 8.11495191 34.88504809 7 36 C4.3226862 36.09981214 1.67695825 36.13879875 -1 36.125 C-2.12535156 36.13080078 -2.12535156 36.13080078 -3.2734375 36.13671875 C-8.87338947 36.12661053 -8.87338947 36.12661053 -10 35 C-11.7246601 23.41733955 -7.84320498 11.07348448 -1.26953125 1.47265625 C-0.85058594 0.98667969 -0.43164062 0.50070313 0 0 Z " fill="#FAFAFA" transform="translate(132,118)"/>
<path d="M0 0 C0.66 0 1.32 0 2 0 C0.6302836 3.99500618 -1.25722422 6.80009492 -4 10 C-4.33 9.34 -4.66 8.68 -5 8 C-4.07421875 6.0546875 -4.07421875 6.0546875 -2.6875 3.875 C-2.23761719 3.15054688 -1.78773438 2.42609375 -1.32421875 1.6796875 C-0.88722656 1.12539063 -0.45023438 0.57109375 0 0 Z " fill="#F6F6F4" transform="translate(621,52)"/>
<path d="M0 0 C0.66 0.66 1.32 1.32 2 2 C-3.17578125 5.22265625 -3.17578125 5.22265625 -5 6 C-5.99 5.67 -6.98 5.34 -8 5 C-4.04 2.525 -4.04 2.525 0 0 Z " fill="#F5F5F4" transform="translate(352,101)"/>
</svg>
