<?xml version="1.0" encoding="UTF-8"?>
<svg version="1.1" xmlns="http://www.w3.org/2000/svg" width="652" height="176">
<path d="M0 0 C1.20247879 -0.01283524 2.40495758 -0.02567047 3.64387512 -0.03889465 C4.9572435 -0.04628159 6.27061188 -0.05366852 7.6237793 -0.0612793 C8.29190329 -0.06535482 8.96002728 -0.06943035 9.64839745 -0.07362938 C13.19593372 -0.09453421 16.743431 -0.1088074 20.29101562 -0.11816406 C23.92774094 -0.12913898 27.56383905 -0.16341969 31.20034504 -0.20333576 C34.01711518 -0.22972751 36.83374239 -0.23787641 39.65062523 -0.24144554 C41.63340917 -0.24858882 43.61609458 -0.27494871 45.59870911 -0.30183411 C59.14154844 -0.26980856 70.01084793 3.42642432 80.01049805 12.6809082 C86.25605306 19.50269002 87.70541188 28.82837903 87.52612305 37.76293945 C86.98900904 46.98339659 84.36284592 54.00637401 78.38549805 61.17700195 C73.77226691 65.25130422 69.55353431 68.27703937 63.38549805 69.17700195 C64.43737305 70.70067383 64.43737305 70.70067383 65.51049805 72.25512695 C70.57731247 79.60433867 75.60108712 86.97541099 80.53393555 94.4152832 C82.95073687 98.02009025 85.43701157 101.57321529 87.94018555 105.1184082 C91.40635207 110.05535349 91.40635207 110.05535349 91.01049805 112.36450195 C90.70112305 113.26168945 90.70112305 113.26168945 90.38549805 114.17700195 C86.78148324 114.26401234 83.17773792 114.31739583 79.57299805 114.36450195 C78.54883789 114.38963867 77.52467773 114.41477539 76.46948242 114.44067383 C75.48657227 114.4503418 74.50366211 114.46000977 73.4909668 114.4699707 C72.58499756 114.48568115 71.67902832 114.5013916 70.74560547 114.51757812 C67.83620802 114.09773645 67.17740841 113.46577868 65.38549805 111.17700195 C64.19732915 109.57595046 63.04174158 107.95050385 61.90893555 106.30981445 C61.2418457 105.34712646 60.57475586 104.38443848 59.88745117 103.39257812 C59.18555664 102.37268799 58.48366211 101.35279785 57.76049805 100.30200195 C56.32041351 98.21735298 54.88030945 96.13271749 53.44018555 94.0480957 C52.74505859 93.0398877 52.04993164 92.03167969 51.33374023 90.99291992 C49.67760983 88.59920964 48.01006496 86.21466522 46.33081055 83.8371582 C45.90751465 83.23564941 45.48421875 82.63414063 45.0480957 82.0144043 C43.96489247 80.47717468 42.87844742 78.94223082 41.79174805 77.4074707 C40.38549805 75.17700195 40.38549805 75.17700195 40.38549805 73.17700195 C32.13549805 73.17700195 23.88549805 73.17700195 15.38549805 73.17700195 C15.38549805 86.37700195 15.38549805 99.57700195 15.38549805 113.17700195 C11.96400947 114.88774624 8.15611122 114.4036545 4.38549805 114.42700195 C3.55276367 114.44762695 2.7200293 114.46825195 1.86206055 114.48950195 C1.06541992 114.4946582 0.2687793 114.49981445 -0.55200195 114.50512695 C-1.28290039 114.51447266 -2.01379883 114.52381836 -2.7668457 114.53344727 C-3.37657227 114.41582031 -3.98629883 114.29819336 -4.61450195 114.17700195 C-6.72643203 111.00910683 -6.86418224 110.26513689 -6.86174011 106.64694214 C-6.8659346 105.71870636 -6.87012909 104.79047058 -6.87445068 103.83410645 C-6.86883118 102.81788208 -6.86321167 101.80165771 -6.85742188 100.75463867 C-6.85932022 99.68291412 -6.86121857 98.61118958 -6.86317444 97.50698853 C-6.86688582 93.95681494 -6.85617395 90.40684492 -6.8449707 86.85668945 C-6.84377915 84.39714583 -6.84332569 81.93760176 -6.84358215 79.47805786 C-6.84201674 74.32152461 -6.83372157 69.16506073 -6.8203125 64.00854492 C-6.80330479 57.38246229 -6.79949862 50.75645583 -6.80025768 44.13035393 C-6.79998644 39.05192328 -6.79451295 33.97350945 -6.78725624 28.89508438 C-6.7840634 26.45092013 -6.78210074 24.00675396 -6.78136253 21.56258774 C-6.77920648 18.15521715 -6.77047875 14.74792916 -6.75976562 11.34057617 C-6.76021881 10.32030334 -6.760672 9.30003052 -6.76113892 8.24884033 C-6.75687393 7.3262442 -6.75260895 6.40364807 -6.74821472 5.45309448 C-6.74653888 4.64673491 -6.74486303 3.84037533 -6.74313641 3.00958061 C-6.46190265 -0.99698966 -3.33650708 0.03089841 0 0 Z M15.38549805 19.17700195 C15.36084707 24.14322545 15.34266156 29.10941362 15.33056641 34.07568359 C15.32552615 35.76644511 15.318694 37.45720224 15.31005859 39.14794922 C15.29797948 41.57300902 15.29226682 43.99801139 15.2878418 46.4230957 C15.28268051 47.18351669 15.27751923 47.94393768 15.27220154 48.72740173 C15.27200567 50.54432766 15.32352528 52.36113323 15.38549805 54.17700195 C17.68274876 56.47425267 23.28760455 55.34853541 26.3425293 55.36254883 C27.00720215 55.36246826 27.671875 55.3623877 28.35668945 55.36230469 C30.34940714 55.36446287 32.34208591 55.3828873 34.3347168 55.40161133 C47.90508654 55.5243061 47.90508654 55.5243061 59.8737793 49.7824707 C63.33483369 46.10677728 65.20983229 41.84272975 65.54174805 36.8059082 C65.1959457 31.67938837 63.94924256 28.00150826 60.38549805 24.17700195 C51.80223807 17.7351926 42.42640651 18.5923842 32.26049805 18.86450195 C30.61990723 18.88962958 28.97927913 18.91243483 27.33862305 18.93286133 C23.35331323 18.98747398 19.36982542 19.07349225 15.38549805 19.17700195 Z " fill="#030303" transform="translate(265.614501953125,37.822998046875)"/>
<path d="M0 0 C27.72 0 55.44 0 84 0 C84 5.94 84 11.88 84 18 C83 19 83 19 80.56394958 19.12025452 C79.48251175 19.11803391 78.40107391 19.11581329 77.28686523 19.11352539 C76.0656749 19.11344986 74.84448456 19.11337433 73.58628845 19.11329651 C72.24372314 19.10818911 70.90115825 19.10297311 69.55859375 19.09765625 C68.19238842 19.09579199 66.82618243 19.09436813 65.4599762 19.09336853 C61.85798305 19.08954394 58.25603 19.07971417 54.65405273 19.06866455 C50.98096265 19.05844916 47.30786592 19.05381594 43.63476562 19.04882812 C36.42314163 19.03862203 29.21162785 19.01905038 22 19 C22 27.91 22 36.82 22 46 C25.95871094 45.98839844 29.91742188 45.97679687 33.99609375 45.96484375 C37.81192952 45.95705467 41.62776442 45.95097706 45.44360352 45.94506836 C48.10441481 45.94002617 50.76522332 45.93319264 53.42602539 45.92456055 C57.24105516 45.91248991 61.05604844 45.90677071 64.87109375 45.90234375 C66.06899033 45.89718246 67.2668869 45.89202118 68.50108337 45.88670349 C70.15268211 45.88659019 70.15268211 45.88659019 71.83764648 45.88647461 C73.2999192 45.88314369 73.2999192 45.88314369 74.79173279 45.87974548 C77 46 77 46 78 47 C78.09986975 49.84335048 78.13877881 52.65697163 78.125 55.5 C78.12886719 56.29792969 78.13273437 57.09585938 78.13671875 57.91796875 C78.12660767 63.87339233 78.12660767 63.87339233 77 65 C75.28134591 65.0935919 73.55884256 65.11744611 71.83764648 65.11352539 C70.73658066 65.11344986 69.63551483 65.11337433 68.50108337 65.11329651 C67.3031868 65.10813522 66.10529022 65.10297394 64.87109375 65.09765625 C63.65172623 65.0962413 62.4323587 65.09482635 61.17604065 65.09336853 C57.2631693 65.08774967 53.35035419 65.07519396 49.4375 65.0625 C46.79231853 65.05748743 44.14713617 65.0529241 41.50195312 65.04882812 C35.00126274 65.03862296 28.50069467 65.01905121 22 65 C22 74.57 22 84.14 22 94 C42.79 94 63.58 94 85 94 C85 100.27 85 106.54 85 113 C83.24817188 114.75182812 80.95354967 114.12610303 78.61940002 114.13552856 C77.46298256 114.13249222 77.46298256 114.13249222 76.28320312 114.12939453 C75.07107399 114.13202301 75.07107399 114.13202301 73.8344574 114.13470459 C71.1500334 114.13912376 68.46567472 114.13618489 65.78125 114.1328125 C63.92419421 114.13348552 62.0671385 114.13445553 60.21008301 114.13571167 C56.31273563 114.13718873 52.41541113 114.13503382 48.51806641 114.13037109 C43.510655 114.1246738 38.50329719 114.12795276 33.49588776 114.13394356 C29.65960279 114.13754895 25.82333063 114.13641069 21.98704529 114.13381577 C20.14017226 114.13314644 18.29329808 114.13397513 16.44642639 114.13629532 C13.86985168 114.13882149 11.29336499 114.13498177 8.71679688 114.12939453 C7.9458519 114.13141876 7.17490692 114.13344299 6.38059998 114.13552856 C1.11426255 114.11426255 1.11426255 114.11426255 0 113 C-0.13069803 110.10757164 -0.1967459 107.23779558 -0.22119141 104.34375 C-0.2326973 103.43456818 -0.24420319 102.52538635 -0.25605774 101.58865356 C-0.292958 98.55913745 -0.3225029 95.52960079 -0.3515625 92.5 C-0.37468659 90.3898083 -0.398077 88.27961951 -0.42172241 86.16943359 C-0.47030753 81.72724086 -0.51519239 77.28502914 -0.55761719 72.84277344 C-0.61192062 67.19340289 -0.67586408 61.54419184 -0.74279213 55.8949585 C-0.7933475 51.52449535 -0.83827087 47.15398716 -0.88163376 42.78344727 C-0.9029824 40.70416361 -0.92609126 38.62489716 -0.9510994 36.5456543 C-0.98567074 33.60598283 -1.01250021 30.66632832 -1.03759766 27.7265625 C-1.04897263 26.89158234 -1.0603476 26.05660217 -1.07206726 25.19631958 C-1.12915115 16.73033222 -0.50115509 8.51963653 0 0 Z " fill="#030404" transform="translate(160,38)"/>
<path d="M0 0 C1.40668945 0.07734375 1.40668945 0.07734375 2.84179688 0.15625 C4.30649414 0.25292969 4.30649414 0.25292969 5.80078125 0.3515625 C6.78884766 0.40828125 7.77691406 0.465 8.79492188 0.5234375 C11.2351101 0.66489769 13.67426716 0.81630524 16.11328125 0.9765625 C15.47439077 6.30916838 13.77159917 10.90179338 11.80078125 15.8515625 C11.50494141 16.61597656 11.20910156 17.38039063 10.90429688 18.16796875 C9.47237303 21.81117889 7.96357963 25.35272862 6.16796875 28.83203125 C3.58739835 33.87488293 1.60609185 39.14077463 -0.44921875 44.4140625 C-4.28611735 54.13725872 -8.35912905 63.72340424 -12.61914062 73.26782227 C-16.9402993 82.99119327 -20.99615822 92.81692586 -25.00341797 102.67285156 C-25.48182129 103.84299805 -25.96022461 105.01314453 -26.453125 106.21875 C-26.87537354 107.2588623 -27.29762207 108.29897461 -27.73266602 109.37060547 C-28.88671875 111.9765625 -28.88671875 111.9765625 -30.88671875 114.9765625 C-32.94970703 115.31713867 -32.94970703 115.31713867 -35.45703125 115.26953125 C-36.35292969 115.25986328 -37.24882813 115.25019531 -38.171875 115.24023438 C-39.10902344 115.21509766 -40.04617187 115.18996094 -41.01171875 115.1640625 C-41.95660156 115.15052734 -42.90148437 115.13699219 -43.875 115.12304688 C-46.21280654 115.08762556 -48.54948112 115.03823521 -50.88671875 114.9765625 C-54.4305736 109.04500403 -57.34756969 103.06608408 -59.6796875 96.5625 C-62.71613097 88.29115907 -66.09935554 80.19645262 -69.57421875 72.1015625 C-70.19016157 70.659099 -70.80571452 69.21646896 -71.42089844 67.77368164 C-72.65660604 64.87633782 -73.89380376 61.97963858 -75.13232422 59.08349609 C-78.96961708 50.10626625 -82.76621488 41.11179073 -86.55908203 32.11572266 C-87.96171402 28.79923827 -89.37527723 25.48752483 -90.7890625 22.17578125 C-91.71773785 19.98449785 -92.64613344 17.79309586 -93.57421875 15.6015625 C-94.00895508 14.5902124 -94.44369141 13.5788623 -94.89160156 12.53686523 C-95.28573242 11.60173096 -95.67986328 10.66659668 -96.0859375 9.703125 C-96.43487061 8.88408691 -96.78380371 8.06504883 -97.14331055 7.22119141 C-97.88671875 4.9765625 -97.88671875 4.9765625 -97.88671875 0.9765625 C-90.29671875 0.9765625 -82.70671875 0.9765625 -74.88671875 0.9765625 C-70.52699564 10.33421915 -66.62057206 19.8428553 -62.76171875 29.4140625 C-62.43611969 30.21982727 -62.11052063 31.02559204 -61.77505493 31.85577393 C-57.33682561 42.83922826 -52.92720741 53.83403393 -48.57421875 64.8515625 C-48.12481934 65.98392334 -47.67541992 67.11628418 -47.21240234 68.28295898 C-45.17559845 73.46794806 -43.2780878 78.58020298 -41.88671875 83.9765625 C-41.22671875 83.9765625 -40.56671875 83.9765625 -39.88671875 83.9765625 C-39.7151123 83.44361572 -39.54350586 82.91066895 -39.36669922 82.36157227 C-37.43847498 76.46523866 -35.2860255 70.68479209 -33.01171875 64.9140625 C-32.63096191 63.94380127 -32.25020508 62.97354004 -31.85791016 61.97387695 C-27.84373147 51.78946349 -23.71161796 41.65278641 -19.56738281 31.52075195 C-17.19060696 25.70269176 -14.82612633 19.88397162 -12.60546875 14.00390625 C-12.28529785 13.15675049 -11.96512695 12.30959473 -11.63525391 11.43676758 C-11.07386829 9.93602599 -10.52074105 8.43215498 -9.97802734 6.92456055 C-7.90295516 1.36468238 -5.93328608 -0.3595931 0 0 Z " fill="#030303" transform="translate(132.88671875,37.0234375)"/>
<path d="M0 0 C8.25844243 -1.31768252 16.86135427 -2.38912052 25 0 C30.75809771 4.29367685 33.42333742 11.36641415 36.37792969 17.71191406 C39.0823187 23.1939597 42.34732897 28.32075275 45.59298706 33.49468994 C46.67595285 35.23148142 47.74005542 36.97850206 48.79907227 38.72998047 C49.77058228 40.32543701 49.77058228 40.32543701 50.76171875 41.953125 C51.33881592 42.90348633 51.91591309 43.85384766 52.51049805 44.83300781 C53.81911504 47.11112828 53.81911504 47.11112828 56 48 C56.26103516 47.29077393 56.52207031 46.58154785 56.79101562 45.85083008 C58.07462512 42.8240312 59.61112763 40.18022111 61.34375 37.38671875 C62.00882568 36.310271 62.67390137 35.23382324 63.35913086 34.12475586 C64.07261753 32.97891898 64.78624304 31.83316853 65.5 30.6875 C66.22499057 29.51784529 66.94968 28.34800386 67.67407227 27.17797852 C69.11113886 24.85864572 70.55065758 22.54086677 71.99267578 20.22460938 C73.7467828 17.40677362 75.49715687 14.58667078 77.24609375 11.765625 C78.14281508 10.32265925 79.03991376 8.87992789 79.9375 7.4375 C80.54658203 6.45753052 80.54658203 6.45753052 81.16796875 5.45776367 C83.880906 1.119094 83.880906 1.119094 85 0 C86.78071246 -0.08726223 88.5648314 -0.10699041 90.34765625 -0.09765625 C91.42724609 -0.09443359 92.50683594 -0.09121094 93.61914062 -0.08789062 C95.32360352 -0.07532227 95.32360352 -0.07532227 97.0625 -0.0625 C98.77276367 -0.05573242 98.77276367 -0.05573242 100.51757812 -0.04882812 C103.34510351 -0.03699747 106.1725264 -0.0205141 109 0 C108.34459688 3.56427297 106.86481072 6.09887438 104.9375 9.1484375 C104.31004883 10.14673584 103.68259766 11.14503418 103.03613281 12.17358398 C102.02824707 13.75828491 102.02824707 13.75828491 101 15.375 C100.31518555 16.46047119 99.63037109 17.54594238 98.92480469 18.66430664 C96.95622481 21.78029402 94.98004435 24.89128819 93 28 C92.53400391 28.73234863 92.06800781 29.46469727 91.58789062 30.21923828 C89.45150371 33.57106555 87.29967156 36.91264782 85.13623047 40.24707031 C83.82866809 42.26432382 82.52557486 44.28443168 81.22265625 46.3046875 C80.2526953 47.80735049 79.28264433 49.30995539 78.3125 50.8125 C77.87260742 51.4943335 77.43271484 52.17616699 76.97949219 52.87866211 C76.33415527 53.87651733 76.33415527 53.87651733 75.67578125 54.89453125 C75.06975822 55.84601799 75.06975822 55.84601799 74.45149231 56.81672668 C73 59 73 59 71.45201111 61.00286865 C67.06900346 66.8575341 66.14367557 71.214723 66.265625 78.43359375 C66.25666199 79.39274185 66.24769897 80.35188995 66.23846436 81.34010315 C66.21453425 84.37321357 66.23021831 87.40438768 66.25 90.4375 C66.24855853 93.49509496 66.23874499 96.55234929 66.21868896 99.60987854 C66.2084687 101.5051464 66.21024297 103.40052439 66.22515869 105.29576111 C66.22465515 106.14747391 66.22415161 106.99918671 66.22363281 107.87670898 C66.23079315 109.00181129 66.23079315 109.00181129 66.23809814 110.14964294 C66 112 66 112 64 114 C62.15234375 114.24291992 62.15234375 114.24291992 59.9375 114.23046875 C59.14085937 114.22853516 58.34421875 114.22660156 57.5234375 114.22460938 C56.69070313 114.21236328 55.85796875 114.20011719 55 114.1875 C54.16726563 114.18685547 53.33453125 114.18621094 52.4765625 114.18554688 C46.28086515 114.14043257 46.28086515 114.14043257 44 113 C44.00954712 111.18580566 44.00954712 111.18580566 44.01928711 109.33496094 C44.03385215 104.79443012 44.00212065 100.25514397 43.95727539 95.71484375 C43.94423539 93.759809 43.94330896 91.8046507 43.95532227 89.84960938 C44.02060158 77.68900485 43.58410106 69.02350955 36 59 C34.85484308 57.20132421 33.72314638 55.39400377 32.60546875 53.578125 C31.46829514 51.8007064 30.32893412 50.02468557 29.1875 48.25 C27.96041602 46.33236484 26.73385705 44.41439364 25.5078125 42.49609375 C24.91258789 41.56522949 24.31736328 40.63436523 23.70410156 39.67529297 C21.30056793 35.90195177 18.92764428 32.10998381 16.5625 28.3125 C9.61518973 16.95309348 9.61518973 16.95309348 2.0625 6 C0 3 0 3 0 0 Z " fill="#030303" transform="translate(502,38)"/>
<path d="M0 0 C31.02 0 62.04 0 94 0 C95 9 95 9 94 19 C76.675 19.495 76.675 19.495 59 20 C58.67 50.69 58.34 81.38 58 113 C54.73188198 114.63405901 51.15000593 114.18453757 47.5625 114.1875 C46.78583984 114.19974609 46.00917969 114.21199219 45.20898438 114.22460938 C41.28767691 114.23474195 39.33381255 114.2225417 36 112 C35.71393056 109.00964694 35.62201101 106.22734562 35.65942383 103.23583984 C35.65898575 102.32846573 35.65854767 101.42109161 35.65809631 100.48622131 C35.66019161 97.47757686 35.68355756 94.46948498 35.70703125 91.4609375 C35.71262457 89.37871607 35.71689591 87.2964907 35.71989441 85.21426392 C35.73136397 79.72653353 35.76084933 74.23904031 35.79400635 68.75140381 C35.82466177 63.15461435 35.83839005 57.55778667 35.85351562 51.9609375 C35.88571703 40.97383722 35.9385022 29.98697541 36 19 C24.12 19 12.24 19 0 19 C0 12.73 0 6.46 0 0 Z " fill="#020303" transform="translate(404,38)"/>
<path d="M0 0 C6.93 0 13.86 0 21 0 C21 37.29 21 74.58 21 113 C18.72926921 114.1353654 17.45716721 114.12892412 14.9375 114.1328125 C14.14085937 114.13410156 13.34421875 114.13539063 12.5234375 114.13671875 C11.69070313 114.13285156 10.85796875 114.12898438 10 114.125 C9.16726563 114.12886719 8.33453125 114.13273437 7.4765625 114.13671875 C6.67992187 114.13542969 5.88328125 114.13414062 5.0625 114.1328125 C4.33160156 114.13168457 3.60070312 114.13055664 2.84765625 114.12939453 C1 114 1 114 -1 113 C-1.02333003 98.41428805 -1.04091327 83.82857897 -1.05181217 69.24285221 C-1.05697491 62.47089579 -1.06401718 55.69895095 -1.07543945 48.92700195 C-1.08644714 42.39775574 -1.09227625 35.86851706 -1.09487724 29.33926201 C-1.09673199 26.84206388 -1.10035354 24.34486645 -1.10573006 21.84767342 C-1.11293684 18.36335931 -1.1139911 14.87909569 -1.11352539 11.39477539 C-1.11712067 10.35108795 -1.12071594 9.30740051 -1.12442017 8.23208618 C-1.1230455 7.28832626 -1.12167084 6.34456635 -1.12025452 5.37220764 C-1.12117631 4.54720292 -1.1220981 3.7221982 -1.12304783 2.87219334 C-1 1 -1 1 0 0 Z " fill="#020203" transform="translate(371,38)"/>
<path d="M0 0 C27.72 0 55.44 0 84 0 C84 5.94 84 11.88 84 18 C83 19 83 19 80.56394958 19.12025452 C79.48251175 19.11803391 78.40107391 19.11581329 77.28686523 19.11352539 C76.0656749 19.11344986 74.84448456 19.11337433 73.58628845 19.11329651 C72.24372314 19.10818911 70.90115825 19.10297311 69.55859375 19.09765625 C68.19238842 19.09579199 66.82618243 19.09436813 65.4599762 19.09336853 C61.85798305 19.08954394 58.25603 19.07971417 54.65405273 19.06866455 C50.98096265 19.05844916 47.30786592 19.05381594 43.63476562 19.04882812 C36.42314163 19.03862203 29.21162785 19.01905038 22 19 C22 27.91 22 36.82 22 46 C25.95871094 45.98839844 29.91742188 45.97679687 33.99609375 45.96484375 C37.81192952 45.95705467 41.62776442 45.95097706 45.44360352 45.94506836 C48.10441481 45.94002617 50.76522332 45.93319264 53.42602539 45.92456055 C57.24105516 45.91248991 61.05604844 45.90677071 64.87109375 45.90234375 C66.06899033 45.89718246 67.2668869 45.89202118 68.50108337 45.88670349 C70.15268211 45.88659019 70.15268211 45.88659019 71.83764648 45.88647461 C73.2999192 45.88314369 73.2999192 45.88314369 74.79173279 45.87974548 C77 46 77 46 78 47 C78.09986975 49.84335048 78.13877881 52.65697163 78.125 55.5 C78.12886719 56.29792969 78.13273437 57.09585938 78.13671875 57.91796875 C78.12660767 63.87339233 78.12660767 63.87339233 77 65 C75.28134591 65.0935919 73.55884256 65.11744611 71.83764648 65.11352539 C70.73658066 65.11344986 69.63551483 65.11337433 68.50108337 65.11329651 C67.3031868 65.10813522 66.10529022 65.10297394 64.87109375 65.09765625 C63.65172623 65.0962413 62.4323587 65.09482635 61.17604065 65.09336853 C57.2631693 65.08774967 53.35035419 65.07519396 49.4375 65.0625 C46.79231853 65.05748743 44.14713617 65.0529241 41.50195312 65.04882812 C35.00126274 65.03862296 28.50069467 65.01905121 22 65 C22 74.24 22 83.48 22 93 C21.34 92.67 20.68 92.34 20 92 C20 82.76 20 73.52 20 64 C22.52744088 62.73627956 24.26380308 62.87977205 27.09228516 62.88647461 C28.68370834 62.88658791 28.68370834 62.88658791 30.30728149 62.88670349 C32.03076309 62.89444542 32.03076309 62.89444542 33.7890625 62.90234375 C34.96262299 62.9037587 36.13618347 62.90517365 37.3453064 62.90663147 C41.10522985 62.91224311 44.86509445 62.92479762 48.625 62.9375 C51.16926998 62.9425135 53.71354088 62.94707667 56.2578125 62.95117188 C62.50523112 62.96221633 68.75260557 62.97948881 75 63 C75.33 58.05 75.66 53.1 76 48 C74.33912354 48.00523682 72.67824707 48.01047363 70.96704102 48.01586914 C64.83016494 48.03391058 58.69329123 48.04542886 52.55639648 48.05493164 C49.89558519 48.05997383 47.23477668 48.06680736 44.57397461 48.07543945 C40.75894484 48.08751009 36.94395156 48.09322929 33.12890625 48.09765625 C31.93100967 48.10281754 30.7331131 48.10797882 29.49891663 48.11329651 C27.84731789 48.11340981 27.84731789 48.11340981 26.16235352 48.11352539 C25.18750504 48.115746 24.21265656 48.11796661 23.20826721 48.12025452 C21 48 21 48 20 47 C20 37.1 20 27.2 20 17 C40.46 17 60.92 17 82 17 C82 12.05 82 7.1 82 2 C55.6 2 29.2 2 2 2 C2.33 37.97 2.66 73.94 3 111 C29.4 111 55.8 111 83 111 C83 106.05 83 101.1 83 96 C62.21 96 41.42 96 20 96 C20 95.34 20 94.68 20 94 C41.45 94 62.9 94 85 94 C85 100.27 85 106.54 85 113 C83.24817188 114.75182812 80.95354967 114.12610303 78.61940002 114.13552856 C77.46298256 114.13249222 77.46298256 114.13249222 76.28320312 114.12939453 C75.07107399 114.13202301 75.07107399 114.13202301 73.8344574 114.13470459 C71.1500334 114.13912376 68.46567472 114.13618489 65.78125 114.1328125 C63.92419421 114.13348552 62.0671385 114.13445553 60.21008301 114.13571167 C56.31273563 114.13718873 52.41541113 114.13503382 48.51806641 114.13037109 C43.510655 114.1246738 38.50329719 114.12795276 33.49588776 114.13394356 C29.65960279 114.13754895 25.82333063 114.13641069 21.98704529 114.13381577 C20.14017226 114.13314644 18.29329808 114.13397513 16.44642639 114.13629532 C13.86985168 114.13882149 11.29336499 114.13498177 8.71679688 114.12939453 C7.9458519 114.13141876 7.17490692 114.13344299 6.38059998 114.13552856 C1.11426255 114.11426255 1.11426255 114.11426255 0 113 C-0.13069803 110.10757164 -0.1967459 107.23779558 -0.22119141 104.34375 C-0.2326973 103.43456818 -0.24420319 102.52538635 -0.25605774 101.58865356 C-0.292958 98.55913745 -0.3225029 95.52960079 -0.3515625 92.5 C-0.37468659 90.3898083 -0.398077 88.27961951 -0.42172241 86.16943359 C-0.47030753 81.72724086 -0.51519239 77.28502914 -0.55761719 72.84277344 C-0.61192062 67.19340289 -0.67586408 61.54419184 -0.74279213 55.8949585 C-0.7933475 51.52449535 -0.83827087 47.15398716 -0.88163376 42.78344727 C-0.9029824 40.70416361 -0.92609126 38.62489716 -0.9510994 36.5456543 C-0.98567074 33.60598283 -1.01250021 30.66632832 -1.03759766 27.7265625 C-1.04897263 26.89158234 -1.0603476 26.05660217 -1.07206726 25.19631958 C-1.12915115 16.73033222 -0.50115509 8.51963653 0 0 Z " fill="#313031" transform="translate(160,38)"/>
<path d="M0 0 C5.94 0 11.88 0 18 0 C18 20.13 18 40.26 18 61 C14.96576019 62.5171199 11.82495206 62.18439257 8.5 62.1875 C7.81035156 62.19974609 7.12070313 62.21199219 6.41015625 62.22460938 C4.60522506 62.22988695 2.80082158 62.12184458 1 62 C-1 60 -1 60 -1.24723816 57.52635193 C-1.24581314 56.48568069 -1.24438812 55.44500946 -1.24291992 54.37280273 C-1.24599655 53.19495712 -1.24907318 52.01711151 -1.25224304 50.80357361 C-1.24505753 49.52648026 -1.23787201 48.2493869 -1.23046875 46.93359375 C-1.23001053 45.62922867 -1.22955231 44.32486359 -1.2290802 42.98097229 C-1.22751533 40.21943851 -1.21922467 37.45803437 -1.20581055 34.6965332 C-1.18880399 31.14980046 -1.18499667 27.60321004 -1.18575573 24.05644131 C-1.18541911 20.68213957 -1.17658538 17.30788493 -1.16796875 13.93359375 C-1.16685593 12.65447617 -1.1657431 11.37535858 -1.16459656 10.05747986 C-1.15821671 8.88278641 -1.15183685 7.70809296 -1.14526367 6.49780273 C-1.14145187 5.45792709 -1.13764008 4.41805145 -1.13371277 3.34666443 C-1 1 -1 1 0 0 Z " fill="#040306" transform="translate(137,90)"/>
<path d="M0 0 C1.20247879 -0.01283524 2.40495758 -0.02567047 3.64387512 -0.03889465 C4.9572435 -0.04628159 6.27061188 -0.05366852 7.6237793 -0.0612793 C8.29190329 -0.06535482 8.96002728 -0.06943035 9.64839745 -0.07362938 C13.19593372 -0.09453421 16.743431 -0.1088074 20.29101562 -0.11816406 C23.92774094 -0.12913898 27.56383905 -0.16341969 31.20034504 -0.20333576 C34.01711518 -0.22972751 36.83374239 -0.23787641 39.65062523 -0.24144554 C41.63340917 -0.24858882 43.61609458 -0.27494871 45.59870911 -0.30183411 C59.14154844 -0.26980856 70.01084793 3.42642432 80.01049805 12.6809082 C86.25605306 19.50269002 87.70541188 28.82837903 87.52612305 37.76293945 C86.98900904 46.98339659 84.36284592 54.00637401 78.38549805 61.17700195 C73.77226691 65.25130422 69.55353431 68.27703937 63.38549805 69.17700195 C64.43737305 70.70067383 64.43737305 70.70067383 65.51049805 72.25512695 C70.57731247 79.60433867 75.60108712 86.97541099 80.53393555 94.4152832 C82.95073687 98.02009025 85.43701157 101.57321529 87.94018555 105.1184082 C91.40635207 110.05535349 91.40635207 110.05535349 91.01049805 112.36450195 C90.70112305 113.26168945 90.70112305 113.26168945 90.38549805 114.17700195 C86.78148324 114.26401234 83.17773792 114.31739583 79.57299805 114.36450195 C78.54883789 114.38963867 77.52467773 114.41477539 76.46948242 114.44067383 C75.48657227 114.4503418 74.50366211 114.46000977 73.4909668 114.4699707 C72.58499756 114.48568115 71.67902832 114.5013916 70.74560547 114.51757812 C67.83620802 114.09773645 67.17740841 113.46577868 65.38549805 111.17700195 C64.19732915 109.57595046 63.04174158 107.95050385 61.90893555 106.30981445 C61.2418457 105.34712646 60.57475586 104.38443848 59.88745117 103.39257812 C59.18555664 102.37268799 58.48366211 101.35279785 57.76049805 100.30200195 C56.32041351 98.21735298 54.88030945 96.13271749 53.44018555 94.0480957 C52.74505859 93.0398877 52.04993164 92.03167969 51.33374023 90.99291992 C49.67760983 88.59920964 48.01006496 86.21466522 46.33081055 83.8371582 C45.90751465 83.23564941 45.48421875 82.63414063 45.0480957 82.0144043 C43.96489247 80.47717468 42.87844742 78.94223082 41.79174805 77.4074707 C40.38549805 75.17700195 40.38549805 75.17700195 40.38549805 73.17700195 C32.13549805 73.17700195 23.88549805 73.17700195 15.38549805 73.17700195 C15.38549805 86.37700195 15.38549805 99.57700195 15.38549805 113.17700195 C11.96400947 114.88774624 8.15611122 114.4036545 4.38549805 114.42700195 C3.55276367 114.44762695 2.7200293 114.46825195 1.86206055 114.48950195 C1.06541992 114.4946582 0.2687793 114.49981445 -0.55200195 114.50512695 C-1.28290039 114.51447266 -2.01379883 114.52381836 -2.7668457 114.53344727 C-3.37657227 114.41582031 -3.98629883 114.29819336 -4.61450195 114.17700195 C-6.72643203 111.00910683 -6.86418224 110.26513689 -6.86174011 106.64694214 C-6.8659346 105.71870636 -6.87012909 104.79047058 -6.87445068 103.83410645 C-6.86883118 102.81788208 -6.86321167 101.80165771 -6.85742188 100.75463867 C-6.85932022 99.68291412 -6.86121857 98.61118958 -6.86317444 97.50698853 C-6.86688582 93.95681494 -6.85617395 90.40684492 -6.8449707 86.85668945 C-6.84377915 84.39714583 -6.84332569 81.93760176 -6.84358215 79.47805786 C-6.84201674 74.32152461 -6.83372157 69.16506073 -6.8203125 64.00854492 C-6.80330479 57.38246229 -6.79949862 50.75645583 -6.80025768 44.13035393 C-6.79998644 39.05192328 -6.79451295 33.97350945 -6.78725624 28.89508438 C-6.7840634 26.45092013 -6.78210074 24.00675396 -6.78136253 21.56258774 C-6.77920648 18.15521715 -6.77047875 14.74792916 -6.75976562 11.34057617 C-6.76021881 10.32030334 -6.760672 9.30003052 -6.76113892 8.24884033 C-6.75687393 7.3262442 -6.75260895 6.40364807 -6.74821472 5.45309448 C-6.74653888 4.64673491 -6.74486303 3.84037533 -6.74313641 3.00958061 C-6.46190265 -0.99698966 -3.33650708 0.03089841 0 0 Z M-3.61450195 2.17700195 C-3.61450195 38.14700195 -3.61450195 74.11700195 -3.61450195 111.17700195 C1.33549805 111.17700195 6.28549805 111.17700195 11.38549805 111.17700195 C10.72549805 110.84700195 10.06549805 110.51700195 9.38549805 110.17700195 C9.38549805 109.51700195 9.38549805 108.85700195 9.38549805 108.17700195 C10.37549805 108.50700195 11.36549805 108.83700195 12.38549805 109.17700195 C13.7807366 108.00951196 13.7807366 108.00951196 13.49902344 104.75878906 C13.49886432 103.24063207 13.49317031 101.72246966 13.4831543 100.2043457 C13.48173935 99.40670303 13.4803244 98.60906036 13.47886658 97.7872467 C13.47325121 95.2296276 13.46069617 92.67209478 13.44799805 90.11450195 C13.44298502 88.38468551 13.43842177 86.65486769 13.43432617 84.92504883 C13.42327679 80.67566642 13.40600191 76.42634884 13.38549805 72.17700195 C17.800244 71.86414945 22.21648138 71.60900592 26.63549805 71.36450195 C27.88975586 71.27491211 29.14401367 71.18532227 30.4362793 71.09301758 C32.24418945 71.00117188 32.24418945 71.00117188 34.08862305 70.9074707 C35.19882812 70.83939209 36.3090332 70.77131348 37.45288086 70.70117188 C40.38549805 71.17700195 40.38549805 71.17700195 42.67700195 73.53100586 C44.34559476 76.11520261 45.97126511 78.70106485 47.51049805 81.36450195 C49.02258324 83.97735383 50.24772819 86.03923209 52.38549805 88.17700195 C53.19382016 89.36825028 53.97334346 90.57924086 54.7331543 91.80200195 C55.39347656 92.86161133 55.39347656 92.86161133 56.06713867 93.94262695 C56.52282227 94.6799707 56.97850586 95.41731445 57.44799805 96.17700195 C57.90754883 96.9143457 58.36709961 97.65168945 58.84057617 98.41137695 C62.2307753 103.86755646 62.2307753 103.86755646 63.38549805 106.17700195 C64.04549805 106.17700195 64.70549805 106.17700195 65.38549805 106.17700195 C65.69487305 106.81637695 66.00424805 107.45575195 66.32299805 108.11450195 C67.22001435 110.11311017 67.22001435 110.11311017 68.38549805 111.17700195 C69.87421664 111.26369627 71.36694304 111.28403689 72.8581543 111.2746582 C74.20683594 111.26982422 74.20683594 111.26982422 75.58276367 111.26489258 C76.52829102 111.25651367 77.47381836 111.24813477 78.44799805 111.23950195 C79.39739258 111.23499023 80.34678711 111.23047852 81.32495117 111.22583008 C83.6785287 111.21400306 86.03198282 111.19752221 88.38549805 111.17700195 C86.30686814 106.94867788 84.19070409 102.97760369 81.38549805 99.17700195 C80.72549805 99.17700195 80.06549805 99.17700195 79.38549805 99.17700195 C78.92143555 97.75387695 78.92143555 97.75387695 78.44799805 96.30200195 C77.51155063 93.31619787 77.51155063 93.31619787 76.38549805 91.17700195 C75.72549805 91.17700195 75.06549805 91.17700195 74.38549805 91.17700195 C74.13670898 90.63688477 73.88791992 90.09676758 73.6315918 89.5402832 C72.10964253 86.65382769 70.29989468 84.05095909 68.44799805 81.36450195 C65.54530281 77.06050556 63.15691832 73.04840771 61.38549805 68.17700195 C62.02487305 67.95012695 62.66424805 67.72325195 63.32299805 67.48950195 C67.51870066 65.69134369 71.42450361 63.43796174 75.38549805 61.17700195 C75.38549805 60.51700195 75.38549805 59.85700195 75.38549805 59.17700195 C75.99006836 58.9346582 76.59463867 58.69231445 77.2175293 58.44262695 C81.78184478 55.77805359 83.88844172 50.05052197 85.19799805 45.11450195 C85.25987305 44.14512695 85.32174805 43.17575195 85.38549805 42.17700195 C85.46799805 41.02200195 85.55049805 39.86700195 85.63549805 38.67700195 C85.43515636 29.18809094 83.6544884 20.20422662 77.2956543 12.9543457 C74.2416034 10.1126419 70.73688781 7.17700195 66.38549805 7.17700195 C66.38549805 6.51700195 66.38549805 5.85700195 66.38549805 5.17700195 C57.62931244 2.53120891 49.64454502 1.76652141 40.52612305 1.8840332 C39.39803223 1.88705444 38.26994141 1.89007568 37.10766602 1.89318848 C32.95018174 1.90871818 28.79282932 1.95060013 24.63549805 1.98950195 C10.65174805 2.08231445 10.65174805 2.08231445 -3.61450195 2.17700195 Z " fill="#18171A" transform="translate(265.614501953125,37.822998046875)"/>
<path d="M0 0 C1.40668945 0.07734375 1.40668945 0.07734375 2.84179688 0.15625 C4.30649414 0.25292969 4.30649414 0.25292969 5.80078125 0.3515625 C6.78884766 0.40828125 7.77691406 0.465 8.79492188 0.5234375 C11.2351101 0.66489769 13.67426716 0.81630524 16.11328125 0.9765625 C15.47439077 6.30916838 13.77159917 10.90179338 11.80078125 15.8515625 C11.50494141 16.61597656 11.20910156 17.38039063 10.90429688 18.16796875 C9.47237303 21.81117889 7.96357963 25.35272862 6.16796875 28.83203125 C3.58739835 33.87488293 1.60609185 39.14077463 -0.44921875 44.4140625 C-4.28611735 54.13725872 -8.35912905 63.72340424 -12.61914062 73.26782227 C-16.9402993 82.99119327 -20.99615822 92.81692586 -25.00341797 102.67285156 C-25.48182129 103.84299805 -25.96022461 105.01314453 -26.453125 106.21875 C-26.87537354 107.2588623 -27.29762207 108.29897461 -27.73266602 109.37060547 C-28.88671875 111.9765625 -28.88671875 111.9765625 -30.88671875 114.9765625 C-32.94970703 115.31713867 -32.94970703 115.31713867 -35.45703125 115.26953125 C-36.35292969 115.25986328 -37.24882813 115.25019531 -38.171875 115.24023438 C-39.10902344 115.21509766 -40.04617187 115.18996094 -41.01171875 115.1640625 C-41.95660156 115.15052734 -42.90148437 115.13699219 -43.875 115.12304688 C-46.21280654 115.08762556 -48.54948112 115.03823521 -50.88671875 114.9765625 C-57.65063109 103.65540427 -61.86515984 91.4880791 -65.88671875 78.9765625 C-61.60924609 82.48652365 -60.26144134 86.49232713 -58.44921875 91.5390625 C-57.84751456 93.15326379 -57.24334665 94.76654886 -56.63671875 96.37890625 C-56.3428125 97.16249512 -56.04890625 97.94608398 -55.74609375 98.75341797 C-54.00401268 103.26006291 -51.9460701 107.60824146 -49.88671875 111.9765625 C-43.94671875 112.3065625 -38.00671875 112.6365625 -31.88671875 112.9765625 C-31.55671875 110.9965625 -31.22671875 109.0165625 -30.88671875 106.9765625 C-30.22671875 106.9765625 -29.56671875 106.9765625 -28.88671875 106.9765625 C-28.78101562 105.95820313 -28.6753125 104.93984375 -28.56640625 103.890625 C-27.8781402 99.9271619 -26.74564632 96.96606824 -25.01171875 93.3515625 C-24.49867187 92.26617187 -23.985625 91.18078125 -23.45703125 90.0625 C-21.88671875 86.9765625 -21.88671875 86.9765625 -20.296875 84.47265625 C-18.66101927 81.57705567 -17.94576812 78.89910979 -17.19921875 75.6640625 C-16.94785156 74.59542969 -16.69648437 73.52679688 -16.4375 72.42578125 C-16.25574219 71.61753906 -16.07398437 70.80929688 -15.88671875 69.9765625 C-16.54671875 69.6465625 -17.20671875 69.3165625 -17.88671875 68.9765625 C-16.23671875 68.6465625 -14.58671875 68.3165625 -12.88671875 67.9765625 C-12.74234375 67.2134375 -12.59796875 66.4503125 -12.44921875 65.6640625 C-11.88671875 62.9765625 -11.88671875 62.9765625 -10.88671875 59.9765625 C-10.22671875 59.9765625 -9.56671875 59.9765625 -8.88671875 59.9765625 C-8.73009766 58.74873047 -8.73009766 58.74873047 -8.5703125 57.49609375 C-7.76542955 53.35209639 -6.44317501 49.60137169 -4.94921875 45.6640625 C-4.68431641 44.93638672 -4.41941406 44.20871094 -4.14648438 43.45898438 C-2.13377842 38.10009233 -2.13377842 38.10009233 0.11328125 36.9765625 C0.81277784 35.06872543 0.81277784 35.06872543 1.36328125 32.7265625 C2.56676562 28.42226382 4.17079981 24.56346092 6.11328125 20.5390625 C8.86951076 14.76606437 10.62181986 9.19098497 12.11328125 2.9765625 C6.17328125 2.9765625 0.23328125 2.9765625 -5.88671875 2.9765625 C-6.21671875 4.6265625 -6.54671875 6.2765625 -6.88671875 7.9765625 C-7.63853275 9.88854991 -8.43337196 11.7839663 -9.26171875 13.6640625 C-10.88166072 17.4454699 -12.29657724 21.13570288 -13.38671875 25.1015625 C-14.34583433 28.49329523 -15.54625995 31.42730197 -17.19921875 34.5390625 C-19.54204629 39.00025505 -21.20785334 43.53192465 -22.82421875 48.2890625 C-25.00057946 54.67879592 -27.52288822 60.74287371 -30.4375 66.83984375 C-33.75422771 74.01863715 -36.42454266 81.46692543 -38.88671875 88.9765625 C-40.69921875 88.9453125 -40.69921875 88.9453125 -42.88671875 87.9765625 C-44.09059285 85.44842689 -45.01692456 83.11729432 -45.88671875 80.4765625 C-46.40153654 79.00577041 -46.91845138 77.5357106 -47.4375 76.06640625 C-47.6845166 75.35726074 -47.9315332 74.64811523 -48.18603516 73.91748047 C-49.03446695 71.56729483 -50.02047416 69.30400776 -51.07421875 67.0390625 C-52.38410469 64.20367154 -53.44294919 61.39173118 -54.38671875 58.4140625 C-55.29658146 55.5774317 -56.31531438 52.9883844 -57.69921875 50.3515625 C-59.93163894 46.06430101 -61.68418787 41.6183848 -63.453125 37.12329102 C-65.76353162 31.25366816 -68.17019302 25.42666732 -70.61450195 19.61157227 C-72.80955544 14.33629226 -72.80955544 14.33629226 -73.3503418 11.81518555 C-73.52734619 11.20843994 -73.70435059 10.60169434 -73.88671875 9.9765625 C-74.54671875 9.6465625 -75.20671875 9.3165625 -75.88671875 8.9765625 C-75.88671875 6.9965625 -75.88671875 5.0165625 -75.88671875 2.9765625 C-85.29171875 3.4715625 -85.29171875 3.4715625 -94.88671875 3.9765625 C-93.95859375 6.1421875 -93.03046875 8.3078125 -92.07421875 10.5390625 C-91.546875 11.76953125 -91.01953125 13 -90.4921875 14.23046875 C-90.22776855 14.84736572 -89.96334961 15.4642627 -89.69091797 16.09985352 C-89.15064363 17.36065767 -88.61060812 18.62156419 -88.07080078 19.88256836 C-86.85146277 22.73032964 -85.62568587 25.57476284 -84.38671875 28.4140625 C-82.77764724 32.23560732 -81.32003649 36.08612865 -79.88671875 39.9765625 C-79.22671875 39.9765625 -78.56671875 39.9765625 -77.88671875 39.9765625 C-77.93183594 40.6984375 -77.97695312 41.4203125 -78.0234375 42.1640625 C-77.86967379 45.3272017 -77.09921018 47.15073364 -75.69921875 49.9765625 C-71.38581747 59.04325867 -67.96243094 68.42566676 -64.88671875 77.9765625 C-65.54671875 77.9765625 -66.20671875 77.9765625 -66.88671875 77.9765625 C-73.53301077 62.78940327 -80.07061385 47.55936971 -86.49462891 32.27685547 C-87.92204934 28.89280261 -89.36256785 25.51453061 -90.8046875 22.13671875 C-91.72811758 19.95844057 -92.65130398 17.78005906 -93.57421875 15.6015625 C-94.00863281 14.59101807 -94.44304687 13.58047363 -94.890625 12.53930664 C-95.28507812 11.6033667 -95.67953125 10.66742676 -96.0859375 9.703125 C-96.43487061 8.88408691 -96.78380371 8.06504883 -97.14331055 7.22119141 C-97.88671875 4.9765625 -97.88671875 4.9765625 -97.88671875 0.9765625 C-90.29671875 0.9765625 -82.70671875 0.9765625 -74.88671875 0.9765625 C-70.52699564 10.33421915 -66.62057206 19.8428553 -62.76171875 29.4140625 C-62.43611969 30.21982727 -62.11052063 31.02559204 -61.77505493 31.85577393 C-57.33682561 42.83922826 -52.92720741 53.83403393 -48.57421875 64.8515625 C-48.12481934 65.98392334 -47.67541992 67.11628418 -47.21240234 68.28295898 C-45.17559845 73.46794806 -43.2780878 78.58020298 -41.88671875 83.9765625 C-41.22671875 83.9765625 -40.56671875 83.9765625 -39.88671875 83.9765625 C-39.7151123 83.44361572 -39.54350586 82.91066895 -39.36669922 82.36157227 C-37.43847498 76.46523866 -35.2860255 70.68479209 -33.01171875 64.9140625 C-32.63096191 63.94380127 -32.25020508 62.97354004 -31.85791016 61.97387695 C-27.84373147 51.78946349 -23.71161796 41.65278641 -19.56738281 31.52075195 C-17.19060696 25.70269176 -14.82612633 19.88397162 -12.60546875 14.00390625 C-12.28529785 13.15675049 -11.96512695 12.30959473 -11.63525391 11.43676758 C-11.07386829 9.93602599 -10.52074105 8.43215498 -9.97802734 6.92456055 C-7.90295516 1.36468238 -5.93328608 -0.3595931 0 0 Z " fill="#1B1B1B" transform="translate(132.88671875,37.0234375)"/>
<path d="M0 0 C8.25844243 -1.31768252 16.86135427 -2.38912052 25 0 C30.75809771 4.29367685 33.42333742 11.36641415 36.37792969 17.71191406 C39.0823187 23.1939597 42.34732897 28.32075275 45.59298706 33.49468994 C46.67595285 35.23148142 47.74005542 36.97850206 48.79907227 38.72998047 C49.77058228 40.32543701 49.77058228 40.32543701 50.76171875 41.953125 C51.33881592 42.90348633 51.91591309 43.85384766 52.51049805 44.83300781 C53.81911504 47.11112828 53.81911504 47.11112828 56 48 C56.26103516 47.29077393 56.52207031 46.58154785 56.79101562 45.85083008 C58.07462512 42.8240312 59.61112763 40.18022111 61.34375 37.38671875 C62.00882568 36.310271 62.67390137 35.23382324 63.35913086 34.12475586 C64.07261753 32.97891898 64.78624304 31.83316853 65.5 30.6875 C66.22499057 29.51784529 66.94968 28.34800386 67.67407227 27.17797852 C69.11113886 24.85864572 70.55065758 22.54086677 71.99267578 20.22460938 C73.7467828 17.40677362 75.49715687 14.58667078 77.24609375 11.765625 C78.14281508 10.32265925 79.03991376 8.87992789 79.9375 7.4375 C80.54658203 6.45753052 80.54658203 6.45753052 81.16796875 5.45776367 C83.880906 1.119094 83.880906 1.119094 85 0 C86.78071246 -0.08726223 88.5648314 -0.10699041 90.34765625 -0.09765625 C91.42724609 -0.09443359 92.50683594 -0.09121094 93.61914062 -0.08789062 C95.32360352 -0.07532227 95.32360352 -0.07532227 97.0625 -0.0625 C98.77276367 -0.05573242 98.77276367 -0.05573242 100.51757812 -0.04882812 C103.34510351 -0.03699747 106.1725264 -0.0205141 109 0 C108.34459688 3.56427297 106.86481072 6.09887438 104.9375 9.1484375 C104.31004883 10.14673584 103.68259766 11.14503418 103.03613281 12.17358398 C102.02824707 13.75828491 102.02824707 13.75828491 101 15.375 C100.31518555 16.46047119 99.63037109 17.54594238 98.92480469 18.66430664 C96.95622481 21.78029402 94.98004435 24.89128819 93 28 C92.53400391 28.73234863 92.06800781 29.46469727 91.58789062 30.21923828 C89.45150371 33.57106555 87.29967156 36.91264782 85.13623047 40.24707031 C83.82866809 42.26432382 82.52557486 44.28443168 81.22265625 46.3046875 C80.2526953 47.80735049 79.28264433 49.30995539 78.3125 50.8125 C77.87260742 51.4943335 77.43271484 52.17616699 76.97949219 52.87866211 C76.33415527 53.87651733 76.33415527 53.87651733 75.67578125 54.89453125 C75.06975822 55.84601799 75.06975822 55.84601799 74.45149231 56.81672668 C73 59 73 59 71.45201111 61.00286865 C67.06900346 66.8575341 66.14367557 71.214723 66.265625 78.43359375 C66.25666199 79.39274185 66.24769897 80.35188995 66.23846436 81.34010315 C66.21453425 84.37321357 66.23021831 87.40438768 66.25 90.4375 C66.24855853 93.49509496 66.23874499 96.55234929 66.21868896 99.60987854 C66.2084687 101.5051464 66.21024297 103.40052439 66.22515869 105.29576111 C66.22465515 106.14747391 66.22415161 106.99918671 66.22363281 107.87670898 C66.23079315 109.00181129 66.23079315 109.00181129 66.23809814 110.14964294 C66 112 66 112 64 114 C62.15234375 114.24291992 62.15234375 114.24291992 59.9375 114.23046875 C59.14085937 114.22853516 58.34421875 114.22660156 57.5234375 114.22460938 C56.69070313 114.21236328 55.85796875 114.20011719 55 114.1875 C54.16726563 114.18685547 53.33453125 114.18621094 52.4765625 114.18554688 C46.28086515 114.14043257 46.28086515 114.14043257 44 113 C44.00954712 111.18580566 44.00954712 111.18580566 44.01928711 109.33496094 C44.03385215 104.79443012 44.00212065 100.25514397 43.95727539 95.71484375 C43.94423539 93.759809 43.94330896 91.8046507 43.95532227 89.84960938 C44.02060158 77.68900485 43.58410106 69.02350955 36 59 C34.85484308 57.20132421 33.72314638 55.39400377 32.60546875 53.578125 C31.46829514 51.8007064 30.32893412 50.02468557 29.1875 48.25 C27.96041602 46.33236484 26.73385705 44.41439364 25.5078125 42.49609375 C24.91258789 41.56522949 24.31736328 40.63436523 23.70410156 39.67529297 C21.30056793 35.90195177 18.92764428 32.10998381 16.5625 28.3125 C9.61518973 16.95309348 9.61518973 16.95309348 2.0625 6 C0 3 0 3 0 0 Z M3 2 C3.66 3.32 4.32 4.64 5 6 C5.66 6 6.32 6 7 6 C7.144375 6.763125 7.28875 7.52625 7.4375 8.3125 C7.9632594 11.08172908 7.9632594 11.08172908 9 14 C9.66 14 10.32 14 11 14 C11.33 15.32 11.66 16.64 12 18 C12.66 18 13.32 18 14 18 C14.185625 18.94875 14.37125 19.8975 14.5625 20.875 C16.07357593 26.25751863 19.51308534 30.70714751 23 35 C23.66 35.33 24.32 35.66 25 36 C25.73075648 38.3140622 26.40138258 40.64828869 27 43 C28.485 42.505 28.485 42.505 30 42 C30.33 43.32 30.66 44.64 31 46 C31.66 46 32.32 46 33 46 C33.144375 46.7425 33.28875 47.485 33.4375 48.25 C33.623125 49.1575 33.80875 50.065 34 51 C34.103125 51.680625 34.20625 52.36125 34.3125 53.0625 C34.91535683 55.20197921 34.91535683 55.20197921 37 57 C39.0819403 59.0819403 39.59208304 60.14458129 40 63 C40.66 63 41.32 63 42 63 C42 63.99 42 64.98 42 66 C42.66 66 43.32 66 44 66 C45.1821725 70.732897 45.22098328 75.38993785 45.31640625 80.23828125 C45.33718735 81.11904831 45.35796844 81.99981537 45.37937927 82.90727234 C45.44453937 85.70893879 45.50360321 88.51069557 45.5625 91.3125 C45.60571715 93.21680606 45.64933244 95.12110312 45.69335938 97.02539062 C45.80018623 101.68350218 45.9015474 106.34170422 46 111 C51.61 111 57.22 111 63 111 C62.99830811 109.11680054 62.99830811 109.11680054 62.99658203 107.19555664 C63.00027381 102.50418753 63.04325433 97.81383514 63.09765625 93.12280273 C63.11574085 91.09878114 63.12339854 89.07463684 63.12011719 87.05053711 C63.11723834 84.1277919 63.15277708 81.20755223 63.1953125 78.28515625 C63.1816716 76.94397484 63.1816716 76.94397484 63.16775513 75.57569885 C63.32860173 68.50469854 65.80875924 64.54394698 70 59 C70.66941324 57.84670138 71.32067389 56.68225943 71.9375 55.5 C73.49975673 52.67367662 75.34247206 50.25841522 77.375 47.75 C80.59520523 43.71109852 82.94611699 39.52807632 85.33203125 34.9609375 C87.54889973 31.02560657 90.13442087 27.387052 92.74462891 23.70947266 C95.40808973 19.93086433 97.71039053 16.08830429 99.87109375 12.0078125 C101.6629105 8.82098271 103.84776174 5.95164104 106 3 C106 2.67 106 2.34 106 2 C95.96289589 0.87097172 95.96289589 0.87097172 86 2 C81.1137471 6.01325913 79.18950506 10.93558733 76.94921875 16.70703125 C76 19 76 19 73.9375 22 C71.85374032 24.80572084 71.85374032 24.80572084 71.5 27.75 C71.335 28.4925 71.17 29.235 71 30 C70.39671875 30.27714844 69.7934375 30.55429688 69.171875 30.83984375 C66.33718314 32.35405865 65.38094652 34.06542594 63.75 36.8125 C63.22921875 37.66457031 62.7084375 38.51664063 62.171875 39.39453125 C60.92060414 42.17652346 60.76206725 43.98798767 61 47 C60.38125 47.28875 59.7625 47.5775 59.125 47.875 C56.86674235 48.93720042 56.86674235 48.93720042 55 51 C54.34 51 53.68 51 53 51 C52.76152344 50.319375 52.52304687 49.63875 52.27734375 48.9375 C50.72827342 45.37511196 48.69757865 42.22848726 46.5625 39 C45.77144212 37.79212043 44.98106468 36.58379493 44.19140625 35.375 C43.84279541 34.84648438 43.49418457 34.31796875 43.13500977 33.7734375 C40.70429892 29.97548448 38.45245667 26.0700339 36.1875 22.171875 C35.12523769 20.36444361 34.06273089 18.55715591 33 16.75 C32.46632813 15.82703125 31.93265625 14.9040625 31.3828125 13.953125 C30.86460937 13.0765625 30.34640625 12.2 29.8125 11.296875 C29.34457031 10.49604492 28.87664063 9.69521484 28.39453125 8.87011719 C27.05378983 6.70044137 27.05378983 6.70044137 24 6 C24 4.68 24 3.36 24 2 C17.07 2 10.14 2 3 2 Z " fill="#1A191B" transform="translate(502,38)"/>
<path d="M0 0 C0.66 0 1.32 0 2 0 C2.33 31.68 2.66 63.36 3 96 C29.4 96 55.8 96 83 96 C83 91.05 83 86.1 83 81 C62.21 81 41.42 81 20 81 C20 80.34 20 79.68 20 79 C41.45 79 62.9 79 85 79 C85 85.27 85 91.54 85 98 C83.24817188 99.75182812 80.95354967 99.12610303 78.61940002 99.13552856 C77.46298256 99.13249222 77.46298256 99.13249222 76.28320312 99.12939453 C75.07107399 99.13202301 75.07107399 99.13202301 73.8344574 99.13470459 C71.1500334 99.13912376 68.46567472 99.13618489 65.78125 99.1328125 C63.92419421 99.13348552 62.0671385 99.13445553 60.21008301 99.13571167 C56.31273563 99.13718873 52.41541113 99.13503382 48.51806641 99.13037109 C43.510655 99.1246738 38.50329719 99.12795276 33.49588776 99.13394356 C29.65960279 99.13754895 25.82333063 99.13641069 21.98704529 99.13381577 C20.14017226 99.13314644 18.29329808 99.13397513 16.44642639 99.13629532 C13.86985168 99.13882149 11.29336499 99.13498177 8.71679688 99.12939453 C7.9458519 99.13141876 7.17490692 99.13344299 6.38059998 99.13552856 C1.11426255 99.11426255 1.11426255 99.11426255 0 98 C-0.13066188 95.02841519 -0.19674193 92.07886977 -0.22119141 89.10571289 C-0.2326973 88.17243668 -0.24420319 87.23916046 -0.25605774 86.27760315 C-0.29290071 83.17598827 -0.32245083 80.07435266 -0.3515625 76.97265625 C-0.3746633 74.8265299 -0.39805348 72.68040665 -0.42172241 70.5342865 C-0.47025412 66.02915048 -0.51517447 61.5239962 -0.55761719 57.01879883 C-0.61242146 51.23343985 -0.67624783 45.44822213 -0.74279213 39.66298771 C-0.7927857 35.22878977 -0.83794581 30.79455277 -0.88163376 26.36028862 C-0.90325417 24.22674412 -0.92640957 22.09321463 -0.9510994 19.95970345 C-0.9848557 16.98105279 -1.01210798 14.00241293 -1.03759766 11.02368164 C-1.04897263 10.13477234 -1.0603476 9.24586304 -1.07206726 8.33001709 C-1.11425659 2.22851318 -1.11425659 2.22851318 0 0 Z " fill="#211F23" transform="translate(160,53)"/>
<path d="M0 0 C6.93 0 13.86 0 21 0 C21 37.29 21 74.58 21 113 C18.72926921 114.1353654 17.45716721 114.12892412 14.9375 114.1328125 C14.14085937 114.13410156 13.34421875 114.13539063 12.5234375 114.13671875 C11.69070313 114.13285156 10.85796875 114.12898438 10 114.125 C9.16726563 114.12886719 8.33453125 114.13273437 7.4765625 114.13671875 C6.67992187 114.13542969 5.88328125 114.13414062 5.0625 114.1328125 C4.33160156 114.13168457 3.60070312 114.13055664 2.84765625 114.12939453 C1 114 1 114 -1 113 C-1.02333003 98.41428805 -1.04091327 83.82857897 -1.05181217 69.24285221 C-1.05697491 62.47089579 -1.06401718 55.69895095 -1.07543945 48.92700195 C-1.08644714 42.39775574 -1.09227625 35.86851706 -1.09487724 29.33926201 C-1.09673199 26.84206388 -1.10035354 24.34486645 -1.10573006 21.84767342 C-1.11293684 18.36335931 -1.1139911 14.87909569 -1.11352539 11.39477539 C-1.11712067 10.35108795 -1.12071594 9.30740051 -1.12442017 8.23208618 C-1.1230455 7.28832626 -1.12167084 6.34456635 -1.12025452 5.37220764 C-1.12117631 4.54720292 -1.1220981 3.7221982 -1.12304783 2.87219334 C-1 1 -1 1 0 0 Z M1 2 C1 37.97 1 73.94 1 111 C6.94 111.33 12.88 111.66 19 112 C19 75.7 19 39.4 19 2 C13.06 2 7.12 2 1 2 Z " fill="#262426" transform="translate(371,38)"/>
<path d="M0 0 C3 0.1875 3 0.1875 5 1.1875 C5.02465288 5.86889254 5.04283739 10.55024759 5.05493164 15.23168945 C5.05997157 16.82544614 5.0668035 18.41919819 5.07543945 20.01293945 C5.08751999 22.29900253 5.09323155 24.58500467 5.09765625 26.87109375 C5.10281754 27.58776718 5.10797882 28.30444061 5.11329651 29.04283142 C5.11349263 30.75813672 5.06192007 32.47331266 5 34.1875 C3.2537612 35.9337388 1.00121676 35.31971151 -1.32226562 35.32421875 C-2.02029297 35.32035156 -2.71832031 35.31648438 -3.4375 35.3125 C-4.47874023 35.31830078 -4.47874023 35.31830078 -5.54101562 35.32421875 C-10.74672012 35.31413994 -10.74672012 35.31413994 -13 34.1875 C-14.52160861 22.41616673 -10.58356641 12.43727186 -5 2.1875 C-3 0.1875 -3 0.1875 0 0 Z " fill="#050506" transform="translate(126,116.8125)"/>
<path d="M0 0 C31.02 0 62.04 0 94 0 C95 9 95 9 94 19 C76.675 19.495 76.675 19.495 59 20 C58.67 32.54 58.34 45.08 58 58 C57.01 57.505 57.01 57.505 56 57 C55.67 43.8 55.34 30.6 55 17 C67.21 17 79.42 17 92 17 C92 12.05 92 7.1 92 2 C62.3 2 32.6 2 2 2 C2 6.95 2 11.9 2 17 C4.27519531 16.98839844 6.55039062 16.97679688 8.89453125 16.96484375 C11.09871277 16.95704443 13.30289276 16.95097264 15.50708008 16.94506836 C17.0386626 16.9400404 18.57024033 16.93321716 20.10180664 16.92456055 C22.30356022 16.91242771 24.50525033 16.90675633 26.70703125 16.90234375 C27.39150833 16.89718246 28.07598541 16.89202118 28.78120422 16.88670349 C31.80906242 16.8863464 34.10150142 17.03383381 37 18 C36.67 18.66 36.34 19.32 36 20 C24.12 19.67 12.24 19.34 0 19 C0 12.73 0 6.46 0 0 Z " fill="#2E2D2E" transform="translate(404,38)"/>
<path d="M0 0 C0.66 0 1.32 0 2 0 C2 0.66 2 1.32 2 2 C2.66 2.33 3.32 2.66 4 3 C6.1462701 6.71469824 7 8.64144712 7 13 C7.99 13.33 8.98 13.66 10 14 C12 17 12 17 12 21 C12.66 21 13.32 21 14 21 C14 21.99 14 22.98 14 24 C14.66 24 15.32 24 16 24 C18.4280425 28.72586127 18.25824478 33.06141057 18.1953125 38.23828125 C18.1924826 39.11904831 18.18965271 39.99981537 18.18673706 40.90727234 C18.17557833 43.70915545 18.15048171 46.51071416 18.125 49.3125 C18.11496463 51.21679225 18.10583975 53.12108952 18.09765625 55.02539062 C18.07565309 59.68371797 18.04115294 64.34180406 18 69 C18.97582031 68.91621094 19.95164062 68.83242187 20.95703125 68.74609375 C22.22933594 68.64425781 23.50164063 68.54242188 24.8125 68.4375 C26.07707031 68.33308594 27.34164062 68.22867188 28.64453125 68.12109375 C32 68 32 68 35 69 C34.83675735 68.42124115 34.67351471 67.8424823 34.50532532 67.2461853 C33.691394 63.62823762 33.91480876 59.97665693 33.98046875 56.2890625 C33.99459305 55.44330658 34.00871735 54.59755066 34.02326965 53.72616577 C34.05633475 51.93912646 34.09268184 50.15214528 34.13208008 48.36523438 C34.18715835 45.64189293 34.21581971 42.91904549 34.24414062 40.1953125 C34.27960929 38.45569494 34.31666681 36.7161089 34.35546875 34.9765625 C34.35983444 34.16700104 34.36420013 33.35743958 34.36869812 32.52334595 C34.52607437 27.25985813 35.51671197 24.1796193 39 20 C39.66 19.67 40.32 19.34 41 19 C41.2475 18.154375 41.495 17.30875 41.75 16.4375 C43.38112992 11.95189272 46.02459648 8.68650625 49 5 C49.66 5.99 50.32 6.98 51 8 C50.30132813 9.04800781 49.60265625 10.09601563 48.8828125 11.17578125 C48.44066406 11.83900391 47.99851562 12.50222656 47.54296875 13.18554688 C46.15625 15.265625 44.76953125 17.34570312 43.3828125 19.42578125 C42.97434082 20.03848877 42.56586914 20.65119629 42.14501953 21.2824707 C41.09667969 22.85498047 40.04833984 24.42749023 39 26 C38.68762408 28.06363084 38.68762408 28.06363084 38.71289062 30.34790039 C38.69276917 31.65924706 38.69276917 31.65924706 38.67224121 32.99708557 C38.66696411 33.9377739 38.66168701 34.87846222 38.65625 35.84765625 C38.6416272 36.81529404 38.62700439 37.78293182 38.61193848 38.77989197 C38.54958511 42.92482392 38.50999282 47.06990529 38.46826172 51.21508789 C38.43461179 54.23860552 38.38948372 57.26180126 38.34375 60.28515625 C38.3384729 61.2278688 38.3331958 62.17058136 38.32775879 63.14186096 C38.30763733 64.44847939 38.30763733 64.44847939 38.28710938 65.78149414 C38.27981812 66.54965958 38.27252686 67.31782501 38.26501465 68.10926819 C38 70 38 70 36 72 C34.15234375 72.24291992 34.15234375 72.24291992 31.9375 72.23046875 C31.14085937 72.22853516 30.34421875 72.22660156 29.5234375 72.22460938 C28.69070313 72.21236328 27.85796875 72.20011719 27 72.1875 C26.16726563 72.18685547 25.33453125 72.18621094 24.4765625 72.18554688 C18.28086515 72.14043257 18.28086515 72.14043257 16 71 C16.00636475 69.79053711 16.01272949 68.58107422 16.01928711 67.33496094 C16.03385215 62.79443012 16.00212065 58.25514397 15.95727539 53.71484375 C15.94423539 51.759809 15.94330896 49.8046507 15.95532227 47.84960938 C16.02111442 35.59347082 15.71083945 26.98065713 8 17 C7.0945383 15.63001317 6.19751769 14.25437553 5.3125 12.87109375 C4.1426377 11.12407348 2.96365776 9.38483259 1.76953125 7.65429688 C0.76969267 6.15112659 -0.12522136 4.57922779 -1 3 C-0.67 2.01 -0.34 1.02 0 0 Z " fill="#110F13" transform="translate(530,80)"/>
<path d="M0 0 C1.20247879 -0.01283524 2.40495758 -0.02567047 3.64387512 -0.03889465 C4.9572435 -0.04628159 6.27061188 -0.05366852 7.6237793 -0.0612793 C8.29190329 -0.06535482 8.96002728 -0.06943035 9.64839745 -0.07362938 C13.19593372 -0.09453421 16.743431 -0.1088074 20.29101562 -0.11816406 C23.92774094 -0.12913898 27.56383905 -0.16341969 31.20034504 -0.20333576 C34.01711518 -0.22972751 36.83374239 -0.23787641 39.65062523 -0.24144554 C41.63340917 -0.24858882 43.61609458 -0.27494871 45.59870911 -0.30183411 C55.93419031 -0.27739318 65.58621717 1.46910352 74.07299805 7.73950195 C75.28536133 8.60768555 75.28536133 8.60768555 76.5222168 9.4934082 C78.38549805 11.17700195 78.38549805 11.17700195 79.38549805 14.17700195 C76.41766676 12.72031412 73.52134492 11.16468109 70.63549805 9.55200195 C69.8362793 9.10598633 69.03706055 8.6599707 68.21362305 8.20043945 C67.6103418 7.86270508 67.00706055 7.5249707 66.38549805 7.17700195 C66.38549805 6.51700195 66.38549805 5.85700195 66.38549805 5.17700195 C65.33362305 5.03262695 64.28174805 4.88825195 63.19799805 4.73950195 C61.12807481 4.43410344 59.05875538 4.10499247 57.01545715 3.65467834 C54.13368308 3.1312651 51.42206765 3.01633962 48.49365234 2.97167969 C47.33282639 2.95173447 46.17200043 2.93178925 44.97599792 2.91123962 C43.73312515 2.89452713 42.49025238 2.87781464 41.2097168 2.8605957 C39.28927299 2.82942406 39.28927299 2.82942406 37.33003235 2.79762268 C33.93860076 2.74262623 30.5471107 2.69311883 27.15557861 2.64477539 C23.68984826 2.59439579 20.22420202 2.53879594 16.75854492 2.48364258 C9.96759644 2.37662766 3.17658474 2.27483061 -3.61450195 2.17700195 C-3.60926514 3.40064453 -3.60402832 4.62428711 -3.59863281 5.88500977 C-3.48423934 35.33238253 -3.79001142 64.74093561 -4.61450195 94.17700195 C-5.60450195 94.67200195 -5.60450195 94.67200195 -6.61450195 95.17700195 C-6.63762361 82.93819866 -6.65541613 70.69940052 -6.66631413 58.46057987 C-6.67154334 52.77823683 -6.67864169 47.09590869 -6.68994141 41.41357422 C-6.70076892 35.93471059 -6.7067785 30.45586133 -6.7093792 24.97698784 C-6.71123369 22.88170584 -6.71485477 20.78642467 -6.72023201 18.69114876 C-6.72744063 15.76722612 -6.72849297 12.84336362 -6.72802734 9.91943359 C-6.73162262 9.04405945 -6.7352179 8.1686853 -6.73892212 7.26678467 C-6.72714795 0.48059599 -6.71973321 0.06222948 0 0 Z " fill="#232025" transform="translate(265.614501953125,37.822998046875)"/>
<path d="M0 0 C1.32 0 2.64 0 4 0 C3.99777939 1.1333931 3.99555878 2.26678619 3.99327087 3.43452454 C3.97302092 14.10279386 3.95801889 24.77105929 3.94818783 35.43934345 C3.94296373 40.9243328 3.93587462 46.40930667 3.92456055 51.89428711 C3.91371493 57.18512818 3.90771959 62.47595433 3.90512276 67.76680565 C3.90327154 69.78786644 3.89965671 71.80892639 3.89426994 73.82998085 C3.88703734 76.65530808 3.88601001 79.48057324 3.88647461 82.3059082 C3.88287933 83.14603958 3.87928406 83.98617096 3.87557983 84.85176086 C3.88148553 88.15895238 3.94666933 90.840008 5 94 C10.61 94 16.22 94 22 94 C21.67 92.68 21.34 91.36 21 90 C21.33 89.67 21.66 89.34 22 89 C22.09319449 87.4651703 22.117458 85.92607918 22.11352539 84.38842773 C22.11341209 82.91701576 22.11341209 82.91701576 22.11329651 81.4158783 C22.10555458 79.81589745 22.10555458 79.81589745 22.09765625 78.18359375 C22.0962413 77.0974025 22.09482635 76.01121124 22.09336853 74.8921051 C22.08775048 71.40720925 22.07519492 67.92237658 22.0625 64.4375 C22.05748733 62.08138113 22.05292402 59.72526126 22.04882812 57.36914062 C22.03777519 51.57940536 22.02101951 45.78970719 22 40 C22.66 40.33 23.32 40.66 24 41 C24 59.15 24 77.3 24 96 C20.73188198 97.63405901 17.15000593 97.18453757 13.5625 97.1875 C12.78583984 97.19974609 12.00917969 97.21199219 11.20898438 97.22460938 C7.28767691 97.23474195 5.33381255 97.2225417 2 95 C1.7085784 92.05025772 1.6115556 89.31084508 1.64355469 86.359375 C1.64151031 85.46496704 1.63946594 84.57055908 1.63735962 83.64904785 C1.63434315 80.68249291 1.65285468 77.71648919 1.671875 74.75 C1.67493122 72.69498838 1.67680838 70.6399747 1.67755127 68.58496094 C1.68215979 64.27400816 1.69660668 59.96324161 1.71875 55.65234375 C1.74703278 50.11705861 1.75796088 44.58192035 1.7624321 39.04656982 C1.76658262 34.80190552 1.77639704 30.55727113 1.78830719 26.31262207 C1.79401815 24.27120199 1.79877411 22.22977902 1.80257416 20.18835449 C1.80942426 17.33905954 1.82305081 14.48988249 1.83886719 11.640625 C1.83998505 10.7906897 1.84110291 9.94075439 1.84225464 9.06506348 C1.88530923 3.22938153 1.88530923 3.22938153 3 1 C2.01 0.67 1.02 0.34 0 0 Z " fill="#161418" transform="translate(438,55)"/>
<path d="M0 0 C0.75884491 -0.0033284 1.51768982 -0.0066568 2.29953003 -0.01008606 C3.91192009 -0.01516141 5.52432071 -0.0174942 7.13671875 -0.01733398 C9.58611865 -0.01950373 12.0350559 -0.03760575 14.484375 -0.05664062 C16.0520818 -0.05957791 17.61979073 -0.06156046 19.1875 -0.0625 C19.91381622 -0.06968552 20.64013245 -0.07687103 21.38845825 -0.08427429 C29.2866644 -0.04940929 35.62883066 1.77428649 41.4921875 7.16796875 C45.75259185 12.66526469 45.08478345 19.53935976 44.4921875 26.16796875 C42.78465214 32.03762153 38.56340284 35.08437261 33.4921875 38.16796875 C29.09865947 40.38605564 24.98372647 40.44409498 20.1640625 40.3984375 C18.97964569 40.39775017 18.97964569 40.39775017 17.77130127 40.39704895 C16.11053963 40.39403876 14.4497805 40.38618955 12.7890625 40.3737793 C10.23687853 40.35543058 7.6850558 40.35327041 5.1328125 40.35351562 C3.51822601 40.34860348 1.90364198 40.34277648 0.2890625 40.3359375 C-0.86085175 40.33426826 -0.86085175 40.33426826 -2.03399658 40.33256531 C-7.39173256 40.28404869 -7.39173256 40.28404869 -8.5078125 39.16796875 C-8.60884505 36.36803278 -8.64751338 33.59328231 -8.640625 30.79296875 C-8.64158173 29.95330566 -8.64253845 29.11364258 -8.64352417 28.24853516 C-8.64420598 26.4697258 -8.64235167 24.69091398 -8.63818359 22.91210938 C-8.63283533 20.17963099 -8.63812855 17.44731699 -8.64453125 14.71484375 C-8.64387047 12.99088505 -8.64258931 11.26692646 -8.640625 9.54296875 C-8.64264923 8.72006348 -8.64467346 7.8971582 -8.64675903 7.04931641 C-8.6147055 -0.65336214 -7.05809414 0.01063618 0 0 Z M-6.5078125 2.16796875 C-6.53246348 7.13419224 -6.55064899 12.10038041 -6.56274414 17.06665039 C-6.5677844 18.75741191 -6.57461655 20.44816904 -6.58325195 22.13891602 C-6.59533107 24.56397582 -6.60104373 26.98897819 -6.60546875 29.4140625 C-6.61063004 30.17448349 -6.61579132 30.93490448 -6.62110901 31.71836853 C-6.62130488 33.53529445 -6.56978527 35.35210002 -6.5078125 37.16796875 C-4.21056178 39.46521947 1.39429401 38.33950221 4.44921875 38.35351562 C5.1138916 38.35343506 5.77856445 38.35335449 6.46337891 38.35327148 C8.45609659 38.35542966 10.44877536 38.3738541 12.44140625 38.39257812 C26.01177599 38.5152729 26.01177599 38.5152729 37.98046875 32.7734375 C41.44152314 29.09774408 43.31652175 24.83369655 43.6484375 19.796875 C43.30263515 14.67035517 42.05593202 10.99247506 38.4921875 7.16796875 C29.90892752 0.7261594 20.53309597 1.583351 10.3671875 1.85546875 C8.72659669 1.88059638 7.08596858 1.90340163 5.4453125 1.92382812 C1.46000268 1.97844077 -2.52348512 2.06445905 -6.5078125 2.16796875 Z " fill="#29282A" transform="translate(287.5078125,54.83203125)"/>
<path d="M0 0 C5.94 0 11.88 0 18 0 C18 20.13 18 40.26 18 61 C14.96576019 62.5171199 11.82495206 62.18439257 8.5 62.1875 C7.81035156 62.19974609 7.12070313 62.21199219 6.41015625 62.22460938 C4.60522506 62.22988695 2.80082158 62.12184458 1 62 C-1 60 -1 60 -1.24723816 57.52635193 C-1.24581314 56.48568069 -1.24438812 55.44500946 -1.24291992 54.37280273 C-1.24599655 53.19495712 -1.24907318 52.01711151 -1.25224304 50.80357361 C-1.24505753 49.52648026 -1.23787201 48.2493869 -1.23046875 46.93359375 C-1.23001053 45.62922867 -1.22955231 44.32486359 -1.2290802 42.98097229 C-1.22751533 40.21943851 -1.21922467 37.45803437 -1.20581055 34.6965332 C-1.18880399 31.14980046 -1.18499667 27.60321004 -1.18575573 24.05644131 C-1.18541911 20.68213957 -1.17658538 17.30788493 -1.16796875 13.93359375 C-1.16685593 12.65447617 -1.1657431 11.37535858 -1.16459656 10.05747986 C-1.15821671 8.88278641 -1.15183685 7.70809296 -1.14526367 6.49780273 C-1.14145187 5.45792709 -1.13764008 4.41805145 -1.13371277 3.34666443 C-1 1 -1 1 0 0 Z M1 2 C1 20.81 1 39.62 1 59 C5.95 59 10.9 59 16 59 C16 40.19 16 21.38 16 2 C11.05 2 6.1 2 1 2 Z " fill="#1C1B1F" transform="translate(137,90)"/>
<path d="M0 0 C5.48954669 4.54307312 7.29527213 11.09366685 8 18 C8.71418608 29.53856879 6.53488572 38.96089716 -1 48 C-5.61323114 52.07430227 -9.83196374 55.10003741 -16 56 C-15.29875 57.01578125 -14.5975 58.0315625 -13.875 59.078125 C-8.80818558 66.42733672 -3.78441093 73.79840903 1.1484375 81.23828125 C3.56523883 84.84308829 6.05151352 88.39621333 8.5546875 91.94140625 C9.72696898 93.61111528 10.86833382 95.30250073 12 97 C11.67 98.32 11.34 99.64 11 101 C4.07 101 -2.86 101 -10 101 C-10 100.34 -10 99.68 -10 99 C-1.585 98.505 -1.585 98.505 7 98 C7 93.49079856 4.59821302 90.58132065 2 87 C1.071875 86.0925 0.14375 85.185 -0.8125 84.25 C-3 82 -3 82 -3 78 C-3.66 78 -4.32 78 -5 78 C-6.44526736 76.26451831 -7.8087222 74.46024037 -9.125 72.625 C-9.84945313 71.62726563 -10.57390625 70.62953125 -11.3203125 69.6015625 C-13 67 -13 67 -13 65 C-13.66 64.67 -14.32 64.34 -15 64 C-18 58.69230769 -18 58.69230769 -18 55 C-16.5839401 54.20724852 -15.16712447 53.41584688 -13.75 52.625 C-12.96109375 52.18414062 -12.1721875 51.74328125 -11.359375 51.2890625 C-9.87834595 50.479891 -8.37980126 49.70121813 -6.859375 48.96875 C-1.18475621 46.01222593 1.73124233 40.72861311 4 35 C6.3505451 25.59781959 4.7414734 16.16080823 2 7 C1.0029912 5.6644285 0.0037638 4.33050216 -1 3 C-0.67 2.01 -0.34 1.02 0 0 Z " fill="#1C1B1D" transform="translate(345,51)"/>
<path d="M0 0 C0.33 0 0.66 0 1 0 C2.36108343 11.7053175 -5.8537162 24.28521903 -10.47753906 34.68164062 C-14.8768428 44.61023649 -19.02561616 54.63431955 -23.11547852 64.69335938 C-23.83368774 66.4500293 -23.83368774 66.4500293 -24.56640625 68.2421875 C-25.19977905 69.80235596 -25.19977905 69.80235596 -25.84594727 71.39404297 C-27 74 -27 74 -29 77 C-31.06298828 77.34057617 -31.06298828 77.34057617 -33.5703125 77.29296875 C-34.46621094 77.28330078 -35.36210938 77.27363281 -36.28515625 77.26367188 C-37.22230469 77.23853516 -38.15945312 77.21339844 -39.125 77.1875 C-40.06988281 77.17396484 -41.01476562 77.16042969 -41.98828125 77.14648438 C-44.32608779 77.11106306 -46.66276237 77.06167271 -49 77 C-55.76391234 65.67884177 -59.97844109 53.5115166 -64 41 C-59.72252734 44.50996115 -58.37472259 48.51576463 -56.5625 53.5625 C-55.96079581 55.17670129 -55.3566279 56.78998636 -54.75 58.40234375 C-54.45609375 59.18593262 -54.1621875 59.96952148 -53.859375 60.77685547 C-52.11729393 65.28350041 -50.05935135 69.63167896 -48 74 C-42.06 74.33 -36.12 74.66 -30 75 C-29.67 73.02 -29.34 71.04 -29 69 C-28.34 69 -27.68 69 -27 69 C-26.89429688 67.98164063 -26.78859375 66.96328125 -26.6796875 65.9140625 C-25.99142145 61.9505994 -24.85892757 58.98950574 -23.125 55.375 C-22.61195312 54.28960937 -22.09890625 53.20421875 -21.5703125 52.0859375 C-20 49 -20 49 -18.41015625 46.49609375 C-16.77430052 43.60049317 -16.05904937 40.92254729 -15.3125 37.6875 C-14.93544922 36.08455078 -14.93544922 36.08455078 -14.55078125 34.44921875 C-14.36902344 33.64097656 -14.18726563 32.83273438 -14 32 C-14.66 31.67 -15.32 31.34 -16 31 C-14.35 30.67 -12.7 30.34 -11 30 C-10.855625 29.236875 -10.71125 28.47375 -10.5625 27.6875 C-10 25 -10 25 -9 22 C-8.34 22 -7.68 22 -7 22 C-6.89816406 21.18273437 -6.79632813 20.36546875 -6.69140625 19.5234375 C-5.8706936 15.34104875 -4.48095009 11.5856863 -2.9375 7.625 C-2.65583984 6.88894531 -2.37417969 6.15289062 -2.08398438 5.39453125 C-1.39433382 3.5944264 -0.69786068 1.7969379 0 0 Z " fill="#141416" transform="translate(131,75)"/>
<path d="M0 0 C1.41152344 0.07250977 1.41152344 0.07250977 2.8515625 0.14648438 C3.83640625 0.20255859 4.82125 0.25863281 5.8359375 0.31640625 C6.82851562 0.36861328 7.82109375 0.42082031 8.84375 0.47460938 C11.29978318 0.60449574 13.7554311 0.73946789 16.2109375 0.87890625 C15.57204702 6.21151213 13.86925542 10.80413713 11.8984375 15.75390625 C11.60259766 16.51832031 11.30675781 17.28273438 11.00195312 18.0703125 C9.24980514 22.52826137 7.29753723 26.8085078 5.11450195 31.07080078 C3.92287213 33.45534833 2.92675672 35.89537111 1.9609375 38.37890625 C1.62578125 39.23484375 1.290625 40.09078125 0.9453125 40.97265625 C0.70296875 41.60171875 0.460625 42.23078125 0.2109375 42.87890625 C-0.1190625 42.87890625 -0.4490625 42.87890625 -0.7890625 42.87890625 C-1.18894821 38.34686823 0.14309398 35.8614197 2.2109375 31.87890625 C2.96798546 29.77029245 3.64180903 27.64169688 4.32421875 25.5078125 C5.7400288 21.31027874 7.39559336 17.20734473 9.02734375 13.08984375 C10.26043255 9.74463255 11.23149037 6.3069712 12.2109375 2.87890625 C6.2709375 2.87890625 0.3309375 2.87890625 -5.7890625 2.87890625 C-6.1190625 4.52890625 -6.4490625 6.17890625 -6.7890625 7.87890625 C-7.5408765 9.79089366 -8.33571571 11.68631005 -9.1640625 13.56640625 C-10.78400447 17.34781365 -12.19892099 21.03804663 -13.2890625 25.00390625 C-14.24817808 28.39563898 -15.4486037 31.32964572 -17.1015625 34.44140625 C-19.42428837 38.86498567 -21.06918937 43.34773431 -22.6640625 48.06640625 C-25.45644807 56.30629295 -28.95140088 64.0786887 -32.7890625 71.87890625 C-33.4490625 71.87890625 -34.1090625 71.87890625 -34.7890625 71.87890625 C-32.49131351 64.78617626 -29.91656195 57.83152829 -27.2265625 50.87890625 C-26.79255127 49.75476318 -26.35854004 48.63062012 -25.91137695 47.47241211 C-22.80386374 39.44723267 -19.65900374 31.43716123 -16.4765625 23.44140625 C-16.08073975 22.44302734 -15.68491699 21.44464844 -15.27709961 20.41601562 C-6.95600011 -0.37713254 -6.95600011 -0.37713254 0 0 Z " fill="#222022" transform="translate(132.7890625,37.12109375)"/>
<path d="M0 0 C0.99 0.495 0.99 0.495 2 1 C2.16794307 5.62624118 2.32846718 10.25265855 2.48217773 14.87939453 C2.53548564 16.45270683 2.59080589 18.02595231 2.64819336 19.59912109 C2.73041829 21.86280919 2.8053589 24.12664038 2.87890625 26.390625 C2.91945885 27.44240936 2.91945885 27.44240936 2.96083069 28.51544189 C3.06628588 31.98079847 2.85170485 34.59318058 2 38 C7.61 38 13.22 38 19 38 C19.33 25.79 19.66 13.58 20 1 C20.33 1 20.66 1 21 1 C21.91045727 5.63104563 22.13279048 10.10177427 22.09765625 14.8046875 C22.0962413 15.5286673 22.09482635 16.25264709 22.09336853 16.99856567 C22.08781075 19.29075407 22.07526633 21.58284157 22.0625 23.875 C22.05747953 25.43749858 22.05291759 26.99999871 22.04882812 28.5625 C22.03785519 32.37503835 22.0206201 36.18750212 22 40 C19.72926921 41.1353654 18.45716721 41.12892412 15.9375 41.1328125 C15.14085937 41.13410156 14.34421875 41.13539063 13.5234375 41.13671875 C12.69070313 41.13285156 11.85796875 41.12898438 11 41.125 C9.75089844 41.13080078 9.75089844 41.13080078 8.4765625 41.13671875 C7.67992187 41.13542969 6.88328125 41.13414062 6.0625 41.1328125 C5.33160156 41.13168457 4.60070312 41.13055664 3.84765625 41.12939453 C2 41 2 41 0 40 C0 26.8 0 13.6 0 0 Z " fill="#131313" transform="translate(370,111)"/>
<path d="M0 0 C1.20247879 -0.01283524 2.40495758 -0.02567047 3.64387512 -0.03889465 C4.9572435 -0.04628159 6.27061188 -0.05366852 7.6237793 -0.0612793 C8.29190329 -0.06535482 8.96002728 -0.06943035 9.64839745 -0.07362938 C13.19593372 -0.09453421 16.743431 -0.1088074 20.29101562 -0.11816406 C23.92774094 -0.12913898 27.56383905 -0.16341969 31.20034504 -0.20333576 C34.01711518 -0.22972751 36.83374239 -0.23787641 39.65062523 -0.24144554 C41.63340917 -0.24858882 43.61609458 -0.27494871 45.59870911 -0.30183411 C55.93419031 -0.27739318 65.58621717 1.46910352 74.07299805 7.73950195 C75.28536133 8.60768555 75.28536133 8.60768555 76.5222168 9.4934082 C78.38549805 11.17700195 78.38549805 11.17700195 79.38549805 14.17700195 C76.41766676 12.72031412 73.52134492 11.16468109 70.63549805 9.55200195 C69.8362793 9.10598633 69.03706055 8.6599707 68.21362305 8.20043945 C67.6103418 7.86270508 67.00706055 7.5249707 66.38549805 7.17700195 C66.38549805 6.51700195 66.38549805 5.85700195 66.38549805 5.17700195 C65.33362305 5.03262695 64.28174805 4.88825195 63.19799805 4.73950195 C61.12993827 4.43437838 59.06242349 4.1056281 57.02119446 3.65467834 C54.10771421 3.12665823 51.36243419 3.01605667 48.40185547 2.97167969 C47.22100876 2.95173447 46.04016205 2.93178925 44.8235321 2.91123962 C42.92641228 2.88617088 42.92641228 2.88617088 40.9909668 2.8605957 C39.03722893 2.82942406 39.03722893 2.82942406 37.04402161 2.79762268 C33.59340542 2.74262011 30.1427317 2.69311536 26.6920166 2.64477539 C23.16596399 2.59440031 19.63999417 2.53879808 16.11401367 2.48364258 C9.20457886 2.37632815 2.29506684 2.27530818 -4.61450195 2.17700195 C-4.61450195 5.80700195 -4.61450195 9.43700195 -4.61450195 13.17700195 C-6.61450195 11.17700195 -6.61450195 11.17700195 -6.8449707 8.8293457 C-6.83079102 7.93344727 -6.81661133 7.03754883 -6.80200195 6.11450195 C-6.79555664 5.21602539 -6.78911133 4.31754883 -6.7824707 3.3918457 C-6.45217687 -0.96342419 -3.79553608 0.03514935 0 0 Z " fill="#2B2A2C" transform="translate(265.614501953125,37.822998046875)"/>
<path d="M0 0 C0.495 1.485 0.495 1.485 1 3 C1.66 3 2.32 3 3 3 C2.67 7.62 2.34 12.24 2 17 C-15.325 17.495 -15.325 17.495 -33 18 C-33.33 30.54 -33.66 43.08 -34 56 C-34.66 55.67 -35.32 55.34 -36 55 C-36.33 41.8 -36.66 28.6 -37 15 C-24.79 15 -12.58 15 0 15 C0 10.05 0 5.1 0 0 Z " fill="#2E2D2F" transform="translate(496,40)"/>
<path d="M0 0 C5.24665074 6.29598089 7.70096392 13.72628719 10.0703125 21.4609375 C10.84342362 24.12400441 10.84342362 24.12400441 13 26 C13.71927295 28.31765729 14.3909893 30.65095874 15 33 C15.66 33 16.32 33 17 33 C16.95488281 33.721875 16.90976562 34.44375 16.86328125 35.1875 C17.01704496 38.3506392 17.78750857 40.17417114 19.1875 43 C23.50090128 52.06669617 26.92428781 61.44910426 30 71 C29.34 71 28.68 71 28 71 C21.77901052 56.7846815 15.6479788 42.53415657 9.6328125 28.23046875 C7.94542182 24.22121364 6.23326459 20.22450421 4.4921875 16.23828125 C4.11143066 15.35881836 3.73067383 14.47935547 3.33837891 13.57324219 C2.63221942 11.94422824 1.91877071 10.3183474 1.19677734 8.69628906 C-1.11233731 3.33701194 -1.11233731 3.33701194 0 0 Z " fill="#181719" transform="translate(38,44)"/>
<path d="M0 0 C1.98 0 3.96 0 6 0 C6.02465288 4.68139254 6.04283739 9.36274759 6.05493164 14.04418945 C6.05997157 15.63794614 6.0668035 17.23169819 6.07543945 18.82543945 C6.08751999 21.11150253 6.09323155 23.39750467 6.09765625 25.68359375 C6.10281754 26.40026718 6.10797882 27.11694061 6.11329651 27.85533142 C6.11349263 29.57063672 6.06192007 31.28581266 6 33 C4.2537612 34.7462388 2.00121676 34.13221151 -0.32226562 34.13671875 C-1.02029297 34.13285156 -1.71832031 34.12898438 -2.4375 34.125 C-3.47874023 34.13080078 -3.47874023 34.13080078 -4.54101562 34.13671875 C-9.74672012 34.12663994 -9.74672012 34.12663994 -12 33 C-13.56825289 20.86782136 -9.12384251 11.72974866 -4 1 C-3.67 1 -3.34 1 -3 1 C-3.32601238 5.78151495 -4.52224917 9.37273015 -6.5 13.75 C-9.07600445 19.629526 -9.74769189 24.60819467 -10 31 C-3.07 31.495 -3.07 31.495 4 32 C4 21.77 4 11.54 4 1 C2.68 0.67 1.36 0.34 0 0 Z " fill="#1C1B1E" transform="translate(125,118)"/>
<path d="M0 0 C5.48954669 4.54307312 7.29527213 11.09366685 8 18 C8.71418608 29.53856879 6.53488572 38.96089716 -1 48 C-5.61323114 52.07430227 -9.83196374 55.10003741 -16 56 C-15.34 57.65 -14.68 59.3 -14 61 C-16 59.6875 -16 59.6875 -18 58 C-18 57.01 -18 56.02 -18 55 C-16.5839401 54.20724852 -15.16712447 53.41584688 -13.75 52.625 C-12.96109375 52.18414062 -12.1721875 51.74328125 -11.359375 51.2890625 C-9.87834595 50.479891 -8.37980126 49.70121813 -6.859375 48.96875 C-1.18475621 46.01222593 1.73124233 40.72861311 4 35 C6.3505451 25.59781959 4.7414734 16.16080823 2 7 C1.0029912 5.6644285 0.0037638 4.33050216 -1 3 C-0.67 2.01 -0.34 1.02 0 0 Z " fill="#232122" transform="translate(345,51)"/>
<path d="M0 0 C0.91644287 0.00523682 1.83288574 0.01047363 2.77709961 0.01586914 C4.26113281 0.02070312 4.26113281 0.02070312 5.77514648 0.02563477 C6.81606445 0.03401367 7.85698242 0.04239258 8.92944336 0.05102539 C10.49662109 0.05779297 10.49662109 0.05779297 12.09545898 0.06469727 C14.68600996 0.07652627 17.27644895 0.0930085 19.86694336 0.11352539 C19.53694336 0.77352539 19.20694336 1.43352539 18.86694336 2.11352539 C12.26694336 2.11352539 5.66694336 2.11352539 -1.13305664 2.11352539 C-1.79305664 3.43352539 -2.45305664 4.75352539 -3.13305664 6.11352539 C-3.95255681 7.43470675 -4.78621554 8.74719992 -5.63305664 10.05102539 C-7.50613267 13.00535231 -8.84820429 15.85856609 -10.13305664 19.11352539 C-11.46638997 21.11352539 -12.79972331 23.11352539 -14.13305664 25.11352539 C-14.44243164 25.95915039 -14.75180664 26.80477539 -15.07055664 27.67602539 C-16.46603796 30.87742371 -18.61992316 32.72927055 -21.13305664 35.11352539 C-21.46305664 35.77352539 -21.79305664 36.43352539 -22.13305664 37.11352539 C-22.79305664 37.11352539 -23.45305664 37.11352539 -24.13305664 37.11352539 C-22.86198752 33.75038817 -21.41593524 30.71352186 -19.55883789 27.63696289 C-18.80920776 26.39039917 -18.80920776 26.39039917 -18.04443359 25.11865234 C-17.5168042 24.25071045 -16.9891748 23.38276855 -16.44555664 22.48852539 C-15.90825928 21.59931396 -15.37096191 20.71010254 -14.81738281 19.79394531 C-2.91738013 0.1552686 -2.91738013 0.1552686 0 0 Z " fill="#222122" transform="translate(589.133056640625,37.886474609375)"/>
<path d="M0 0 C0.74886475 0.00523682 1.49772949 0.01047363 2.26928711 0.01586914 C3.36188843 0.01961548 3.36188843 0.01961548 4.4765625 0.0234375 C5.40718506 0.0325415 6.33780762 0.04164551 7.29663086 0.05102539 C11.72069336 0.08196289 11.72069336 0.08196289 16.23413086 0.11352539 C16.23413086 11.00352539 16.23413086 21.89352539 16.23413086 33.11352539 C14.17155982 28.9883833 13.99656483 27.29552401 14.03881836 22.81665039 C14.04526367 21.61137695 14.05170898 20.40610352 14.05834961 19.16430664 C14.07510742 17.91004883 14.09186523 16.65579102 14.10913086 15.36352539 C14.1181543 14.09379883 14.12717773 12.82407227 14.13647461 11.51586914 C14.16003999 8.3816741 14.19591073 5.24757598 14.23413086 2.11352539 C9.28413086 2.11352539 4.33413086 2.11352539 -0.76586914 2.11352539 C-0.76586914 5.41352539 -0.76586914 8.71352539 -0.76586914 12.11352539 C-1.42586914 11.78352539 -2.08586914 11.45352539 -2.76586914 11.11352539 C-2.79275065 9.46777973 -2.81221037 7.82191126 -2.82836914 6.17602539 C-2.8399707 5.25950195 -2.85157227 4.34297852 -2.86352539 3.39868164 C-2.72577131 0.17523623 -2.72577131 0.17523623 0 0 Z " fill="#212021" transform="translate(138.765869140625,89.886474609375)"/>
<path d="M0 0 C0.95708359 0.00222061 1.91416718 0.00444122 2.9002533 0.00672913 C3.98129837 0.00680466 5.06234344 0.00688019 6.17614746 0.00695801 C7.94018166 0.01469994 7.94018166 0.01469994 9.73985291 0.02259827 C10.93702438 0.02401321 12.13419586 0.02542816 13.36764526 0.02688599 C17.20918732 0.03250472 21.05067208 0.04506041 24.89219666 0.05775452 C27.48920102 0.0627671 30.0862063 0.06733043 32.68321228 0.07142639 C39.06539344 0.08248024 45.44754096 0.0992366 51.82969666 0.12025452 C49.82969666 2.12025452 49.82969666 2.12025452 47.6530304 2.36076355 C46.7514621 2.35632233 45.8498938 2.3518811 44.92100525 2.3473053 C43.90009796 2.34715424 42.87919067 2.34700317 41.8273468 2.34684753 C40.16948654 2.33136368 40.16948654 2.33136368 38.47813416 2.31556702 C37.34896576 2.31273712 36.21979736 2.30990723 35.05641174 2.30699158 C31.43906695 2.29576914 27.821967 2.27066074 24.20469666 2.24525452 C21.75678356 2.23522739 19.30886659 2.22610108 16.86094666 2.21791077 C10.85035907 2.19752207 4.84030292 2.15837676 -1.17030334 2.12025452 C-1.17030334 11.36025452 -1.17030334 20.60025452 -1.17030334 30.12025452 C-1.83030334 29.79025452 -2.49030334 29.46025452 -3.17030334 29.12025452 C-3.19496216 25.15094462 -3.21314357 21.18166417 -3.22523499 17.21229553 C-3.23027391 15.86105066 -3.23710512 14.50981126 -3.2457428 13.15858459 C-3.25782754 11.22005017 -3.26300163 9.28147651 -3.26795959 7.34291077 C-3.27319641 6.17510071 -3.27843323 5.00729065 -3.28382874 3.80409241 C-3.13025362 0.17344448 -3.13025362 0.17344448 0 0 Z " fill="#272626" transform="translate(183.17030334472656,100.87974548339844)"/>
<path d="M0 0 C3.91303563 4.60987759 6.81449717 9.60824509 9.8203125 14.82421875 C11.7879333 18.51978955 11.7879333 18.51978955 15 21 C15.2475 20.319375 15.495 19.63875 15.75 18.9375 C17.24197908 15.43134917 19.06835511 12.28379632 21 9 C21.66 9.33 22.32 9.66 23 10 C21.4542592 16.98295186 20.04168421 20.97221053 14 25 C10.10977512 21.50061547 7.5060813 17.45700753 4.75 13.0625 C4.29109375 12.35931641 3.8321875 11.65613281 3.359375 10.93164062 C-0.67348195 4.52827996 -0.67348195 4.52827996 0 0 Z " fill="#1C1C1D" transform="translate(543,65)"/>
<path d="M0 0 C0.33 0 0.66 0 1 0 C1.02505615 1.0194873 1.0501123 2.03897461 1.07592773 3.08935547 C1.16997004 6.86520354 1.27019837 10.64086627 1.37231445 14.41650391 C1.41567538 16.05187653 1.45734961 17.68729477 1.49731445 19.32275391 C1.55498912 21.67103841 1.61869129 24.01909304 1.68359375 26.3671875 C1.70030624 27.10057343 1.71701874 27.83395935 1.73423767 28.58956909 C1.78637962 32.42202308 1.78637962 32.42202308 3 36 C3.71655762 35.98428955 4.43311523 35.9685791 5.17138672 35.95239258 C8.40584476 35.89018137 11.64017719 35.85105351 14.875 35.8125 C16.56689453 35.77479492 16.56689453 35.77479492 18.29296875 35.73632812 C19.36933594 35.72666016 20.44570313 35.71699219 21.5546875 35.70703125 C23.04718018 35.68346558 23.04718018 35.68346558 24.56982422 35.65942383 C25.77276123 35.82800903 25.77276123 35.82800903 27 36 C27.66 36.99 28.32 37.98 29 39 C25.03069011 39.02465881 21.06140966 39.04284023 17.09204102 39.05493164 C15.74079614 39.05997057 14.38955674 39.06680177 13.03833008 39.07543945 C11.09979566 39.08752419 9.161222 39.09269828 7.22265625 39.09765625 C5.47094116 39.10551147 5.47094116 39.10551147 3.68383789 39.11352539 C1 39 1 39 0 38 C-0.08861992 35.1883662 -0.11522355 32.40141745 -0.09765625 29.58984375 C-0.0962413 28.74780899 -0.09482635 27.90577423 -0.09336853 27.03822327 C-0.08775263 24.33794665 -0.07519748 21.63775172 -0.0625 18.9375 C-0.05748705 17.11132932 -0.05292379 15.28515734 -0.04882812 13.45898438 C-0.03777804 8.97262458 -0.02050279 4.48632616 0 0 Z " fill="#1E1D20" transform="translate(279,56)"/>
<path d="M0 0 C3.4873637 2.20866368 4.81424086 4.04746952 6 8 C6 8.99 6 9.98 6 11 C6.66 11 7.32 11 8 11 C8.33 12.32 8.66 13.64 9 15 C9.66 15 10.32 15 11 15 C11.556875 16.155 12.11375 17.31 12.6875 18.5 C16.63627031 26.75498091 16.63627031 26.75498091 23 33 C23.6875 36.625 23.6875 36.625 24 40 C19.90485971 36.40356532 17.43561924 32.07136797 14.6875 27.4375 C13.71303021 25.81723256 12.73777085 24.19743974 11.76171875 22.578125 C11.29040527 21.79373047 10.8190918 21.00933594 10.33349609 20.20117188 C8.09911868 16.51293555 5.77258611 12.88693993 3.4375 9.26171875 C2.963125 8.51535156 2.48875 7.76898438 2 7 C1.4225 6.11957031 0.845 5.23914062 0.25 4.33203125 C-0.1625 3.56246094 -0.575 2.79289062 -1 2 C-0.67 1.34 -0.34 0.68 0 0 Z " fill="#18181B" transform="translate(505,41)"/>
<path d="M0 0 C0.99 0.495 0.99 0.495 2 1 C2.16817795 5.60792324 2.3286755 10.21602737 2.48217773 14.82446289 C2.53542409 16.39094166 2.59073889 17.95735157 2.64819336 19.52368164 C2.73059157 21.77995972 2.8054563 24.03638379 2.87890625 26.29296875 C2.90594131 26.98899704 2.93297638 27.68502533 2.96083069 28.40214539 C3.07312501 32.0918199 2.90155248 35.41503877 2 39 C3.98 39.33 5.96 39.66 8 40 C8 40.33 8 40.66 8 41 C2.25 41.125 2.25 41.125 0 40 C0 26.8 0 13.6 0 0 Z " fill="#1A191A" transform="translate(370,111)"/>
<path d="M0 0 C1.32 0.33 2.64 0.66 4 1 C4 4.50358382 3.87457133 8.00564184 3.78125 11.5078125 C3.75905396 12.34843231 3.73685791 13.18905212 3.71398926 14.05514526 C3.64290583 16.74510342 3.571457 19.43505174 3.5 22.125 C3.45179889 23.94661395 3.4036215 25.76822852 3.35546875 27.58984375 C3.23725471 32.05990317 3.11871291 36.5299538 3 41 C2.34 40.67 1.68 40.34 1 40 C0.67 26.8 0.34 13.6 0 0 Z " fill="#231F25" transform="translate(459,55)"/>
<path d="M0 0 C0.33 0 0.66 0 1 0 C2.38958633 11.95044247 -5.94747459 24.47269201 -11 35 C-11.66 34.67 -12.32 34.34 -13 34 C-11.66666667 30 -10.33333333 26 -9 22 C-8.34 22 -7.68 22 -7 22 C-6.89816406 21.18273437 -6.79632813 20.36546875 -6.69140625 19.5234375 C-5.8706936 15.34104875 -4.48095009 11.5856863 -2.9375 7.625 C-2.65583984 6.88894531 -2.37417969 6.15289062 -2.08398438 5.39453125 C-1.39433382 3.5944264 -0.69786068 1.7969379 0 0 Z " fill="#1A1A1A" transform="translate(131,75)"/>
<path d="M0 0 C5.28 0 10.56 0 16 0 C13 2 13 2 2 2 C2 10.91 2 19.82 2 29 C1.34 29 0.68 29 0 29 C0 19.43 0 9.86 0 0 Z " fill="#2B292C" transform="translate(180,55)"/>
<path d="M0 0 C0.66 0 1.32 0 2 0 C2 1.32 2 2.64 2 4 C3.43049683 3.99214478 3.43049683 3.99214478 4.88989258 3.98413086 C8.42894553 3.96602735 11.96799438 3.95454839 15.50708008 3.94506836 C17.0386626 3.9400404 18.57024033 3.93321716 20.10180664 3.92456055 C22.30356022 3.91242771 24.50525033 3.90675633 26.70703125 3.90234375 C27.39150833 3.89718246 28.07598541 3.89202118 28.78120422 3.88670349 C31.80906242 3.8863464 34.10150142 4.03383381 37 5 C36.67 5.66 36.34 6.32 36 7 C24.12 6.67 12.24 6.34 0 6 C0 4.02 0 2.04 0 0 Z " fill="#2F2E2F" transform="translate(404,51)"/>
<path d="M0 0 C0.99 0.33 1.98 0.66 3 1 C2.73445313 1.65226562 2.46890625 2.30453125 2.1953125 2.9765625 C0.32172003 7.61267817 -1.49315006 12.22830854 -3 17 C-4.890625 16.78515625 -4.890625 16.78515625 -7 16 C-8.046875 13.93359375 -8.046875 13.93359375 -8.75 11.4375 C-9.11351563 10.19806641 -9.11351563 10.19806641 -9.484375 8.93359375 C-9.65453125 8.29550781 -9.8246875 7.65742187 -10 7 C-9.01 7 -8.02 7 -7 7 C-6.67 8.65 -6.34 10.3 -6 12 C-5.34 12 -4.68 12 -4 12 C-3.79503906 11.38511719 -3.59007813 10.77023438 -3.37890625 10.13671875 C-2.25260417 6.7578125 -1.12630208 3.37890625 0 0 Z " fill="#1C1A1B" transform="translate(97,109)"/>
<path d="M0 0 C8.25 0 16.5 0 25 0 C25 0.66 25 1.32 25 2 C17.74 2 10.48 2 3 2 C2.67 2.99 2.34 3.98 2 5 C1.34 4.34 0.68 3.68 0 3 C0 2.01 0 1.02 0 0 Z " fill="#2A292A" transform="translate(502,38)"/>
<path d="M0 0 C7.26 0 14.52 0 22 0 C18.97906785 3.02093215 15.43627928 2.46676834 11.375 2.625 C10.17230469 2.68300781 10.17230469 2.68300781 8.9453125 2.7421875 C6.96392444 2.83653931 4.98199355 2.91936215 3 3 C2.67 4.32 2.34 5.64 2 7 C0 4 0 4 0 0 Z " fill="#2B292C" transform="translate(35,38)"/>
<path d="M0 0 C1.48831242 0.00667405 2.97660807 0.01863442 4.46484375 0.03515625 C5.22345703 0.03966797 5.98207031 0.04417969 6.76367188 0.04882812 C8.64326246 0.06064945 10.52281274 0.07858547 12.40234375 0.09765625 C12.07234375 0.75765625 11.74234375 1.41765625 11.40234375 2.09765625 C6.78234375 2.09765625 2.16234375 2.09765625 -2.59765625 2.09765625 C-2.59765625 5.39765625 -2.59765625 8.69765625 -2.59765625 12.09765625 C-3.25765625 11.76765625 -3.91765625 11.43765625 -4.59765625 11.09765625 C-4.62453776 9.45191059 -4.64399748 7.80604212 -4.66015625 6.16015625 C-4.67175781 5.24363281 -4.68335938 4.32710938 -4.6953125 3.3828125 C-4.53349483 -0.403721 -3.94500857 0.10708492 0 0 Z " fill="#2E2D2F" transform="translate(140.59765625,89.90234375)"/>
<path d="M0 0 C0.99 0.33 1.98 0.66 3 1 C-2.91777603 6.07237945 -7.35232178 7.53965471 -15 7 C-18 6.5 -18 6.5 -20 6 C-20 5.67 -20 5.34 -20 5 C-18.97519531 4.89042969 -17.95039063 4.78085938 -16.89453125 4.66796875 C-15.53378133 4.50843255 -14.17310806 4.3482416 -12.8125 4.1875 C-12.13896484 4.11724609 -11.46542969 4.04699219 -10.77148438 3.97460938 C-6.43429527 3.44568387 -3.6686244 2.27415616 0 0 Z " fill="#2B2A2E" transform="translate(323,88)"/>
<path d="M0 0 C4.31659574 2.21499571 6.56022316 4.7223554 9.3125 8.6875 C10.00988281 9.68136719 10.70726562 10.67523438 11.42578125 11.69921875 C11.94527344 12.45847656 12.46476562 13.21773437 13 14 C12.67 14.66 12.34 15.32 12 16 C8.69713914 14.89904638 8.21489099 14.3103981 6.3125 11.5625 C5.87550781 10.94503906 5.43851562 10.32757813 4.98828125 9.69140625 C4 8 4 8 4 6 C3.34 5.67 2.68 5.34 2 5 C1.27840576 3.35636866 0.60648579 1.68949614 0 0 Z " fill="#151516" transform="translate(328,110)"/>
<path d="M0 0 C0.66 0 1.32 0 2 0 C2.33 10.56 2.66 21.12 3 32 C2.01 31.34 1.02 30.68 0 30 C-0.30883789 27.63330078 -0.30883789 27.63330078 -0.22265625 24.6953125 C-0.19461914 23.10783203 -0.19461914 23.10783203 -0.16601562 21.48828125 C-0.13185547 20.37839844 -0.09769531 19.26851562 -0.0625 18.125 C-0.00245377 15.94033916 0.04869062 13.75541089 0.08984375 11.5703125 C0.13419556 10.11262451 0.13419556 10.11262451 0.17944336 8.62548828 C-0.00679937 5.90051648 -0.60374862 4.31942962 -2 2 C-1.34 1.34 -0.68 0.68 0 0 Z " fill="#0F0E11" transform="translate(178,55)"/>
<path d="M0 0 C0.66 0.33 1.32 0.66 2 1 C0.4542592 7.98295186 -0.95831579 11.97221053 -7 16 C-7.66 15.67 -8.32 15.34 -9 15 C-8.67 14.01 -8.34 13.02 -8 12 C-7.34 12 -6.68 12 -6 12 C-5.7525 11.319375 -5.505 10.63875 -5.25 9.9375 C-3.75802092 6.43134917 -1.93164489 3.28379632 0 0 Z " fill="#161516" transform="translate(564,74)"/>
<path d="M0 0 C0.66 0 1.32 0 2 0 C2.16242188 0.64453125 2.32484375 1.2890625 2.4921875 1.953125 C3.95214403 4.4336254 3.95214403 4.4336254 7.6953125 4.609375 C9.17112237 4.67585292 10.64796017 4.72193879 12.125 4.75 C12.87910156 4.77964844 13.63320312 4.80929688 14.41015625 4.83984375 C16.27285953 4.91057932 18.13643755 4.95754983 20 5 C19.67 5.66 19.34 6.32 19 7 C16.3941111 7.13494246 13.79517889 7.23402299 11.1875 7.3125 C10.08051758 7.3753418 10.08051758 7.3753418 8.95117188 7.43945312 C6.79296875 7.48828125 6.79296875 7.48828125 3 7 C0.96864499 4.58209588 0 3.17574054 0 0 Z " fill="#1E1C20" transform="translate(79,145)"/>
<path d="M0 0 C1.32 0 2.64 0 4 0 C4 0.66 4 1.32 4 2 C4.66 2 5.32 2 6 2 C6 2.99 6 3.98 6 5 C3.35541621 6.32229189 1.32238699 6.09677194 -1.625 6.0625 C-2.62789063 6.05347656 -3.63078125 6.04445312 -4.6640625 6.03515625 C-5.43492187 6.02355469 -6.20578125 6.01195312 -7 6 C-7.33 5.34 -7.66 4.68 -8 4 C-5.36 3.34 -2.72 2.68 0 2 C0 1.34 0 0.68 0 0 Z " fill="#131214" transform="translate(275,146)"/>
<path d="M0 0 C1.57043101 0.01330874 3.14079971 0.03717648 4.7109375 0.0703125 C5.51273438 0.07933594 6.31453125 0.08835938 7.140625 0.09765625 C9.12252273 0.12125027 11.10426731 0.15712185 13.0859375 0.1953125 C12.7559375 1.5153125 12.4259375 2.8353125 12.0859375 4.1953125 C11.7559375 3.8653125 11.4259375 3.5353125 11.0859375 3.1953125 C8.22715841 2.95830011 5.38710453 2.77312068 2.5234375 2.6328125 C1.71712891 2.58962891 0.91082031 2.54644531 0.08007812 2.50195312 C-1.91775055 2.39555988 -3.9158832 2.29490362 -5.9140625 2.1953125 C-3.9140625 0.1953125 -3.9140625 0.1953125 0 0 Z " fill="#313033" transform="translate(135.9140625,37.8046875)"/>
<path d="M0 0 C0.33 0 0.66 0 1 0 C1.02505615 0.83772949 1.0501123 1.67545898 1.07592773 2.53857422 C1.17100357 5.64352256 1.27024025 8.74830181 1.37231445 11.85302734 C1.43698251 13.85894807 1.49683106 15.86502228 1.55664062 17.87109375 C1.59853516 19.12792969 1.64042969 20.38476562 1.68359375 21.6796875 C1.72025146 22.84226074 1.75690918 24.00483398 1.79467773 25.20263672 C1.81821659 27.9535501 1.81821659 27.9535501 3 30 C2.34 30 1.68 30 1 30 C0.67 30.66 0.34 31.32 0 32 C-1.15759801 28.52720596 -1.02260483 26.01961176 -0.87890625 22.36328125 C-0.83056641 21.06455078 -0.78222656 19.76582031 -0.73242188 18.42773438 C-0.67590048 17.05598467 -0.61925831 15.68423993 -0.5625 14.3125 C-0.50925949 12.92905584 -0.45651922 11.54559234 -0.40429688 10.16210938 C-0.27445883 6.77451675 -0.13948625 3.38720686 0 0 Z " fill="#121112" transform="translate(179,102)"/>
<path d="M0 0 C3.43970626 1.14656875 3.8782229 1.84518278 5.75 4.8125 C6.19859375 5.49957031 6.6471875 6.18664063 7.109375 6.89453125 C8.16892656 9.39934831 7.92399724 10.49281235 7 13 C6.66226563 12.43410156 6.32453125 11.86820313 5.9765625 11.28515625 C5.53054688 10.55167969 5.08453125 9.81820312 4.625 9.0625 C3.96371094 7.96615234 3.96371094 7.96615234 3.2890625 6.84765625 C2.1226016 4.86227728 2.1226016 4.86227728 0 4 C0 2.68 0 1.36 0 0 Z " fill="#201F21" transform="translate(526,40)"/>
<path d="M0 0 C3 0 3 0 5.125 1.5625 C7.51379206 4.66792968 7.70360455 7.14685914 8 11 C4.32966073 7.72291137 2.30718811 4.28477792 0 0 Z " fill="#131215" transform="translate(521,70)"/>
<path d="M0 0 C1.32 0.66 2.64 1.32 4 2 C2.66511872 5.59391114 1.03977277 8.75490696 -1 12 C-2.45606519 7.47907032 -1.27032841 4.48351204 0 0 Z " fill="#08080A" transform="translate(586,65)"/>
<path d="M0 0 C0.33 0.99 0.66 1.98 1 3 C1.66 3 2.32 3 3 3 C2.48041715 7.37934119 1.94324258 11.68803391 1 16 C0.67 16 0.34 16 0 16 C0 10.72 0 5.44 0 0 Z " fill="#201F21" transform="translate(496,40)"/>
<path d="M0 0 C0.66 0.66 1.32 1.32 2 2 C1.9765625 4.1640625 1.9765625 4.1640625 1.625 6.625 C1.51414062 7.44226563 1.40328125 8.25953125 1.2890625 9.1015625 C1.19367187 9.72804688 1.09828125 10.35453125 1 11 C0.01 10.34 -0.98 9.68 -2 9 C-2.3125 5.5 -2.3125 5.5 -2 2 C-1.34 1.34 -0.68 0.68 0 0 Z " fill="#0B0B0E" transform="translate(567,104)"/>
<path d="M0 0 C0.99 0 1.98 0 3 0 C3.33 1.65 3.66 3.3 4 5 C3.01 5.495 3.01 5.495 2 6 C1.01 5.01 0.02 4.02 -1 3 C-0.67 2.01 -0.34 1.02 0 0 Z M-2 4 C-1.34 4.66 -0.68 5.32 0 6 C-0.99 6.495 -0.99 6.495 -2 7 C-2 6.01 -2 5.02 -2 4 Z " fill="#080909" transform="translate(339,129)"/>
<path d="M0 0 C1.79068573 2.6860286 2.66055791 4.6626589 3.625 7.6875 C3.88539062 8.49574219 4.14578125 9.30398437 4.4140625 10.13671875 C4.60742188 10.75160156 4.80078125 11.36648437 5 12 C4.01 11.67 3.02 11.34 2 11 C1.05078125 8.71484375 1.05078125 8.71484375 0.3125 5.9375 C0.06113281 5.01839844 -0.19023438 4.09929687 -0.44921875 3.15234375 C-0.63097656 2.44207031 -0.81273438 1.73179688 -1 1 C-0.67 0.67 -0.34 0.34 0 0 Z " fill="#252424" transform="translate(78,89)"/>
<path d="M0 0 C0.33 0.99 0.66 1.98 1 3 C-1.97 5.475 -1.97 5.475 -5 8 C-5.66 7.67 -6.32 7.34 -7 7 C-6.67 6.01 -6.34 5.02 -6 4 C-5.01 4 -4.02 4 -3 4 C-3 3.34 -3 2.68 -3 2 C-2.01 1.34 -1.02 0.68 0 0 Z " fill="#0D0C0E" transform="translate(562,82)"/>
<path d="M0 0 C3.14958831 3.42346555 3.56179109 6.44262737 4 11 C2 10 2 10 1.1484375 7.93359375 C0.89320312 7.10988281 0.63796875 6.28617188 0.375 5.4375 C0.11460938 4.61121094 -0.14578125 3.78492188 -0.4140625 2.93359375 C-0.60742188 2.29550781 -0.80078125 1.65742187 -1 1 C-0.67 0.67 -0.34 0.34 0 0 Z " fill="#1D1D1D" transform="translate(38,44)"/>
<path d="M0 0 C0.66 0 1.32 0 2 0 C1.35455571 3.48539917 -0.10134397 6.02819057 -2 9 C-2.66 8.67 -3.32 8.34 -4 8 C-2.68 5.36 -1.36 2.72 0 0 Z " fill="#232225" transform="translate(609,38)"/>
<path d="M0 0 C0.99 0 1.98 0 3 0 C3.33 1.65 3.66 3.3 4 5 C4.66 5 5.32 5 6 5 C6 5.66 6 6.32 6 7 C5.34 7 4.68 7 4 7 C3.67 7.66 3.34 8.32 3 9 C2.01 6.03 1.02 3.06 0 0 Z " fill="#131313" transform="translate(87,116)"/>
<path d="M0 0 C0.66 0.66 1.32 1.32 2 2 C0.68 2.99 -0.64 3.98 -2 5 C-3.32 4.34 -4.64 3.68 -6 3 C-4.02 2.01 -2.04 1.02 0 0 Z " fill="#1A191C" transform="translate(338,100)"/>
<path d="M0 0 C0.33 0 0.66 0 1 0 C1.125 6.625 1.125 6.625 0 10 C-0.66 10 -1.32 10 -2 10 C-1.54177532 6.53058454 -1.10868317 3.32604951 0 0 Z " fill="#212122" transform="translate(131,75)"/>
<path d="M0 0 C1.32 0.33 2.64 0.66 4 1 C4 2.66666667 4 4.33333333 4 6 C3.34 6 2.68 6 2 6 C1.67 6.66 1.34 7.32 1 8 C0.67 5.36 0.34 2.72 0 0 Z " fill="#1B181B" transform="translate(459,55)"/>
<path d="M0 0 C1.32 0.99 2.64 1.98 4 3 C3.34 4.32 2.68 5.64 2 7 C0.4375 5.75 0.4375 5.75 -1 4 C-0.6875 1.8125 -0.6875 1.8125 0 0 Z " fill="#09090B" transform="translate(67,111)"/>
</svg>
